<svg width="392" height="353" viewBox="0 0 392 353" fill="none" xmlns="http://www.w3.org/2000/svg">
<path d="M292.785 155.126C294.476 155.877 296.329 156.286 298.214 156.326C298.32 156.315 298.422 156.286 298.515 156.239C298.608 156.192 298.69 156.129 298.755 156.053C298.821 155.978 298.869 155.891 298.898 155.799C298.926 155.706 298.933 155.61 298.92 155.514C298.763 154.402 297.371 155.356 293.51 153.749L293.706 152.443C293.804 152.073 293.314 151.473 292.785 151.649C292.256 151.826 292.118 152.39 291.962 153.414C291.805 154.438 291.726 154.65 292.785 155.126ZM88.2 160.139C90.5585 159.561 92.7735 158.585 94.7268 157.262C95.4912 156.732 95.2364 155.497 95.0208 154.791C94.9594 154.608 94.8251 154.451 94.6436 154.352C94.4622 154.252 94.2463 154.217 94.0374 154.252C93.8286 154.287 93.6414 154.39 93.5118 154.541C93.3822 154.693 93.3193 154.882 93.3352 155.073C93.3724 155.456 93.4512 155.834 93.5704 156.203C88.9252 159.256 87.122 158.497 87.3964 159.733C87.4573 159.874 87.5708 159.991 87.7174 160.065C87.864 160.139 88.0345 160.165 88.2 160.139ZM82.8688 156.873C86.7888 156.873 85.456 154.791 84.3976 155.108L82.8884 155.32C81.5948 149.796 82.6336 148.631 81.5164 148.596C81.3479 148.586 81.1819 148.636 81.0537 148.735C80.9255 148.834 80.8454 148.974 80.8304 149.125C80.692 151.308 80.8698 153.497 81.3596 155.638C81.5752 156.591 81.9672 156.873 82.8688 156.873ZM196.686 153.838C197.803 153.838 203.683 152.69 204.683 152.549C206.153 152.32 207.897 151.914 208.015 150.484C208.015 149.602 207.309 148.578 206.506 149.107C206.338 149.213 206.215 149.366 206.155 149.541C206.094 149.717 206.101 149.906 206.172 150.078C206.466 150.767 205.839 150.714 196.372 152.567C196.198 152.615 196.051 152.721 195.959 152.863C195.868 153.005 195.839 153.172 195.879 153.332C195.918 153.493 196.023 153.633 196.173 153.727C196.322 153.821 196.506 153.86 196.686 153.838ZM67.7768 110.63C68.208 111.072 69.2664 110.63 68.9528 109.96C66.9928 105.653 63.3864 100.852 61.1128 96.1221C60.76 95.3632 60.0544 94.0747 59.3684 94.0041C59.2825 93.9932 59.1949 94.004 59.1153 94.0351C59.0358 94.0663 58.9673 94.1166 58.9176 94.1806C58.4864 94.7101 59.1136 96.1751 59.4076 96.7928C60.3092 98.5402 64.68 107.436 67.7768 110.63ZM131.32 103.182C131.357 103.32 131.433 103.447 131.541 103.55C131.649 103.653 131.785 103.729 131.936 103.77C132.086 103.811 132.246 103.816 132.399 103.784C132.553 103.752 132.694 103.684 132.81 103.588C134.428 102.261 135.898 100.795 137.2 99.2109C143.08 116.155 143.08 116.755 144.001 116.755C144.133 116.752 144.263 116.723 144.382 116.67C144.5 116.618 144.605 116.543 144.688 116.451C144.772 116.359 144.833 116.252 144.866 116.137C144.9 116.022 144.906 115.901 144.883 115.784C142.688 109.536 140.375 103.429 138.376 97.1988C138.331 97.0439 138.237 96.9045 138.104 96.7979C137.971 96.6913 137.807 96.6224 137.631 96.5997C137.455 96.5771 137.276 96.6018 137.115 96.6707C136.955 96.7396 136.821 96.8496 136.73 96.987C135.604 98.5812 134.29 100.061 132.81 101.399C131.634 96.5634 128.89 85.5145 128.89 85.5145C128.84 85.3366 128.714 85.1837 128.54 85.0893C128.365 84.995 128.156 84.967 127.959 85.0114C127.761 85.0559 127.591 85.1692 127.486 85.3265C127.382 85.4837 127.351 85.6719 127.4 85.8498C128.066 88.5856 130.908 101.964 131.32 103.182ZM29.2236 194.997C22.9124 192.279 17.2872 189.491 10.8192 186.42C9.56478 185.819 8.70238 187.884 10.6624 188.361C16.3094 191.535 22.331 194.134 28.616 196.109C29.4 196.304 29.9488 195.386 29.2236 194.997ZM34.2412 154.244C34.3759 154.351 34.5439 154.419 34.7226 154.438C34.9012 154.456 35.0821 154.426 35.2408 154.349C36.5344 153.785 34.8684 152.39 35.4956 144.007C51.3912 161.286 50.5092 160.845 51.1756 160.845C51.3136 160.852 51.4511 160.824 51.5721 160.764C51.693 160.704 51.7923 160.614 51.8582 160.504C51.9241 160.395 51.9539 160.271 51.9441 160.146C51.9343 160.022 51.8853 159.903 51.8028 159.803C49.3136 156.979 38.416 144.783 35.5152 141.465C35.4061 141.341 35.2597 141.247 35.0933 141.195C34.9269 141.143 34.7475 141.135 34.5763 141.172C34.4051 141.21 34.2493 141.29 34.1274 141.405C34.0055 141.519 33.9225 141.662 33.8884 141.818C33.4899 145.041 33.4243 148.291 33.6924 151.525C27.8124 146.778 22.1872 141.747 16.2484 137.123C16.0686 136.993 15.8437 136.924 15.6132 136.929C15.3828 136.934 15.1615 137.011 14.9883 137.148C14.8151 137.285 14.701 137.473 14.6662 137.678C14.6314 137.883 14.6781 138.093 14.798 138.27C17.1108 141.5 30.1644 150.908 34.2412 154.244ZM188.846 88.7797C188.846 88.9529 188.922 89.119 189.058 89.2415C189.194 89.364 189.379 89.4328 189.571 89.4328C189.764 89.4328 189.948 89.364 190.084 89.2415C190.22 89.119 190.296 88.9529 190.296 88.7797C190.632 82.2968 190.331 75.7998 189.395 69.3647C189.375 69.1949 189.3 69.0341 189.181 68.9016C189.061 68.7691 188.901 68.6708 188.721 68.6185C188.54 68.5662 188.347 68.5621 188.164 68.6069C187.981 68.6516 187.816 68.7432 187.69 68.8705C186.808 69.8942 188.924 73.1242 188.846 88.7797ZM241.884 119.438C256.799 96.7752 255.996 97.9048 255.878 97.4988C255.545 96.4751 254.604 96.9693 247.058 99.0167C249.018 92.751 251.468 86.0616 253.095 79.7253C253.129 79.5204 253.076 79.3115 252.947 79.1398C252.819 78.968 252.624 78.8458 252.4 78.7971C252.176 78.7484 251.941 78.7768 251.739 78.8767C251.538 78.9766 251.385 79.1408 251.311 79.337C249.096 86.397 246.901 93.2981 244.784 100.076C244.75 100.216 244.756 100.361 244.801 100.499C244.847 100.636 244.93 100.761 245.044 100.862C245.157 100.962 245.297 101.035 245.451 101.074C245.604 101.112 245.766 101.115 245.921 101.082C245.921 101.082 251.115 99.6345 253.212 99.0167L240.688 118.838C240.614 118.979 240.602 119.141 240.656 119.29C240.709 119.439 240.823 119.564 240.975 119.64C241.126 119.717 241.305 119.738 241.473 119.7C241.642 119.663 241.789 119.569 241.884 119.438ZM382.024 171.205C381.004 170.764 362.149 181.319 361.953 181.442C361.267 181.883 361.953 182.978 362.659 182.642C363.796 182.184 381.808 173.164 382.416 172.194C382.462 172.106 382.489 172.01 382.494 171.913C382.5 171.815 382.484 171.718 382.447 171.626C382.411 171.534 382.355 171.45 382.282 171.378C382.209 171.305 382.121 171.247 382.024 171.205ZM332.122 151.031C332.122 151.031 351.016 138.059 354.544 135.588C355.309 135.04 354.544 133.823 353.643 133.911C350.086 133.987 346.544 134.347 343.059 134.987C348.118 130.127 352.598 124.803 356.426 119.102C357.073 118.149 355.505 117.161 354.878 118.132C350.559 124.475 345.421 130.334 339.57 135.588C338.943 136.135 339.335 137.476 340.354 137.353C343.814 136.559 347.341 136.028 350.899 135.764C350.899 135.764 335.924 146.619 331.299 150.061C331.221 150.173 331.183 150.304 331.19 150.437C331.197 150.569 331.249 150.696 331.338 150.802C331.427 150.907 331.55 150.986 331.69 151.027C331.83 151.068 331.981 151.069 332.122 151.031ZM305.094 99.9345C317.128 81.2608 319.225 78.5427 317.206 78.0838C316.344 77.8897 316.383 77.9603 303.741 99.2638C303.682 99.4209 303.686 99.5917 303.752 99.7463C303.819 99.901 303.944 100.03 304.105 100.11C304.267 100.19 304.454 100.216 304.635 100.184C304.815 100.152 304.978 100.064 305.094 99.9345Z" fill="white"/>
<path d="M360.64 177.401C352.643 154.685 332.436 137.212 305.152 129.481C305.134 129.031 305.082 128.583 304.996 128.14C312.444 125.21 314.11 115.132 312.463 106.36C313.894 104.259 317.696 93.4574 314.894 94.94L309.778 97.6581C309.053 95.8931 308.21 94.2516 307.308 92.6278C307.504 89.8038 304.643 84.7559 299.606 81.4554C294.98 78.4196 287.022 75.7015 275.419 80.0434C266.364 83.4322 256.152 90.9158 254.604 101.788C252.644 115.908 257.838 122.756 248.136 135.87C237.416 131.499 225.989 128.699 214.287 127.575C214.287 126.784 214.228 125.994 214.11 125.21C219.108 122.933 220.167 115.52 220.382 113.102C226.262 108.513 226.948 99.3701 222.342 99.1583C223.526 92.6085 223.979 85.9684 223.695 79.3374C223.44 75.2249 221.48 74.3071 220.578 74.1306C219.942 74.0223 219.285 74.0774 218.682 74.2896C218.079 74.5019 217.554 74.8627 217.168 75.3308C215.698 72.6304 212.876 72.9657 211.288 75.0131C211.132 74.2864 210.727 73.6223 210.129 73.1145C209.531 72.6067 208.771 72.281 207.956 72.1835C207.141 72.0859 206.313 72.2214 205.589 72.5708C204.864 72.9202 204.28 73.4659 203.918 74.1306C203.538 73.402 202.927 72.7915 202.16 72.3768C201.394 71.9621 200.508 71.7619 199.615 71.8016C198.723 71.8413 197.863 72.1192 197.146 72.5999C196.429 73.0806 195.887 73.7424 195.588 74.5013C193.628 70.6712 188.63 71.5537 187.513 75.4367C186.043 72.4539 182.025 72.4715 180.634 75.9309C176.968 73.4952 174.087 75.9309 173.499 79.9375C173.143 86.7503 173.458 93.5781 174.44 100.341C167.796 98.9995 172.97 113.014 176.929 113.349C177.615 118.644 180.046 124.468 184.769 125.88C184.769 126.586 184.652 127.31 184.652 128.016C171.979 129.838 159.783 133.733 148.666 139.506C142.551 135.623 128.948 130.346 115.875 131.317C113.507 126.81 111.724 122.072 110.564 117.197C109.701 112.943 111.916 111.266 111.896 107.595C114.434 102.99 115.066 97.7209 113.68 92.7337C107.506 75.0837 70.2073 81.7907 71.2657 101.17C71.4029 103.377 71.6185 105.583 71.8341 107.295C67.2281 108.548 67.9141 108.848 69.1881 113.896C69.8741 116.649 70.6581 118.926 73.8725 118.326C75.3425 124.062 79.0469 133.223 87.7885 133.223C88.3177 133.223 87.7885 132.923 88.2785 135.888C66.3461 144.484 38.8081 160.598 31.6737 188.838C29.9489 195.651 28.9101 205.323 33.8493 212.63C39.2785 220.767 48.8825 221.279 55.7817 220.873C54.1668 228.863 53.6467 237.002 54.2333 245.106C54.2368 245.219 54.2749 245.33 54.3433 245.425C54.4117 245.52 54.5078 245.596 54.6211 245.645C54.7344 245.694 54.8605 245.715 54.9857 245.704C55.1109 245.692 55.2303 245.651 55.3309 245.583C56.3893 245.018 54.3117 244.418 57.6241 220.749C76.0873 219.214 93.6881 212.065 109.956 204.546C112.641 206.311 115.307 208.076 118.07 209.665C120.343 213.802 123.824 217.303 128.141 219.791C132.458 222.279 137.447 223.66 142.57 223.785C142.081 231.215 142.081 238.665 142.57 246.095C142.578 246.184 142.605 246.272 142.651 246.352C142.696 246.432 142.76 246.503 142.836 246.561C142.913 246.618 143.002 246.662 143.098 246.688C143.194 246.714 143.294 246.722 143.394 246.712C145.079 246.571 142.904 245.812 144.236 223.767C160.544 223.767 173.93 214.183 187.356 206.859C203.154 213.371 241.884 225.497 262.366 222.002C263.306 229.521 263.169 236.652 263.973 243.924C263.999 244.054 264.075 244.172 264.188 244.257C264.301 244.342 264.443 244.389 264.59 244.389C264.737 244.389 264.88 244.342 264.993 244.257C265.106 244.172 265.182 244.054 265.208 243.924C265.722 236.493 265.387 229.035 264.208 221.667C278.418 218.631 287.14 209.612 289.453 195.598C290.394 195.033 291.413 194.398 292.471 193.674C304.604 198.034 329.711 208.641 341.981 209.03C341.412 217.237 340.609 225.903 340.472 234.41C340.499 234.554 340.582 234.684 340.706 234.778C340.829 234.872 340.986 234.924 341.148 234.924C341.31 234.924 341.466 234.872 341.59 234.778C341.714 234.684 341.797 234.554 341.824 234.41C342.098 232.063 343.882 212.03 343.784 208.977C363.423 208.571 366.52 194.098 360.64 177.401ZM220.774 101.965C221.304 101.329 221.598 100.588 222.362 100.8C225.106 101.523 222.911 107.666 220.618 110.401C220.814 107.595 220.872 104.753 220.774 101.965ZM173.989 101.965C174.616 101.965 174.538 102.212 175.949 102.459L176.733 111.178C173.832 108.76 171.735 102 173.989 102V101.965ZM310.17 100.2C310.253 99.9516 310.442 99.7434 310.696 99.6209C310.95 99.4984 311.247 99.4717 311.522 99.5466C311.798 99.6215 312.029 99.7919 312.165 100.02C312.301 100.249 312.331 100.516 312.248 100.764C311.562 102.953 311.032 104.542 310.582 106.059C310.466 106.248 310.303 106.41 310.105 106.533C309.908 106.655 309.682 106.735 309.445 106.765C307.72 106.818 309.562 101.788 310.17 100.164V100.2ZM277.183 107.26C278.3 106.501 279.653 107.471 279.868 107.489C281.711 108.548 283.788 107.013 283.259 106.571L282.867 106.289C281.417 105.265 278.438 103.147 279.065 101.7C279.535 100.606 281.456 100.764 282.71 100.712C282.755 100.71 282.799 100.7 282.838 100.681C282.878 100.663 282.912 100.636 282.938 100.604C282.965 100.572 282.983 100.534 282.991 100.495C282.999 100.455 282.997 100.415 282.985 100.376C282.789 99.8114 282.554 99.2466 282.318 98.6112C289.726 95.303 297.847 93.4956 306.113 93.3162C306.956 95.0812 307.681 96.7579 308.328 98.417C305.878 99.6702 303.094 101.047 302.448 103.553C301.865 103.488 301.274 103.541 300.718 103.709C300.162 103.877 299.654 104.156 299.233 104.524C296.156 101.188 283.416 101.47 280.848 101.559C277.536 101.682 286.278 107.701 288.688 109.395C296.783 115.061 302.075 111.16 300.056 105.989C300.339 105.676 300.711 105.439 301.133 105.302C301.554 105.165 302.008 105.134 302.448 105.212C302.521 105.548 302.639 105.874 302.8 106.183C302.703 106.139 302.596 106.117 302.487 106.117C302.378 106.117 302.271 106.139 302.173 106.183C301.37 106.642 302.173 107.26 304.016 110.207C303.788 110.415 303.546 110.61 303.29 110.79C302.546 111.284 303.192 113.437 305.682 110.79C306.054 110.384 305.348 109.201 304.564 108.16C305.511 108.741 306.644 109.021 307.787 108.957C308.93 108.893 310.017 108.488 310.876 107.807C311.732 112.545 311.247 117.402 309.464 121.927C307.504 126.251 302.585 126.498 303.584 128.14C303.843 133.959 303.316 139.785 302.016 145.49C296.979 144.501 287.062 133.435 283.102 128.298C283.513 124.007 282.898 119.686 281.299 115.626C279.986 113.578 277.379 112.643 276.693 110.331C276.426 109.815 276.329 109.241 276.416 108.677C276.503 108.113 276.77 107.584 277.183 107.154V107.26ZM306.897 104.312C306.681 104.895 306.544 105.706 305.838 105.706C305.133 105.706 304.78 104.965 304.858 104.33C304.937 103.694 305.133 102.229 305.878 101.841C306.021 101.777 306.178 101.744 306.338 101.744C306.498 101.744 306.656 101.777 306.799 101.841C307.72 102.071 307.23 103.306 306.897 104.206V104.312ZM296.332 108.372C296.117 108.848 295.901 109.713 295.274 109.978C295.164 110.026 295.044 110.051 294.921 110.051C294.799 110.051 294.678 110.026 294.568 109.978C293.392 109.589 294.686 105.654 295.744 104.895C295.837 104.81 295.951 104.748 296.078 104.713C296.204 104.679 296.338 104.674 296.467 104.699C296.596 104.723 296.715 104.777 296.815 104.854C296.915 104.932 296.992 105.03 297.038 105.142C297.45 105.954 296.45 108.001 296.332 108.266V108.372ZM292.04 106.66C291.785 107.118 291.668 107.542 291.001 107.542C290.844 107.552 290.687 107.527 290.544 107.469C290.4 107.412 290.275 107.323 290.178 107.212C290.081 107.1 290.016 106.969 289.989 106.83C289.962 106.69 289.973 106.547 290.021 106.412C290.237 105.83 290.472 104.506 291.256 104.153C291.38 104.102 291.515 104.073 291.652 104.07C291.788 104.068 291.925 104.09 292.051 104.136C292.178 104.183 292.293 104.252 292.389 104.34C292.485 104.428 292.559 104.532 292.608 104.647C292.883 105.23 292.432 106.024 292.04 106.66ZM282.24 129.287C287.806 137.935 302.467 150.467 303.604 146.266C304.886 141.28 305.479 136.169 305.368 131.052C332.22 139.594 350.448 155.25 358.386 176.377C352.64 173.908 346.327 172.698 339.962 172.847C339.688 167.04 330.848 155.815 327.457 152.444C326.771 151.755 325.497 152.638 326.242 153.326C331.326 158.51 335.217 164.552 337.688 171.1C328.084 164.587 308.739 155.497 282.22 162.981C275.341 152.406 265.295 143.788 253.232 138.112C261.912 133 271.895 129.963 282.24 129.287ZM180.026 89.4685C191.813 86.5714 204.197 86.2507 216.149 88.533C215.948 91.5241 216.053 94.5255 216.462 97.4992H216.11C214.483 90.7569 204.056 88.6742 200.547 95.7342C198.755 95.1868 196.812 95.1868 195.02 95.7342C191.629 89.3802 181.81 91.4276 180.006 97.711H179.634C180.046 94.9802 180.177 92.221 180.026 89.4685ZM206.682 103.994C207.035 103.094 210.21 96.4226 212.268 96.2284C212.439 96.2265 212.609 96.2613 212.762 96.33C212.915 96.3988 213.048 96.4994 213.15 96.6236C213.251 96.7478 213.319 96.892 213.346 97.0443C213.373 97.1966 213.36 97.3525 213.307 97.4992C211.557 99.7437 209.998 102.104 208.642 104.559C208.152 105.654 206.231 105.23 206.682 103.994ZM203.84 101.523C203.605 102.053 202.546 102.371 202.174 101.753C201.802 101.135 202.703 98.7877 205.251 95.3459C205.898 94.4811 206.506 94.0575 207.035 94.1281C207.207 94.1724 207.365 94.2539 207.494 94.3657C207.623 94.4774 207.72 94.6159 207.776 94.7691C207.832 94.9223 207.846 95.0855 207.815 95.2445C207.785 95.4035 207.712 95.5534 207.603 95.6813C206.112 97.4966 204.849 99.4561 203.84 101.523ZM186.788 104.453C187.631 102.794 188.572 101.117 189.473 99.476C189.569 99.3177 189.711 99.1856 189.884 99.0936C190.056 99.0016 190.253 98.953 190.453 98.953C190.654 98.953 190.85 99.0016 191.023 99.0936C191.195 99.1856 191.337 99.3177 191.433 99.476C191.556 99.6435 191.622 99.8399 191.622 100.041C191.622 100.242 191.556 100.438 191.433 100.606C190.571 102.141 189.689 103.747 188.748 105.301C188.003 106.183 186.2 105.512 186.788 104.453ZM184.416 102.229L184.299 102.353C183.691 103.147 182.162 102.635 182.574 101.629C183.706 98.9175 185.151 96.3204 186.886 93.881C187.729 92.9632 189.434 93.7574 188.846 94.8341C187.454 97.3404 185.749 99.6878 184.416 102.229ZM177.419 102.388C178.674 101.912 179.026 100.623 179.379 99.5113L179.791 99.4054C179.688 100.63 179.855 101.861 180.282 103.027C180.71 104.193 181.388 105.272 182.28 106.201C183.337 107.136 184.662 107.788 186.107 108.084C187.551 108.38 189.059 108.31 190.461 107.879C191.864 107.449 193.106 106.677 194.049 105.648C194.993 104.619 195.6 103.374 195.804 102.053C195.601 103.753 195.516 105.462 195.549 107.171C195.549 108.23 195.275 109.554 196.725 109.642H198.685C199.704 109.642 199.979 108.054 198.803 108.036H197.352C197.238 104.892 197.428 101.744 197.921 98.6288C198.058 97.764 196.666 97.6404 196.47 98.4523C195.608 102.247 196.47 100.076 195.706 97.2698C197.075 96.8279 198.571 96.8279 199.94 97.2698C199.508 98.6848 199.423 100.167 199.69 101.615C199.958 103.062 200.571 104.44 201.488 105.654C202.187 106.468 203.071 107.138 204.082 107.618C205.094 108.098 206.207 108.377 207.349 108.436C208.49 108.494 209.632 108.331 210.697 107.958C211.762 107.585 212.726 107.009 213.522 106.271C215.448 104.336 216.473 101.808 216.384 99.2113H216.756C216.992 100.747 217.344 102.865 219.148 102.741C218.952 108.778 219.54 119.12 214.228 122.898C213.542 123.392 212.758 123.957 212.66 124.521C212.415 126.392 212.415 128.281 212.66 130.152C213.228 135.041 203.722 144.713 198.803 148.843C189.316 137.229 186.592 136.082 186.612 125.898C186.612 124.874 186.474 124.716 185.69 124.363C177.752 120.903 178.478 110.931 177.419 102.388ZM184.75 129.569C184.965 134.988 189.689 142.313 198.019 150.202C199.704 152.179 214.6 135.711 214.306 132.146V129.163C254.428 133.417 283.181 154.209 287.767 182.237C271.107 179.289 250.057 182.749 246.49 183.366C244.96 174.589 242.077 166.046 237.924 157.986C237.854 157.829 237.718 157.704 237.545 157.637C237.372 157.571 237.177 157.57 237.003 157.633C236.829 157.696 236.69 157.819 236.616 157.974C236.543 158.13 236.541 158.305 236.611 158.462C240.215 166.418 242.844 174.703 244.451 183.172C234.142 173.394 218.462 169.052 196.608 169.935C183.454 170.484 170.387 172.156 157.584 174.93C158.608 169.547 161.048 164.464 164.699 160.104C164.779 159.972 164.803 159.819 164.767 159.673C164.731 159.526 164.637 159.397 164.503 159.308C164.368 159.22 164.203 159.178 164.037 159.191C163.871 159.205 163.716 159.272 163.601 159.38C159.483 163.963 156.779 169.442 155.761 175.265C141.551 178.335 127.751 182.779 114.601 188.52C116.404 153.944 151.9 135.411 184.75 129.569ZM99.7445 96.8815C99.7244 98.5573 99.8357 100.232 100.078 101.894C93.0217 102.053 81.8105 104.524 73.4609 106.854C73.2453 105.301 72.7553 102.477 72.7357 100.8C81.137 97.194 90.5107 95.8342 99.7445 96.8815ZM93.5117 106.36C89.5917 112.361 90.4345 113.42 89.1213 113.42C88.9739 113.428 88.8266 113.404 88.6916 113.35C88.5567 113.296 88.4381 113.214 88.3459 113.11C88.2537 113.006 88.1905 112.884 88.1617 112.753C88.1329 112.623 88.1394 112.488 88.1805 112.361C89.9641 106.289 91.6693 105.159 92.5317 105.018C92.7197 104.984 92.9148 105.001 93.092 105.067C93.2691 105.133 93.4202 105.246 93.5256 105.39C93.6311 105.535 93.6861 105.704 93.6836 105.877C93.6811 106.05 93.6212 106.218 93.5117 106.36ZM87.4553 107.683C86.7301 108.76 86.5537 110.26 85.4953 110.031C84.4369 109.801 85.2013 107.648 85.8285 106.501C86.4557 105.353 87.0045 105.336 87.3769 105.424C87.5867 105.475 87.7734 105.585 87.9105 105.737C88.0477 105.889 88.1284 106.076 88.1413 106.271C88.0644 106.791 87.8267 107.28 87.4553 107.683ZM72.8729 111.213C72.6573 111.672 72.6377 113.084 71.5793 113.084C71.3733 113.091 71.1706 113.036 71.0036 112.927C70.8366 112.819 70.7149 112.662 70.6581 112.484C70.5543 111.249 70.9904 110.027 71.8733 109.078C72.0553 108.931 72.2842 108.84 72.5272 108.818C72.7701 108.796 73.0146 108.843 73.2257 108.954C73.6961 109.236 73.5981 109.978 72.8729 111.16V111.213ZM73.5981 115.326C75.3817 109.554 76.4009 108.707 77.0085 108.583C77.1334 108.557 77.2638 108.564 77.3851 108.601C77.5063 108.638 77.6135 108.706 77.6945 108.795C77.9609 109.073 78.0947 109.435 78.0669 109.801L75.4797 115.82C75.3991 116.045 75.2227 116.231 74.9893 116.339C74.7559 116.446 74.4846 116.466 74.2351 116.394C73.9855 116.321 73.7783 116.162 73.6588 115.952C73.5393 115.742 73.5175 115.497 73.5981 115.273V115.326ZM75.5581 117.991C79.3213 117.002 80.5365 117.285 80.1249 112.131C79.9877 110.666 79.6741 107.33 81.3205 107.383C82.6533 107.383 82.6925 112.961 84.6721 114.69C86.6517 116.42 89.2193 115.202 91.3753 114.69C97.2553 113.243 95.9617 110.984 95.5305 103.977L100.47 103.624C102.684 113.967 105.664 106.218 107.663 105.053C108.937 104.33 110.034 105.918 110.27 107.136C110.72 109.748 108.31 112.608 108.819 116.438C109.974 121.981 111.952 127.36 114.699 132.429C110.407 139.771 98.0785 146.549 92.5905 149.231C90.2777 141.677 90.0817 131.758 88.6705 131.793C82.1633 131.828 77.8905 127.398 75.4797 117.938L75.5581 117.991ZM88.4549 137.582C88.8077 140.248 90.2581 151.702 92.3749 150.749C97.7061 148.49 113.935 138.888 116.248 132.711C119.678 133.417 130.379 131.546 147 140.565C134.735 147.162 124.893 156.86 118.698 168.452C102.841 166.687 83.2217 164.481 66.7381 172.318C71.7753 161.622 74.7937 160.563 73.3629 159.715C73.2888 159.67 73.2052 159.638 73.1172 159.622C73.0292 159.606 72.9386 159.607 72.8507 159.623C72.7629 159.64 72.6796 159.672 72.6059 159.718C72.5323 159.764 72.4697 159.823 72.4221 159.892C71.9125 160.58 64.7585 171.223 64.5821 173.394C61.8185 174.912 55.9189 178.795 54.1549 181.849C46.9493 181.975 39.9277 183.92 33.8885 187.461C39.8469 166.687 58.6825 149.443 88.3765 137.529L88.4549 137.582ZM37.6321 214.66C30.1449 207.6 31.7521 195.792 33.3005 189.315C52.4301 178.001 77.7141 182.837 108.486 203.717C98.1373 207.706 52.9201 228.939 37.6321 214.66ZM56.1345 181.813C71.6969 166.299 94.1977 167.287 117.894 169.917C111.818 182.537 111.289 195.863 116.365 206.735C98.7253 194.839 77.8905 181.76 56.1345 181.76V181.813ZM144.099 222.408C124.793 222.408 114.425 207.141 114.699 190.197C142.139 179.095 166.11 173.412 192.374 171.77C216.364 170.27 232.515 174.206 243.099 184.125C191.394 194.557 170.05 222.355 144.099 222.355V222.408ZM262.64 220.467C243.452 224.367 211.68 214.166 189.101 206.029C225.086 186.896 257.466 179.678 288.022 183.967C290.433 203.682 281.417 216.637 262.64 220.467ZM289.825 193.745C290.843 183.539 288.447 173.292 282.946 164.322C303.996 159.415 321.773 162.275 337.218 173.041C316.932 174.4 296.489 188.661 289.806 193.745H289.825ZM343.137 207.459C331.142 207.459 305.897 196.869 294.274 192.597C306.701 184.125 321.42 175.142 339.139 174.506C346.061 174.121 352.964 175.484 359.072 178.442C364.325 194.398 361.698 207.353 343.118 207.459H343.137Z" fill="white"/>
</svg>
