<svg width="331" height="331" viewBox="0 0 331 331" fill="none" xmlns="http://www.w3.org/2000/svg">
<path d="M190.126 70.8671C189.944 65.1408 188.471 71.4133 189.299 73.1014C189.328 73.1526 189.367 73.1976 189.414 73.2337C189.46 73.2698 189.514 73.2963 189.571 73.3117C189.628 73.327 189.687 73.331 189.745 73.3233C189.804 73.3156 189.86 73.2965 189.911 73.2669C189.978 73.2248 190.035 73.1682 190.077 73.1014C190.217 72.3633 190.217 71.6053 190.077 70.8671H190.126ZM174.47 94.1696C173.361 94.1696 161.412 93.5572 161.478 94.4675C160.734 94.2523 161.478 99.598 161.478 100.227C161.478 100.856 162.753 100.756 163.133 100.79C166.443 101.038 175.612 100.972 176.373 100.972C177.135 100.972 176.688 94.6826 176.671 94.666C176.655 93.971 174.867 94.1861 174.47 94.1696ZM175.91 100.177C173.08 100.177 165.004 99.9786 162.322 100.177C162.124 98.3567 161.925 96.5362 161.743 94.7157L175.96 94.9971C175.844 96.7183 175.91 98.456 175.91 100.177ZM153.683 102.395C153.747 102.388 153.806 102.359 153.851 102.314C153.896 102.269 153.924 102.21 153.932 102.147V97.9264C153.932 97.2975 152.922 97.1817 152.955 97.8271C152.955 99.2835 153.137 100.723 153.253 102.163C153.254 102.213 153.269 102.261 153.295 102.304C153.321 102.346 153.357 102.38 153.401 102.404C153.445 102.428 153.494 102.439 153.543 102.437C153.593 102.436 153.641 102.421 153.683 102.395ZM189.498 92.349C189.433 92.358 189.373 92.3867 189.326 92.4311C189.278 92.4756 189.246 92.5336 189.233 92.5973C189.233 93.2924 188.786 97.2644 189.613 97.3471C190.639 97.3471 189.944 93.491 189.845 92.5642C189.826 92.4908 189.779 92.4276 189.714 92.3876C189.649 92.3476 189.572 92.3338 189.498 92.349ZM189.944 101.551C189.779 100.409 189.2 100.492 189.133 102.047V103.901C189.133 105.093 190.557 106.036 189.944 101.551ZM189.58 108.982C188.687 109.065 189.382 113.185 189.498 113.947C189.498 114.228 190.011 114.294 190.027 113.947C190.027 112.457 190.027 110.968 190.126 109.478C190.13 109.408 190.117 109.338 190.09 109.273C190.063 109.208 190.022 109.149 189.97 109.102C189.918 109.055 189.856 109.019 189.788 108.998C189.721 108.978 189.65 108.972 189.58 108.982ZM190.027 76.8086C190.027 76.4611 189.415 76.5107 189.349 76.8086C189.282 77.1065 188.786 82.4356 189.944 81.1116C190.193 79.6825 190.193 78.2212 189.944 76.7921L190.027 76.8086ZM189.117 85.6794V88.9894C189.117 89.6514 190.16 89.5521 190.126 88.9894C190.126 87.8971 190.126 86.8048 189.961 85.6794C189.862 83.9251 189.15 83.8258 189.117 85.6794ZM189.349 118.018C189.1 119.453 189.1 120.92 189.349 122.354C189.349 122.718 189.961 122.652 190.027 122.354C190.093 122.056 190.507 116.694 189.349 118.018ZM233.669 72.2905C234.609 72.4439 235.474 72.8966 236.135 73.5813C236.5 73.962 236.963 73.3 235.606 72.2077C233.355 70.4369 232.412 72.0588 233.669 72.2905ZM232.461 78.6953C233.934 78.2815 232.71 75.2198 232.263 77.5865C232.213 77.7851 232.064 78.8111 232.461 78.6953ZM233.587 89.1052C238.552 89.2045 237.079 81.4923 236.135 83.1473C233.951 86.871 230.244 86.0766 229.979 86.4573C229.714 86.8379 231.253 89.0721 233.587 89.1052ZM236.384 84.0078C237.493 88.5756 232.577 89.9824 230.624 86.871C231.748 86.9227 232.867 86.6869 233.875 86.1859C234.883 85.6849 235.746 84.9353 236.384 84.0078ZM189.829 65.3394C189.894 65.3092 189.95 65.2638 189.994 65.2071C190.267 63.7635 190.267 62.2814 189.994 60.8378C189.994 60.573 189.514 60.4903 189.431 60.8378C189.173 62.2801 189.134 63.7531 189.315 65.2071C189.37 65.2884 189.452 65.3469 189.547 65.3713C189.641 65.3957 189.742 65.3844 189.829 65.3394ZM226.205 82.5846C226.536 84.0741 230.442 82.4522 227.016 82.2867C227.232 80.1476 227.681 78.0386 228.357 75.9976C228.622 75.1039 227.182 75.5011 226.338 81.4426C226.227 81.8126 226.183 82.1991 226.205 82.5846ZM153.005 106.516C153.04 107.979 153.167 109.438 153.385 110.885C153.385 110.955 153.413 111.023 153.463 111.072C153.513 111.122 153.58 111.15 153.65 111.15C153.72 111.15 153.788 111.122 153.837 111.072C153.887 111.023 153.915 110.955 153.915 110.885C154.478 103.52 153.005 106.417 153.005 106.516ZM223.905 75.5674C223.309 76.3617 223.425 77.8016 224.087 77.2223C224.749 76.6431 224.319 75.0047 223.905 75.5674ZM153.104 123.794C152.293 125.581 154.114 132.069 154.031 124.936C154.014 123.794 153.485 122.983 153.104 123.794ZM153.137 119.342C153.137 119.69 153.766 119.64 153.832 119.342C153.898 119.044 154.378 113.715 153.236 115.023C152.955 116.452 152.921 117.918 153.137 119.359V119.342Z" fill="#E6E6E6"/>
<path d="M217.881 63.7011C218.96 64.68 220.182 65.4891 221.505 66.1008C219.42 73.0021 214.985 95.1626 226.718 96.4866C226.718 97.5458 226.619 98.605 226.57 99.6807C222.945 100.802 219.463 102.341 216.193 104.265C214.852 106.45 213.512 108.651 212.254 110.885C210.597 113.968 209.11 117.139 207.802 120.385C210.129 121.236 212.298 122.466 214.223 124.026C216.209 125.515 212.668 127.783 211.244 129.587C215.273 136.978 220.541 143.622 226.818 149.231C227.198 146.948 227.645 144.995 227.827 144.266C224.021 137.646 219.056 112.821 219.635 103.553C220.628 103.057 221.621 102.61 222.614 102.196C222.614 104.083 224.418 108.634 226.338 109.098C226.553 109.76 227.414 108.436 227.993 107.856C228.307 108.998 228.738 110.173 228.936 111.034C230.311 110.74 231.742 110.849 233.057 111.348C233.752 110.389 234.927 109.015 235.507 108.37C235.788 108.75 236.251 109.561 236.748 109.478C240.703 108.734 246.678 104.96 248.713 101.286C249.938 101.601 251.13 101.948 252.321 102.345C241.514 114.195 230.806 134.436 228.026 149.91C235.176 144.746 246.943 136.14 252.52 130.828C248.2 124.092 244.592 124.589 253.265 122.884C254.92 122.569 256.492 122.255 258.114 122.023C257.684 115.558 256.955 109.125 255.929 102.726C252.233 101.138 248.334 100.074 244.344 99.5649C244.245 96.9996 244.344 94.4178 244.344 91.8526C244.344 91.8526 256.144 77.7685 254.754 68.4509C254.208 64.7271 251.295 64.4458 248.267 65.4222C250.6 63.188 253.397 63.5355 253.232 62.1122C252.983 60.0104 247.671 61.2682 245.95 64.3465C241.067 54.2676 229.4 51.4044 235.821 58.9843C231.601 56.2039 226.884 53.7711 221.687 53.7711C213.925 53.6552 212.999 59.2657 217.881 63.7011ZM226.586 108.386C225.595 107.594 224.771 106.612 224.163 105.498C223.555 104.384 223.175 103.161 223.044 101.898C224.253 101.402 225.461 100.955 226.702 100.541C228.128 101.831 229.62 103.046 231.17 104.182C229.359 105.26 227.796 106.709 226.586 108.436V108.386ZM244.377 100.243C245.569 100.492 246.744 100.74 247.919 101.038C245.021 104.581 241.209 107.265 236.897 108.8C235.66 107.154 234.238 105.654 232.66 104.331C236.823 103.9 240.832 102.518 244.377 100.293V100.243ZM222.068 66.349C225.775 67.9047 237.195 69.5597 241.316 69.3942C238.899 75.5177 241.696 81.4923 243.417 78.6622C243.897 77.8513 244.725 76.5769 246.065 77.6361C246.843 78.265 247.141 79.7876 245.784 82.2039C244.35 84.5839 243.616 87.32 243.666 90.0983C243.448 93.3208 243.404 96.5528 243.533 99.78C239.986 101.77 236.114 103.115 232.097 103.752L227.132 100.078C227.298 97.9761 227.877 95.6094 227.132 95.6094C226.188 95.5533 225.266 95.2953 224.429 94.8528C223.593 94.4102 222.861 93.7935 222.283 93.0442C217.666 87.5 220.396 72.9028 222.068 66.349Z" fill="#E6E6E6"/>
<path d="M223.077 73.2337C223.476 72.9218 223.934 72.6949 224.424 72.5668C224.913 72.4387 225.424 72.4122 225.924 72.4889C225.996 72.4803 226.062 72.4485 226.114 72.3985C226.166 72.3486 226.2 72.2831 226.211 72.212C226.222 72.1409 226.21 72.068 226.176 72.0045C226.142 71.941 226.089 71.8903 226.023 71.86C223.044 71.1649 222.101 74.0446 223.077 73.2337ZM229.019 111.894C227.695 118.426 226.376 124.969 225.063 131.523C225.824 135.146 226.932 138.688 228.373 142.098C229.678 138.161 231.186 134.294 232.892 130.513C232.494 125.912 232.263 114.675 232.445 112.573C231.423 111.939 230.205 111.698 229.019 111.894ZM109.23 70.8505C110.62 70.6684 108.187 62.5755 108.618 69.6258C108.667 70.0561 108.618 70.9332 109.23 70.8505ZM108.634 139.318C108.634 139.814 108.502 141.502 109.296 141.403C110.686 141.221 108.369 133.757 108.634 139.318ZM109.478 89.3699C109.463 89.3049 109.426 89.247 109.373 89.2056C109.32 89.1643 109.256 89.1418 109.189 89.1418C109.122 89.1418 109.057 89.1643 109.004 89.2056C108.952 89.247 108.915 89.3049 108.899 89.3699C108.637 90.8065 108.603 92.2755 108.8 93.7226C108.846 93.8167 108.928 93.8887 109.027 93.9228C109.126 93.9569 109.235 93.9504 109.329 93.9046C109.391 93.8699 109.447 93.8252 109.495 93.7722C109.759 92.3161 109.753 90.824 109.478 89.3699ZM108.684 148.95C108.783 149.628 109.727 149.579 109.693 148.354C109.544 144.481 108.667 144.415 108.651 146.335C108.585 147.205 108.585 148.08 108.651 148.95H108.684ZM108.634 99.4489C108.565 100.17 108.621 100.898 108.8 101.6C108.865 101.702 108.965 101.775 109.082 101.806C109.198 101.837 109.322 101.822 109.429 101.766L109.594 101.6C109.594 101.435 109.594 96.2216 108.849 97.2974C108.469 97.8104 108.634 98.8365 108.634 99.4489ZM109.362 121.146C109.356 121.107 109.343 121.069 109.322 121.035C109.301 121.001 109.273 120.972 109.241 120.948C109.209 120.925 109.172 120.909 109.133 120.9C109.094 120.891 109.054 120.891 109.015 120.898C108.951 120.905 108.892 120.933 108.847 120.978C108.802 121.023 108.774 121.083 108.767 121.146C108.767 121.841 108.303 125.813 109.131 125.896C110.157 126.028 109.462 122.089 109.362 121.146ZM109.313 113.136C109.313 113.065 109.285 112.998 109.235 112.948C109.186 112.899 109.118 112.871 109.048 112.871C108.978 112.871 108.91 112.899 108.861 112.948C108.811 112.998 108.783 113.065 108.783 113.136C108.22 120.517 109.693 117.604 109.693 117.505C109.659 116.042 109.532 114.583 109.313 113.136ZM109.528 105.374C109.528 105.01 108.916 105.076 108.849 105.374C108.783 105.672 108.303 111.001 109.445 109.677C109.722 108.247 109.75 106.78 109.528 105.341V105.374ZM108.667 130.596V132.4C108.667 133.592 110.091 134.535 109.478 130.05C109.313 128.958 108.734 129.09 108.667 130.596ZM203.416 197.259C200.89 196.71 198.427 195.9 196.068 194.843C196.184 197.458 196.316 199.99 196.449 202.506C200.818 202.39 202.936 201.794 203.416 197.292V197.259ZM265.164 207.256L265.594 199.659C261.705 200.02 257.799 200.175 253.894 200.123C255.499 206.478 258.809 207.09 265.164 207.256ZM272.347 310.627C271.172 287.358 270.559 224.418 271.288 198.981C269.798 199.212 268.176 199.411 266.488 199.576C265.346 237.641 264.833 272.562 267.233 311.074C268.95 311.157 270.67 311.007 272.347 310.627ZM153.551 154.577L79.8372 153.418C76.8582 153.418 73.8296 153.236 70.834 153.418C70.4865 153.418 70.5361 153.965 70.834 153.998C74.4916 154.345 82.8659 154.362 86.9868 154.445L153.468 155.57C154.114 155.57 154.213 154.577 153.551 154.577Z" fill="#E6E6E6"/>
<path d="M253.629 310.875C257.762 311.229 261.914 311.306 266.058 311.107C264.403 276.948 263.774 242.772 265.114 208.497C261.507 208.497 255.549 207.603 253.778 203.913C253.154 202.732 252.863 201.406 252.934 200.073C242.259 199.792 232.23 197.772 229.548 192.774C228.955 193.936 228.004 194.876 226.834 195.455C226.834 197.408 226.536 206.709 227.331 208.182C227.943 209.357 229.3 209.192 230.409 209.391C230.519 209.421 230.612 209.495 230.667 209.594C230.723 209.693 230.738 209.81 230.707 209.92C230.686 209.99 230.647 210.054 230.595 210.106C230.543 210.158 230.479 210.197 230.409 210.218C227.331 210.715 225.957 208.911 225.792 206.047C225.519 202.688 225.519 199.312 225.792 195.952C221.058 198.186 212.651 199.08 204.277 197.441C204.277 202.539 200.818 203.83 196.415 203.946C199.229 254.473 205.981 285.587 214.505 311.024C214.786 311.835 232.279 311.653 232.246 310.875C230.955 282.376 230.26 257.369 233.388 232.428L231.733 219.188C227.265 217.268 228.092 215.878 228.837 216.358L231.551 218.013C232.163 218.294 232.676 218.261 232.643 219.039C237.128 249.739 244.328 279.049 253.629 310.875ZM93.7061 142.131C88.9595 141.949 84.2061 142.059 79.4731 142.462C78.4139 142.578 78.1491 142.694 78.1491 143.753C78.1491 145.243 78.1491 148.338 78.8277 147.94C78.927 148.338 90.0486 148.255 93.1269 148.089C93.9709 148.089 94.1364 147.543 93.6565 147.345C94.0371 147.295 94.1695 142.33 93.7061 142.131ZM78.9435 147.593C79.0262 146.11 79.0262 144.624 78.9435 143.141C83.5279 143.025 88.6253 143.141 93.0772 142.826C93.0772 143.439 92.829 146.964 93.2593 147.295C91.4884 147.179 79.2249 147.46 78.9435 147.593Z" fill="#E6E6E6"/>
<path d="M257.005 103.222C258.163 108.755 258.926 114.363 259.289 120.004C259.57 124.026 260.166 123 253.513 124.191C252.222 124.423 250.948 124.721 249.657 124.886C250.368 125.747 255.251 131.506 253.265 131.705C250.584 135.28 232.461 148.47 227.745 151.102C227.496 152.757 227.314 154.296 227.215 155.918C226.987 155.927 226.764 155.983 226.559 156.083C226.354 156.182 226.171 156.323 226.023 156.497C226.04 154.556 226.206 152.62 226.52 150.704C218.741 145.193 211.344 132.764 210.152 129.653C209.589 128.196 212.552 126.194 213.462 125.3C211.476 123.645 206.379 121.461 206.627 120.65C208.406 115.361 210.824 110.309 213.826 105.606C211.956 106.748 210.123 107.952 208.331 109.213C207.636 82.568 207.653 55.095 206.048 28.5654H210.334C211.079 28.5654 211.029 26.6456 210.334 26.6456H205.865C195.621 24.8251 185.377 23.0211 175.182 20.9027C159.31 17.5927 143.158 13.5545 127.303 10.5921V8.6226C127.303 8.1923 125.548 8.14265 125.548 8.6226V10.4597C103.024 16.3184 80.2179 21.2172 57.5444 26.2318C54.6446 26.7162 51.772 27.3515 48.9384 28.1351L43.4272 28.2509C42.8149 28.2509 42.8314 29.9059 43.4272 29.9059H49.1535C48.326 74.2268 48.2433 118.515 47.8957 162.802C47.8957 163.762 47.4654 171.276 48.3095 171.276C57.8423 171.475 124.87 171.276 124.87 171.276C124.87 215.034 124.815 258.798 124.704 302.567C111.216 309.7 92.68 319.647 89.5852 321.484C89.0225 321.633 41.2095 321.484 35.0695 321.633C34.7054 321.633 34.7054 322.328 35.0695 322.328C43.0962 322.609 281.88 322.725 281.88 322.725C282.542 322.725 282.674 321.616 282.012 321.616H271.056C270.687 318.435 270.05 315.29 269.153 312.216C265.383 312.596 261.585 312.596 257.816 312.216C255.184 313.159 244.791 317.181 244.377 321.567H232.577C232.295 318.498 231.707 315.465 230.823 312.514C226.765 313.452 222.557 313.548 218.46 312.795C216.689 313.424 206.594 317.082 205.849 321.6H164.689C163.696 320.607 128.196 303.279 127.601 303.08V171.326H193.9C193.304 179.601 193.056 192.576 193.436 192.741C210.499 200.007 226.917 197.094 229.002 191.616C224.997 186.105 225.312 171.491 225.345 168.744C225.662 169.252 226.034 169.723 226.454 170.151C226.239 175.116 226.239 190.441 232.925 194.86C240.008 199.56 263.112 200.007 273.125 197.475C273.224 192.741 272.992 186.618 272.777 183.424C263.972 182.724 255.235 181.34 246.645 179.286C245.734 179.088 239.462 177.929 239.363 177.184C239.263 176.44 239.148 175.43 239.081 174.536L235.771 173.792C235.758 169.583 236.179 165.385 237.029 161.263L239.578 161.164C239.71 160.303 239.578 158.731 240.587 158.731C243.025 157.927 245.513 157.286 248.035 156.811C252.261 155.918 256.475 155.063 260.679 154.246C259.59 149.789 258.871 145.25 258.528 140.675C258.528 140.145 259.289 140.013 259.339 140.543C259.881 145.097 260.732 149.609 261.887 154.047C266.716 153.039 271.602 152.326 276.517 151.913C276.603 151.931 276.679 151.977 276.734 152.045C276.789 152.113 276.819 152.198 276.819 152.285C276.819 152.372 276.789 152.457 276.734 152.525C276.679 152.592 276.603 152.639 276.517 152.657C264.701 153.601 252.52 156.811 240.935 159.559C239.924 165.209 239.629 170.964 240.058 176.688C247.436 178.625 254.917 180.145 262.466 181.239C274.78 182.745 293.001 185.741 295.566 168.744C299.638 143.406 279.695 113.516 257.005 103.222ZM124.704 321.517H94.335C104.414 316.006 114.609 311.057 124.787 305.331L124.704 321.517ZM200.354 26.6125L127.534 27.3572C127.534 21.9785 127.418 17.4272 127.319 12.0154C150.903 17.4272 176.423 22.3922 200.354 26.6125ZM125.499 12.1312C125.399 17.4934 125.3 22.0612 125.234 27.3903C100.79 27.622 77.8016 27.6882 53.3572 28.1351C77.934 23.3356 125.499 12.1312 125.499 12.1312ZM159.856 321.616H127.435V305.496C137.051 311.008 149.662 316.933 159.856 321.533V321.616ZM204.922 125.168C198.302 138.937 195.174 155.09 193.966 170.333C145.971 170.333 97.0492 169.174 49.1866 170.217C49.468 166.625 48.9384 160.701 48.9715 156.844C49.3025 114.509 50.7092 72.4394 50.5437 30.0383C70.2051 30.0383 204.624 28.615 204.624 28.615C205.534 53.7048 207.305 108.767 207.421 109.958C198.02 116.681 189.565 124.635 182.282 133.608C185.412 134.176 188.502 134.944 191.533 135.909C191.634 135.953 191.715 136.034 191.758 136.135C191.801 136.237 191.804 136.351 191.765 136.455C191.728 136.547 191.659 136.623 191.571 136.668C191.483 136.714 191.381 136.726 191.285 136.703C185.012 135.214 162.058 130.348 151.565 131.49C151.317 131.49 151.366 131.92 151.449 132.433C150.469 132.233 149.464 132.188 148.47 132.301C145.574 128.395 142.512 124.026 137.497 127.336C135.263 123.132 116.098 86.4738 115.354 86.4076C114.427 85.0505 113.351 86.4076 113.963 87.5496L135.396 130.745C133.741 132.168 133.492 134.37 134.899 134.833C134.038 136.62 135.23 138.739 135.826 138.49C135.18 141.8 140.096 144.862 142.297 144.448C142.595 145.011 143.952 147.907 144.531 147.874C144.85 148.124 145.245 148.256 145.65 148.248C146.055 148.239 146.445 148.091 146.753 147.827C147.061 147.564 147.268 147.203 147.34 146.804C147.412 146.405 147.343 145.994 147.146 145.64L148.536 146.385C148.139 147.047 147.907 147.394 148.023 147.527C154.858 155.504 171.839 165.384 178.343 166.394C183.606 167.205 189.795 167.37 192.89 166.493C194.314 152.872 197.574 136.869 204.144 124.688C204.169 124.636 204.204 124.591 204.246 124.553C204.289 124.515 204.339 124.486 204.392 124.467C204.446 124.449 204.503 124.441 204.56 124.445C204.617 124.449 204.673 124.464 204.723 124.489C204.777 124.514 204.825 124.549 204.864 124.593C204.903 124.637 204.933 124.688 204.952 124.744C204.971 124.8 204.978 124.859 204.972 124.918C204.967 124.976 204.95 125.033 204.922 125.085V125.168ZM142.827 135.478C142.72 135.278 142.564 135.108 142.372 134.986C142.181 134.864 141.961 134.794 141.734 134.783C141.919 134.667 142.077 134.512 142.197 134.329C142.317 134.147 142.396 133.94 142.429 133.724C143.058 134.403 143.24 133.956 143.058 133.724C142.198 132.483 141.403 129.04 140.708 129.355C140.063 129.123 138.077 129.785 136.984 129.686C136.554 129.686 136.223 129.405 136.554 128.941C137.804 127.579 139.526 126.744 141.37 126.608C143.82 127.038 146.848 131.142 148.139 132.996C149.579 136.835 147.146 142.711 146.153 143.687L142.661 136.885C142.815 136.689 142.913 136.453 142.942 136.205C142.971 135.957 142.931 135.705 142.827 135.478ZM135.809 129.587L114.41 86.8545C114.41 85.8615 115.122 86.722 115.436 87.2351C117.29 90.9588 136.951 127.783 136.951 127.783C136.629 127.969 136.357 128.23 136.158 128.544C135.959 128.858 135.84 129.216 135.809 129.587ZM136.355 130.977C137.332 130.464 140.129 129.62 140.824 130.877C140.907 131.275 140.989 131.655 141.056 132.053C139.96 131.851 138.83 131.961 137.794 132.371C136.758 132.78 135.858 133.473 135.197 134.37C134.187 133.211 135.18 131.556 136.355 130.977ZM135.362 135.429C135.975 133.774 139.517 131.821 141.122 132.797C142.727 133.774 140.675 134.452 140.377 134.866C139.402 134.932 138.466 135.28 137.685 135.868C136.903 136.455 136.309 137.257 135.975 138.176C135.621 137.824 135.376 137.379 135.267 136.892C135.159 136.405 135.192 135.897 135.362 135.429ZM139.02 135.876C139.715 135.611 143.207 134.767 142.049 136.62C140.394 136.769 138.987 138.027 139.814 139.649C140.51 141.006 141.221 142.363 141.949 143.704C137.266 143.191 133.807 137.812 139.02 135.876ZM140.179 138.391C140.345 138.079 140.581 137.81 140.868 137.603C141.155 137.397 141.485 137.259 141.834 137.2C142.446 138.391 146.6 146.12 146.6 146.732C146.6 147.345 145.243 147.858 144.945 147.295C143.268 144.371 141.668 141.403 140.145 138.391H140.179ZM146.418 144.117C148.983 142.231 149.728 136.389 148.983 132.847L151.714 133.244C152.106 137.595 151.14 141.96 148.95 145.739C148.42 145.408 146.633 144.614 146.385 144.117H146.418ZM235.275 171.806C233.041 171.673 230.79 172.137 228.373 170.713C226.586 169.654 224.749 167.403 225.345 165.301C226.007 166.195 226.338 165.417 226.09 165.136C225.636 164.643 225.327 164.035 225.196 163.378C225.065 162.722 225.116 162.042 225.345 161.412C225.891 162.521 226.421 161.876 226.222 161.528C225.411 160.022 225.229 157.324 227.165 156.563C227.016 160.37 231.187 160.916 230.889 159.873C230.889 159.873 229.234 152.641 231.104 153.005C232.014 155.454 233.256 160.8 236.069 161.545C235.428 164.926 235.151 168.366 235.242 171.806H235.275Z" fill="#E6E6E6"/>
<path d="M68.4177 151.317C81.1281 133.112 97.3637 105.39 107.989 86.1427C108.39 86.3907 108.853 86.5209 109.324 86.5185C109.796 86.5162 110.257 86.3813 110.655 86.1294C111.054 85.8775 111.374 85.5187 111.578 85.0938C111.783 84.6689 111.864 84.1951 111.812 83.7265C124.688 87.0364 138.11 88.9728 151.118 91.869C151.366 95.328 156.232 94.004 155.487 91.174C166.278 80.284 177.896 68.6991 188.438 57.9085L188.836 58.074C189.457 58.2791 190.134 58.2307 190.719 57.9394C191.305 57.6481 191.752 57.1374 191.963 56.5183C192.179 55.9371 192.163 55.2953 191.919 54.7257C191.674 54.156 191.22 53.7021 190.651 53.4576C190.081 53.2132 189.439 53.197 188.858 53.4124C188.277 53.6279 187.801 54.0584 187.528 54.615C187.293 55.0569 187.195 55.5583 187.245 56.0561C187.295 56.5539 187.491 57.0257 187.809 57.412C177.151 68.2191 165.301 79.3407 155.189 90.5119C154.922 90.145 154.554 89.8633 154.13 89.701C153.564 89.4964 152.939 89.5223 152.392 89.7729C151.844 90.0236 151.416 90.4791 151.201 91.0415C144.581 89.701 114.791 83.1803 111.679 83.0644C110.471 79.4896 104.844 82.5845 107.277 85.5635C94.815 108.171 81.4757 129.09 67.855 150.936C67.3142 150.676 66.7016 150.604 66.1154 150.733C65.5292 150.862 65.0032 151.184 64.6218 151.648C64.2403 152.111 64.0254 152.689 64.0115 153.289C63.9976 153.89 64.1855 154.477 64.545 154.958C66.7462 158.086 71.3967 154.014 68.4177 151.317ZM189.531 42.3184C188.918 42.4011 189.133 43.2452 189.167 43.6589C189.862 50.643 191.02 42.1694 189.531 42.3184Z" fill="#E6E6E6"/>
<path d="M153.567 74.326C152.558 74.2267 153.237 78.1656 153.336 79.0924C153.342 79.1318 153.356 79.1695 153.376 79.2035C153.397 79.2374 153.425 79.2668 153.457 79.2899C153.49 79.3131 153.526 79.3295 153.565 79.3382C153.604 79.3469 153.644 79.3478 153.683 79.3407C153.747 79.3336 153.806 79.3051 153.851 79.26C153.896 79.2149 153.924 79.1558 153.932 79.0924C153.915 78.3808 154.395 74.475 153.567 74.326ZM153.915 87.1688C154.478 79.8041 153.005 82.7003 153.005 82.7996C153.04 84.257 153.168 85.7108 153.385 87.1523C153.383 87.2225 153.409 87.2907 153.457 87.3419C153.505 87.3932 153.572 87.4232 153.642 87.4254C153.712 87.4276 153.78 87.4018 153.832 87.3536C153.883 87.3055 153.913 87.2391 153.915 87.1688ZM153.402 58.7028C152.79 58.7856 153.005 59.6296 153.054 60.0434C153.799 67.0275 154.892 58.5539 153.402 58.7028ZM189.216 48.9052C188.786 52.96 190.325 53.3241 190.126 50.3285C190.126 49.6831 189.928 49.0376 189.845 48.3922C189.845 48.1108 189.316 47.8791 189.216 48.9052ZM173.063 50.8912C176.142 51.2057 182.729 51.0071 183.126 50.9905C185.608 50.9905 185.36 50.9905 185.178 48.6073C185.178 47.3495 185.013 45.9759 184.433 46.1414L172.004 45.8766C171.028 45.6118 171.392 47.2337 171.441 48.2763C171.541 50.163 170.879 50.6595 173.063 50.8912ZM172.252 46.5717L184.384 46.9358L184.483 50.1134H172.236L172.252 46.5717ZM153.236 46.8696C153.259 46.9435 153.31 47.0056 153.378 47.0426C153.446 47.0797 153.526 47.0889 153.601 47.0682C153.649 47.0538 153.694 47.0284 153.731 46.994C153.769 46.9595 153.798 46.917 153.816 46.8696C154.069 45.4321 154.102 43.9645 153.915 42.5169C153.894 42.4668 153.862 42.4215 153.823 42.384C153.783 42.3465 153.736 42.3175 153.685 42.2989C153.634 42.2802 153.579 42.2723 153.525 42.2757C153.471 42.279 153.417 42.2936 153.369 42.3183C153.309 42.3491 153.258 42.3947 153.22 42.4507C152.98 43.8972 152.98 45.3735 153.22 46.8199L153.236 46.8696ZM153.551 50.6264C152.74 50.6264 153.054 52.1987 153.088 52.6455C153.385 58.7194 155.107 50.6595 153.551 50.6264ZM87.2847 81.1943C87.2847 81.4425 87.7316 81.4756 88.4101 81.4756C91.3064 81.4756 101.766 82.3031 101.948 81.1446C102.544 81.1446 102.329 77.5533 102.246 76.8582C102.991 75.0873 88.8404 76.3948 87.8143 76.312C87.3509 76.1796 87.1358 76.6927 87.2185 77.454C87.3509 78.7449 87.2185 80.5985 87.2847 81.1943ZM87.9964 77.0237C92.4649 77.0237 97.2147 77.1395 101.667 77.0237V80.8467C96.9996 81.0288 92.4814 80.8467 87.9302 80.9791C88.0192 79.6626 88.0413 78.3424 87.9964 77.0237ZM65.7863 47.2006C65.538 60.1592 65.6373 127.915 65.6704 148.834C65.6704 149.496 66.7131 149.579 66.7131 148.834C66.7131 135.396 66.862 67.5736 66.4317 47.1013C66.9282 47.1013 68.666 47.0185 69.0135 46.4558C69.3611 45.8931 66.9282 39.4552 66.5641 38.4953C66.4317 38.1643 66.0014 38.396 65.9352 38.6277C65.1408 41.2591 64.2802 43.8409 63.5851 46.5055C63.3865 47.3164 65.2732 47.2171 65.7863 47.2006ZM154.031 69.51V67.6895C154.031 66.5144 152.608 65.5545 153.22 70.0561C153.385 71.165 153.915 71.165 154.031 69.51ZM108.667 78.4635C108.767 79.1421 109.727 79.0759 109.677 77.8512C109.528 73.9785 108.651 73.9123 108.634 75.8486C108.568 76.719 108.568 77.5932 108.634 78.4635H108.667ZM109.23 47.4654C110.14 47.3826 109.429 43.2617 109.23 42.5004C109.23 42.219 108.717 42.1528 108.7 42.5004C108.7 43.9899 108.667 45.4794 108.601 46.9689C108.598 47.0469 108.614 47.1245 108.647 47.1953C108.679 47.2662 108.728 47.3283 108.79 47.3766C108.851 47.425 108.923 47.4582 108.999 47.4737C109.076 47.4891 109.155 47.4862 109.23 47.4654ZM108.651 60.0765V61.9301C108.651 63.1051 110.074 64.0319 109.462 59.5634C109.23 58.4215 108.717 58.5208 108.651 60.0765ZM109.114 55.3597C110.14 55.459 109.445 51.5201 109.346 50.5768C109.346 50.4978 109.315 50.422 109.259 50.3661C109.203 50.3103 109.127 50.2789 109.048 50.2789C108.969 50.2789 108.893 50.3103 108.837 50.3661C108.781 50.422 108.75 50.4978 108.75 50.5768C108.75 51.305 108.287 55.277 109.114 55.3597Z" fill="#E6E6E6"/>
</svg>
