<svg width="44" height="32" viewBox="0 0 44 32" fill="none" xmlns="http://www.w3.org/2000/svg">
<path d="M0 21.2347C0 27.0803 4.29467 31.9714 9.30511 31.9714C14.1963 31.9714 17.8944 28.2732 17.8944 23.5014C17.8944 18.3716 13.3612 14.912 7.39637 14.5541C8.94722 10.7367 11.5717 6.68059 16.7015 1.55085L15.1506 0C5.24904 5.60693 0 14.077 0 21.2347ZM25.5294 21.2347C25.5294 27.0803 29.8241 31.9714 34.8345 31.9714C39.7257 31.9714 43.4239 28.2732 43.4239 23.5014C43.4239 18.3716 38.8906 14.912 32.9258 14.5541C34.4766 10.7367 37.1012 6.68059 42.2309 1.55085L40.6801 0C30.7785 5.60693 25.5294 14.077 25.5294 21.2347Z" fill="#2B2B2B"/>
</svg>
