<svg width="14" height="14" viewBox="0 0 14 14" fill="none" xmlns="http://www.w3.org/2000/svg">
<path d="M8.67601 8.54996C8.79601 8.54996 8.90101 8.60096 8.99101 8.70296L9.72901 9.48596C9.39301 9.91196 8.96701 10.239 8.45101 10.467C7.94101 10.689 7.34101 10.8 6.65101 10.8C6.05101 10.8 5.50801 10.695 5.02201 10.485C4.53601 10.269 4.12201 9.97496 3.78001 9.60296C3.43801 9.22496 3.17401 8.78396 2.98801 8.27996C2.80201 7.76996 2.70901 7.21796 2.70901 6.62396C2.70901 6.01196 2.81401 5.45096 3.02401 4.94096C3.23401 4.43096 3.52501 3.99296 3.89701 3.62696C4.26901 3.25496 4.70401 2.96696 5.20201 2.76296C5.70601 2.55896 6.25201 2.45696 6.84001 2.45696C7.50601 2.45696 8.07901 2.57096 8.55901 2.79896C9.03901 3.02096 9.44101 3.30596 9.76501 3.65396L9.18001 4.45496C9.14401 4.50296 9.09301 4.55096 9.02701 4.59896C8.96701 4.64696 8.88901 4.67096 8.79301 4.67096C8.69101 4.67096 8.59501 4.64096 8.50501 4.58096C8.41501 4.52096 8.30401 4.45496 8.17201 4.38296C8.04601 4.31096 7.88701 4.24496 7.69501 4.18496C7.50301 4.12496 7.25401 4.09496 6.94801 4.09496C6.58801 4.09496 6.26701 4.15496 5.98501 4.27496C5.70901 4.38896 5.47201 4.55696 5.27401 4.77896C5.08201 4.99496 4.93501 5.25896 4.83301 5.57096C4.73101 5.88296 4.68001 6.23396 4.68001 6.62396C4.68001 7.03196 4.73101 7.39196 4.83301 7.70396C4.94101 8.01596 5.08501 8.27996 5.26501 8.49596C5.45101 8.70596 5.67001 8.86796 5.92201 8.98196C6.18001 9.08996 6.46201 9.14396 6.76801 9.14396C7.06201 9.14396 7.30201 9.11996 7.48801 9.07196C7.68001 9.02396 7.83901 8.96696 7.96501 8.90096C8.09701 8.83496 8.21401 8.76896 8.31601 8.70296C8.42401 8.63696 8.54401 8.58596 8.67601 8.54996ZM1.32099e-05 6.65096C1.32099e-05 6.03896 0.0780132 5.45096 0.234013 4.88696C0.396013 4.31696 0.621013 3.78596 0.909013 3.29396C1.19701 2.80196 1.54201 2.35496 1.94401 1.95296C2.35201 1.54496 2.79901 1.19696 3.28501 0.908958C3.77701 0.620959 4.30501 0.398959 4.86901 0.242958C5.43301 0.0809587 6.02101 -4.11272e-05 6.63301 -4.11272e-05C7.24501 -4.11272e-05 7.83301 0.0809587 8.39701 0.242958C8.96701 0.398959 9.49801 0.620959 9.99001 0.908958C10.482 1.19696 10.929 1.54496 11.331 1.95296C11.739 2.35496 12.087 2.80196 12.375 3.29396C12.663 3.78596 12.885 4.31696 13.041 4.88696C13.203 5.45096 13.284 6.03896 13.284 6.65096C13.284 7.25696 13.203 7.84496 13.041 8.41496C12.885 8.97896 12.663 9.50696 12.375 9.99896C12.087 10.485 11.739 10.932 11.331 11.34C10.929 11.742 10.482 12.087 9.99001 12.375C9.49801 12.663 8.96701 12.888 8.39701 13.05C7.83301 13.206 7.24501 13.284 6.63301 13.284C6.02101 13.284 5.43301 13.206 4.86901 13.05C4.30501 12.888 3.77701 12.663 3.28501 12.375C2.79901 12.087 2.35201 11.742 1.94401 11.34C1.54201 10.932 1.19701 10.485 0.909013 9.99896C0.621013 9.50696 0.396013 8.97896 0.234013 8.41496C0.0780132 7.85096 1.32099e-05 7.26296 1.32099e-05 6.65096ZM1.21501 6.65096C1.21501 7.43096 1.35301 8.15996 1.62901 8.83796C1.91101 9.51596 2.29501 10.107 2.78101 10.611C3.26701 11.109 3.84001 11.502 4.50001 11.79C5.16001 12.078 5.87101 12.222 6.63301 12.222C7.14301 12.222 7.63201 12.156 8.10001 12.024C8.56801 11.892 9.00301 11.706 9.40501 11.466C9.81301 11.226 10.182 10.938 10.512 10.602C10.848 10.266 11.133 9.89096 11.367 9.47696C11.601 9.06296 11.781 8.61896 11.907 8.14496C12.039 7.67096 12.105 7.17296 12.105 6.65096C12.105 6.12896 12.039 5.62796 11.907 5.14796C11.781 4.66796 11.601 4.22096 11.367 3.80696C11.133 3.38696 10.848 3.00896 10.512 2.67296C10.182 2.33096 9.81301 2.03996 9.40501 1.79996C9.00301 1.55396 8.56801 1.36496 8.10001 1.23296C7.63201 1.10096 7.14301 1.03496 6.63301 1.03496C6.12301 1.03496 5.63701 1.10096 5.17501 1.23296C4.71301 1.36496 4.28101 1.55396 3.87901 1.79996C3.47701 2.03996 3.11101 2.33096 2.78101 2.67296C2.45701 3.00896 2.17801 3.38696 1.94401 3.80696C1.71001 4.22096 1.53001 4.66796 1.40401 5.14796C1.27801 5.62796 1.21501 6.12896 1.21501 6.65096Z" fill="white"/>
</svg>
