<svg width="101" height="53" viewBox="0 0 101 53" fill="none" xmlns="http://www.w3.org/2000/svg">
<g filter="url(#filter0_dd_22_2592)">
<path d="M5 13C5 6.37258 10.3726 1 17 1H84C90.6274 1 96 6.37258 96 13V25C96 31.6274 90.6274 37 84 37H17C10.3726 37 5 31.6274 5 25V13Z" fill="#FBE4AB"/>
<path d="M24.0244 16.4929C23.9714 16.0223 23.7526 15.6577 23.3682 15.3991C22.9837 15.1373 22.4998 15.0064 21.9165 15.0064C21.4988 15.0064 21.1376 15.0727 20.8327 15.2053C20.5277 15.3345 20.2907 15.5135 20.1217 15.7422C19.956 15.9676 19.8731 16.2244 19.8731 16.5128C19.8731 16.7547 19.9295 16.9635 20.0422 17.1392C20.1582 17.3149 20.309 17.4624 20.4946 17.5817C20.6835 17.6977 20.8857 17.7955 21.1011 17.875C21.3166 17.9512 21.5237 18.0142 21.7226 18.0639L22.7169 18.3224C23.0417 18.402 23.3748 18.5097 23.7162 18.6456C24.0576 18.7815 24.3741 18.9605 24.6657 19.1825C24.9574 19.4046 25.1927 19.6797 25.3717 20.0078C25.554 20.3359 25.6452 20.7287 25.6452 21.1861C25.6452 21.7628 25.496 22.2749 25.1977 22.7223C24.9027 23.1697 24.4735 23.5227 23.9101 23.7812C23.3499 24.0398 22.6721 24.169 21.8767 24.169C21.1144 24.169 20.4548 24.0481 19.898 23.8061C19.3412 23.5642 18.9053 23.2211 18.5905 22.777C18.2756 22.3295 18.1016 21.7992 18.0684 21.1861H19.6096C19.6395 21.554 19.7588 21.8606 19.9676 22.1058C20.1797 22.3478 20.4498 22.5284 20.778 22.6477C21.1094 22.7637 21.4723 22.8217 21.8667 22.8217C22.3009 22.8217 22.6871 22.7538 23.0251 22.6179C23.3665 22.4787 23.635 22.2865 23.8305 22.0412C24.0261 21.7926 24.1238 21.5026 24.1238 21.1712C24.1238 20.8696 24.0377 20.6226 23.8653 20.4304C23.6963 20.2382 23.4659 20.0791 23.1743 19.9531C22.8859 19.8272 22.5595 19.7161 22.1949 19.62L20.9917 19.2919C20.1764 19.0698 19.5301 18.7434 19.0528 18.3125C18.5789 17.8816 18.3419 17.3116 18.3419 16.6023C18.3419 16.0156 18.501 15.5036 18.8192 15.0661C19.1373 14.6286 19.5682 14.2888 20.1118 14.0469C20.6553 13.8016 21.2685 13.679 21.9513 13.679C22.6407 13.679 23.2488 13.8 23.7758 14.0419C24.3061 14.2839 24.7238 14.617 25.0287 15.0412C25.3336 15.4621 25.4927 15.946 25.5059 16.4929H24.0244ZM30.9262 16.3636V17.5568H26.7551V16.3636H30.9262ZM27.8737 14.5341H29.3602V21.7578C29.3602 22.0462 29.4033 22.2633 29.4894 22.4091C29.5756 22.5516 29.6866 22.6494 29.8225 22.7024C29.9617 22.7521 30.1125 22.777 30.2749 22.777C30.3943 22.777 30.4987 22.7687 30.5882 22.7521C30.6776 22.7356 30.7472 22.7223 30.797 22.7124L31.0654 23.9403C30.9793 23.9735 30.8566 24.0066 30.6975 24.0398C30.5384 24.0762 30.3396 24.0961 30.1009 24.0994C29.7098 24.1061 29.3453 24.0365 29.0072 23.8906C28.6691 23.7448 28.3957 23.5194 28.1869 23.2145C27.9781 22.9096 27.8737 22.5268 27.8737 22.0661V14.5341ZM35.7797 24.1541C35.0274 24.1541 34.3794 23.9934 33.8358 23.6719C33.2956 23.3471 32.878 22.8913 32.583 22.3047C32.2913 21.7147 32.1455 21.0237 32.1455 20.2315C32.1455 19.4493 32.2913 18.7599 32.583 18.1634C32.878 17.5668 33.289 17.1011 33.816 16.7663C34.3463 16.4316 34.9661 16.2642 35.6753 16.2642C36.1062 16.2642 36.5238 16.3355 36.9282 16.478C37.3325 16.6205 37.6955 16.8442 38.017 17.1491C38.3385 17.4541 38.592 17.8501 38.7776 18.3374C38.9632 18.8213 39.056 19.4096 39.056 20.1023V20.6293H32.9857V19.5156H37.5993C37.5993 19.1245 37.5198 18.7782 37.3607 18.4766C37.2016 18.1716 36.9779 17.9313 36.6895 17.7557C36.4045 17.58 36.0698 17.4922 35.6853 17.4922C35.2677 17.4922 34.9031 17.5949 34.5915 17.8004C34.2833 18.0026 34.0447 18.2678 33.8756 18.5959C33.7099 18.9207 33.627 19.2737 33.627 19.6548V20.5249C33.627 21.0353 33.7165 21.4695 33.8955 21.8274C34.0778 22.1854 34.3314 22.4588 34.6562 22.6477C34.981 22.8333 35.3605 22.9261 35.7947 22.9261C36.0764 22.9261 36.3332 22.8864 36.5653 22.8068C36.7973 22.724 36.9978 22.6013 37.1668 22.4389C37.3358 22.2765 37.4651 22.076 37.5546 21.8374L38.9616 22.0909C38.8489 22.5052 38.6467 22.8681 38.355 23.1797C38.0667 23.4879 37.7037 23.7282 37.2662 23.9006C36.8321 24.0696 36.3366 24.1541 35.7797 24.1541ZM40.7053 26.8636V16.3636H42.157V17.6016H42.2813C42.3675 17.4425 42.4918 17.2585 42.6542 17.0497C42.8166 16.8409 43.042 16.6586 43.3303 16.5028C43.6187 16.3438 43.9999 16.2642 44.4738 16.2642C45.0903 16.2642 45.6405 16.42 46.1244 16.7315C46.6083 17.0431 46.9878 17.4922 47.2629 18.0788C47.5413 18.6655 47.6805 19.3714 47.6805 20.1967C47.6805 21.022 47.5429 21.7296 47.2678 22.3196C46.9928 22.9062 46.6149 23.3587 46.1343 23.6768C45.6537 23.9917 45.1052 24.1491 44.4887 24.1491C44.0247 24.1491 43.6452 24.0713 43.3502 23.9155C43.0586 23.7597 42.8299 23.5774 42.6642 23.3686C42.4984 23.1598 42.3708 22.9742 42.2813 22.8118H42.1919V26.8636H40.7053ZM42.162 20.1818C42.162 20.7187 42.2399 21.1894 42.3957 21.5938C42.5515 21.9981 42.7768 22.3146 43.0718 22.5433C43.3668 22.7687 43.7281 22.8814 44.1556 22.8814C44.5998 22.8814 44.971 22.7637 45.2693 22.5284C45.5676 22.2898 45.7929 21.9666 45.9454 21.5589C46.1012 21.1513 46.1791 20.6922 46.1791 20.1818C46.1791 19.678 46.1028 19.2256 45.9504 18.8246C45.8012 18.4235 45.5758 18.107 45.2742 17.875C44.9759 17.643 44.6031 17.527 44.1556 17.527C43.7248 17.527 43.3602 17.638 43.0619 17.8601C42.7669 18.0821 42.5432 18.392 42.3907 18.7898C42.2383 19.1875 42.162 19.6515 42.162 20.1818ZM56.5759 24.1392C55.8931 24.1392 55.2833 24.0215 54.7464 23.7862C54.2127 23.5509 53.7902 23.2244 53.4786 22.8068C53.1704 22.3859 53.0046 21.8987 52.9814 21.3452H54.5425C54.5624 21.6468 54.6635 21.9086 54.8458 22.1307C55.0314 22.3494 55.2733 22.5185 55.5716 22.6378C55.8699 22.7571 56.2014 22.8168 56.566 22.8168C56.967 22.8168 57.3216 22.7472 57.6299 22.608C57.9414 22.4687 58.185 22.2749 58.3607 22.0263C58.5364 21.7744 58.6242 21.4844 58.6242 21.1562C58.6242 20.8149 58.5364 20.5149 58.3607 20.2564C58.1884 19.9946 57.9348 19.7891 57.6001 19.6399C57.2686 19.4908 56.8676 19.4162 56.3969 19.4162H55.5368V18.1634H56.3969C56.7748 18.1634 57.1062 18.0954 57.3912 17.9595C57.6796 17.8236 57.905 17.6347 58.0674 17.3928C58.2298 17.1475 58.311 16.8608 58.311 16.5327C58.311 16.2178 58.2397 15.9444 58.0972 15.7124C57.958 15.477 57.7591 15.2931 57.5006 15.1605C57.2454 15.0279 56.9438 14.9616 56.5958 14.9616C56.2644 14.9616 55.9545 15.023 55.6661 15.1456C55.3811 15.2649 55.1491 15.4373 54.9701 15.6626C54.7911 15.8847 54.695 16.1515 54.6817 16.4631H53.1952C53.2118 15.9129 53.3742 15.429 53.6824 15.0114C53.994 14.5937 54.405 14.2673 54.9154 14.032C55.4258 13.7966 55.9926 13.679 56.6157 13.679C57.2686 13.679 57.8321 13.8066 58.306 14.0618C58.7833 14.3137 59.1512 14.6501 59.4097 15.071C59.6715 15.492 59.8008 15.9527 59.7975 16.4531C59.8008 17.0232 59.6417 17.5071 59.3202 17.9048C59.002 18.3026 58.5778 18.5694 58.0475 18.7053V18.7848C58.7236 18.8875 59.2473 19.156 59.6185 19.5902C59.993 20.0244 60.1787 20.563 60.1753 21.206C60.1787 21.7661 60.0229 22.2682 59.708 22.7124C59.3965 23.1565 58.9706 23.5062 58.4303 23.7614C57.8901 24.0133 57.2719 24.1392 56.5759 24.1392ZM70.2789 18.2628V19.5554H65.7646V18.2628H70.2789ZM79.306 24.1392C78.6829 24.1392 78.1228 24.0199 77.6256 23.7812C77.1318 23.5393 76.7374 23.2079 76.4424 22.7869C76.1474 22.366 75.99 21.8854 75.9701 21.3452H77.4616C77.498 21.7827 77.6919 22.1423 78.0432 22.424C78.3946 22.7057 78.8155 22.8466 79.306 22.8466C79.6971 22.8466 80.0435 22.7571 80.3451 22.5781C80.65 22.3958 80.8886 22.1456 81.061 21.8274C81.2367 21.5092 81.3245 21.1463 81.3245 20.7386C81.3245 20.3243 81.235 19.9548 81.056 19.63C80.877 19.3052 80.6301 19.05 80.3153 18.8643C80.0037 18.6787 79.6457 18.5843 79.2414 18.581C78.9331 18.581 78.6233 18.634 78.3117 18.7401C78.0001 18.8461 77.7483 18.9853 77.556 19.1577L76.1491 18.9489L76.7208 13.8182H82.3188V15.1357H77.9985L77.6753 17.9844H77.735C77.9339 17.7921 78.1974 17.6314 78.5255 17.5021C78.8569 17.3729 79.2116 17.3082 79.5894 17.3082C80.2092 17.3082 80.761 17.4557 81.2449 17.7507C81.7322 18.0457 82.115 18.4484 82.3934 18.9588C82.6751 19.4659 82.8143 20.0492 82.811 20.7088C82.8143 21.3684 82.6652 21.9567 82.3635 22.4737C82.0653 22.9908 81.651 23.3984 81.1206 23.6967C80.5937 23.9917 79.9888 24.1392 79.306 24.1392Z" fill="#101828"/>
<path d="M49.0858 42.5858L43.0858 36.5858C42.7107 36.2107 42.202 36 41.6716 36H59.3284C58.798 36 58.2893 36.2107 57.9142 36.5858L51.9142 42.5858C51.1332 43.3668 49.8668 43.3668 49.0858 42.5858Z" fill="#FBE4AB"/>
</g>
<defs>
<filter id="filter0_dd_22_2592" x="0" y="0" width="101" height="53" filterUnits="userSpaceOnUse" color-interpolation-filters="sRGB">
<feFlood flood-opacity="0" result="BackgroundImageFix"/>
<feColorMatrix in="SourceAlpha" type="matrix" values="0 0 0 0 0 0 0 0 0 0 0 0 0 0 0 0 0 0 127 0" result="hardAlpha"/>
<feMorphology radius="1" operator="erode" in="SourceAlpha" result="effect1_dropShadow_22_2592"/>
<feOffset dy="4"/>
<feGaussianBlur stdDeviation="3"/>
<feColorMatrix type="matrix" values="0 0 0 0 0.113725 0 0 0 0 0.160784 0 0 0 0 0.239216 0 0 0 0.1 0"/>
<feBlend mode="normal" in2="BackgroundImageFix" result="effect1_dropShadow_22_2592"/>
<feColorMatrix in="SourceAlpha" type="matrix" values="0 0 0 0 0 0 0 0 0 0 0 0 0 0 0 0 0 0 127 0" result="hardAlpha"/>
<feMorphology radius="2" operator="erode" in="SourceAlpha" result="effect2_dropShadow_22_2592"/>
<feOffset dy="2"/>
<feGaussianBlur stdDeviation="2"/>
<feColorMatrix type="matrix" values="0 0 0 0 0.113725 0 0 0 0 0.160784 0 0 0 0 0.239216 0 0 0 0.1 0"/>
<feBlend mode="normal" in2="effect1_dropShadow_22_2592" result="effect2_dropShadow_22_2592"/>
<feBlend mode="normal" in="SourceGraphic" in2="effect2_dropShadow_22_2592" result="shape"/>
</filter>
</defs>
</svg>
