<svg width="100" height="53" viewBox="0 0 100 53" fill="none" xmlns="http://www.w3.org/2000/svg">
<g filter="url(#filter0_dd_22_2602)">
<path d="M5 13C5 6.37258 10.3726 1 17 1H83C89.6274 1 95 6.37258 95 13V25C95 31.6274 89.6274 37 83 37H17C10.3726 37 5 31.6274 5 25V13Z" fill="#FBE4AB"/>
<path d="M23.6953 16.4929C23.6423 16.0223 23.4235 15.6577 23.0391 15.3991C22.6546 15.1373 22.1707 15.0064 21.5874 15.0064C21.1697 15.0064 20.8085 15.0727 20.5036 15.2053C20.1986 15.3345 19.9616 15.5135 19.7926 15.7422C19.6269 15.9676 19.544 16.2244 19.544 16.5128C19.544 16.7547 19.6004 16.9635 19.7131 17.1392C19.8291 17.3149 19.9799 17.4624 20.1655 17.5817C20.3544 17.6977 20.5566 17.7955 20.772 17.875C20.9875 17.9512 21.1946 18.0142 21.3935 18.0639L22.3878 18.3224C22.7126 18.402 23.0457 18.5097 23.3871 18.6456C23.7285 18.7815 24.045 18.9605 24.3366 19.1825C24.6283 19.4046 24.8636 19.6797 25.0426 20.0078C25.2249 20.3359 25.3161 20.7287 25.3161 21.1861C25.3161 21.7628 25.1669 22.2749 24.8686 22.7223C24.5736 23.1697 24.1444 23.5227 23.581 23.7812C23.0208 24.0398 22.343 24.169 21.5476 24.169C20.7853 24.169 20.1257 24.0481 19.5689 23.8061C19.0121 23.5642 18.5762 23.2211 18.2614 22.777C17.9465 22.3295 17.7725 21.7992 17.7393 21.1861H19.2805C19.3104 21.554 19.4297 21.8606 19.6385 22.1058C19.8506 22.3478 20.1207 22.5284 20.4489 22.6477C20.7803 22.7637 21.1432 22.8217 21.5376 22.8217C21.9718 22.8217 22.358 22.7538 22.696 22.6179C23.0374 22.4787 23.3059 22.2865 23.5014 22.0412C23.697 21.7926 23.7947 21.5026 23.7947 21.1712C23.7947 20.8696 23.7086 20.6226 23.5362 20.4304C23.3672 20.2382 23.1368 20.0791 22.8452 19.9531C22.5568 19.8272 22.2304 19.7161 21.8658 19.62L20.6626 19.2919C19.8473 19.0698 19.201 18.7434 18.7237 18.3125C18.2498 17.8816 18.0128 17.3116 18.0128 16.6023C18.0128 16.0156 18.1719 15.5036 18.4901 15.0661C18.8082 14.6286 19.2391 14.2888 19.7827 14.0469C20.3262 13.8016 20.9394 13.679 21.6222 13.679C22.3116 13.679 22.9197 13.8 23.4467 14.0419C23.977 14.2839 24.3946 14.617 24.6996 15.0412C25.0045 15.4621 25.1636 15.946 25.1768 16.4929H23.6953ZM30.5971 16.3636V17.5568H26.426V16.3636H30.5971ZM27.5446 14.5341H29.0311V21.7578C29.0311 22.0462 29.0742 22.2633 29.1603 22.4091C29.2465 22.5516 29.3575 22.6494 29.4934 22.7024C29.6326 22.7521 29.7834 22.777 29.9458 22.777C30.0652 22.777 30.1696 22.7687 30.2591 22.7521C30.3485 22.7356 30.4181 22.7223 30.4679 22.7124L30.7363 23.9403C30.6502 23.9735 30.5275 24.0066 30.3684 24.0398C30.2093 24.0762 30.0105 24.0961 29.7718 24.0994C29.3807 24.1061 29.0162 24.0365 28.6781 23.8906C28.34 23.7448 28.0666 23.5194 27.8578 23.2145C27.649 22.9096 27.5446 22.5268 27.5446 22.0661V14.5341ZM35.4506 24.1541C34.6983 24.1541 34.0503 23.9934 33.5067 23.6719C32.9665 23.3471 32.5489 22.8913 32.2539 22.3047C31.9622 21.7147 31.8164 21.0237 31.8164 20.2315C31.8164 19.4493 31.9622 18.7599 32.2539 18.1634C32.5489 17.5668 32.9599 17.1011 33.4869 16.7663C34.0172 16.4316 34.637 16.2642 35.3462 16.2642C35.7771 16.2642 36.1947 16.3355 36.5991 16.478C37.0034 16.6205 37.3664 16.8442 37.6879 17.1491C38.0094 17.4541 38.2629 17.8501 38.4485 18.3374C38.6341 18.8213 38.7269 19.4096 38.7269 20.1023V20.6293H32.6566V19.5156H37.2702C37.2702 19.1245 37.1907 18.7782 37.0316 18.4766C36.8725 18.1716 36.6488 17.9313 36.3604 17.7557C36.0754 17.58 35.7406 17.4922 35.3562 17.4922C34.9386 17.4922 34.574 17.5949 34.2624 17.8004C33.9542 18.0026 33.7156 18.2678 33.5465 18.5959C33.3808 18.9207 33.2979 19.2737 33.2979 19.6548V20.5249C33.2979 21.0353 33.3874 21.4695 33.5664 21.8274C33.7487 22.1854 34.0022 22.4588 34.3271 22.6477C34.6519 22.8333 35.0314 22.9261 35.4656 22.9261C35.7473 22.9261 36.0041 22.8864 36.2362 22.8068C36.4682 22.724 36.6687 22.6013 36.8377 22.4389C37.0067 22.2765 37.136 22.076 37.2255 21.8374L38.6325 22.0909C38.5198 22.5052 38.3176 22.8681 38.0259 23.1797C37.7376 23.4879 37.3746 23.7282 36.9371 23.9006C36.503 24.0696 36.0075 24.1541 35.4506 24.1541ZM40.3762 26.8636V16.3636H41.8279V17.6016H41.9522C42.0384 17.4425 42.1627 17.2585 42.3251 17.0497C42.4875 16.8409 42.7129 16.6586 43.0012 16.5028C43.2896 16.3438 43.6708 16.2642 44.1447 16.2642C44.7612 16.2642 45.3114 16.42 45.7953 16.7315C46.2792 17.0431 46.6587 17.4922 46.9338 18.0788C47.2122 18.6655 47.3514 19.3714 47.3514 20.1967C47.3514 21.022 47.2138 21.7296 46.9387 22.3196C46.6636 22.9062 46.2858 23.3587 45.8052 23.6768C45.3246 23.9917 44.7761 24.1491 44.1596 24.1491C43.6956 24.1491 43.3161 24.0713 43.0211 23.9155C42.7295 23.7597 42.5008 23.5774 42.335 23.3686C42.1693 23.1598 42.0417 22.9742 41.9522 22.8118H41.8627V26.8636H40.3762ZM41.8329 20.1818C41.8329 20.7187 41.9108 21.1894 42.0666 21.5938C42.2224 21.9981 42.4477 22.3146 42.7427 22.5433C43.0377 22.7687 43.399 22.8814 43.8265 22.8814C44.2707 22.8814 44.6419 22.7637 44.9402 22.5284C45.2385 22.2898 45.4638 21.9666 45.6163 21.5589C45.7721 21.1513 45.85 20.6922 45.85 20.1818C45.85 19.678 45.7737 19.2256 45.6213 18.8246C45.4721 18.4235 45.2467 18.107 44.9451 17.875C44.6468 17.643 44.274 17.527 43.8265 17.527C43.3957 17.527 43.0311 17.638 42.7328 17.8601C42.4378 18.0821 42.2141 18.392 42.0616 18.7898C41.9092 19.1875 41.8329 19.6515 41.8329 20.1818ZM56.0629 24.1392C55.4397 24.1392 54.8796 24.0199 54.3825 23.7812C53.8886 23.5393 53.4942 23.2079 53.1992 22.7869C52.9042 22.366 52.7468 21.8854 52.7269 21.3452H54.2184C54.2549 21.7827 54.4487 22.1423 54.8001 22.424C55.1514 22.7057 55.5723 22.8466 56.0629 22.8466C56.454 22.8466 56.8003 22.7571 57.1019 22.5781C57.4068 22.3958 57.6455 22.1456 57.8178 21.8274C57.9935 21.5092 58.0813 21.1463 58.0813 20.7386C58.0813 20.3243 57.9918 19.9548 57.8129 19.63C57.6339 19.3052 57.387 19.05 57.0721 18.8643C56.7605 18.6787 56.4026 18.5843 55.9982 18.581C55.69 18.581 55.3801 18.634 55.0685 18.7401C54.757 18.8461 54.5051 18.9853 54.3129 19.1577L52.9059 18.9489L53.4776 13.8182H59.0756V15.1357H54.7553L54.4322 17.9844H54.4918C54.6907 17.7921 54.9542 17.6314 55.2823 17.5021C55.6138 17.3729 55.9684 17.3082 56.3462 17.3082C56.966 17.3082 57.5179 17.4557 58.0018 17.7507C58.489 18.0457 58.8718 18.4484 59.1502 18.9588C59.4319 19.4659 59.5711 20.0492 59.5678 20.7088C59.5711 21.3684 59.422 21.9567 59.1204 22.4737C58.8221 22.9908 58.4078 23.3984 57.8775 23.6967C57.3505 23.9917 56.7456 24.1392 56.0629 24.1392ZM69.608 18.2628V19.5554H65.0938V18.2628H69.608ZM78.6351 24.1392C78.012 24.1392 77.4519 24.0199 76.9547 23.7812C76.4609 23.5393 76.0665 23.2079 75.7715 22.7869C75.4765 22.366 75.3191 21.8854 75.2992 21.3452H76.7907C76.8271 21.7827 77.021 22.1423 77.3723 22.424C77.7237 22.7057 78.1446 22.8466 78.6351 22.8466C79.0262 22.8466 79.3726 22.7571 79.6742 22.5781C79.9791 22.3958 80.2177 22.1456 80.3901 21.8274C80.5658 21.5092 80.6536 21.1463 80.6536 20.7386C80.6536 20.3243 80.5641 19.9548 80.3851 19.63C80.2061 19.3052 79.9592 19.05 79.6444 18.8643C79.3328 18.6787 78.9748 18.5843 78.5705 18.581C78.2623 18.581 77.9524 18.634 77.6408 18.7401C77.3292 18.8461 77.0774 18.9853 76.8851 19.1577L75.4782 18.9489L76.0499 13.8182H81.6479V15.1357H77.3276L77.0044 17.9844H77.0641C77.263 17.7921 77.5265 17.6314 77.8546 17.5021C78.186 17.3729 78.5407 17.3082 78.9185 17.3082C79.5383 17.3082 80.0901 17.4557 80.574 17.7507C81.0613 18.0457 81.4441 18.4484 81.7225 18.9588C82.0042 19.4659 82.1434 20.0492 82.1401 20.7088C82.1434 21.3684 81.9943 21.9567 81.6926 22.4737C81.3944 22.9908 80.9801 23.3984 80.4498 23.6967C79.9228 23.9917 79.3179 24.1392 78.6351 24.1392Z" fill="#101828"/>
<path d="M48.5858 42.5858L42.5858 36.5858C42.2107 36.2107 41.702 36 41.1716 36H58.8284C58.298 36 57.7893 36.2107 57.4142 36.5858L51.4142 42.5858C50.6332 43.3668 49.3668 43.3668 48.5858 42.5858Z" fill="#FBE4AB"/>
</g>
<defs>
<filter id="filter0_dd_22_2602" x="0" y="0" width="100" height="53" filterUnits="userSpaceOnUse" color-interpolation-filters="sRGB">
<feFlood flood-opacity="0" result="BackgroundImageFix"/>
<feColorMatrix in="SourceAlpha" type="matrix" values="0 0 0 0 0 0 0 0 0 0 0 0 0 0 0 0 0 0 127 0" result="hardAlpha"/>
<feMorphology radius="1" operator="erode" in="SourceAlpha" result="effect1_dropShadow_22_2602"/>
<feOffset dy="4"/>
<feGaussianBlur stdDeviation="3"/>
<feColorMatrix type="matrix" values="0 0 0 0 0.113725 0 0 0 0 0.160784 0 0 0 0 0.239216 0 0 0 0.1 0"/>
<feBlend mode="normal" in2="BackgroundImageFix" result="effect1_dropShadow_22_2602"/>
<feColorMatrix in="SourceAlpha" type="matrix" values="0 0 0 0 0 0 0 0 0 0 0 0 0 0 0 0 0 0 127 0" result="hardAlpha"/>
<feMorphology radius="2" operator="erode" in="SourceAlpha" result="effect2_dropShadow_22_2602"/>
<feOffset dy="2"/>
<feGaussianBlur stdDeviation="2"/>
<feColorMatrix type="matrix" values="0 0 0 0 0.113725 0 0 0 0 0.160784 0 0 0 0 0.239216 0 0 0 0.1 0"/>
<feBlend mode="normal" in2="effect1_dropShadow_22_2602" result="effect2_dropShadow_22_2602"/>
<feBlend mode="normal" in="SourceGraphic" in2="effect2_dropShadow_22_2602" result="shape"/>
</filter>
</defs>
</svg>
