<svg width="98" height="53" viewBox="0 0 98 53" fill="none" xmlns="http://www.w3.org/2000/svg">
<g filter="url(#filter0_dd_22_2582)">
<path d="M5 13C5 6.37258 10.3726 1 17 1H81C87.6274 1 93 6.37258 93 13V25C93 31.6274 87.6274 37 81 37H17C10.3726 37 5 31.6274 5 25V13Z" fill="#FBE4AB"/>
<path d="M23.7275 16.4929C23.6745 16.0223 23.4558 15.6577 23.0713 15.3991C22.6868 15.1373 22.2029 15.0064 21.6196 15.0064C21.202 15.0064 20.8407 15.0727 20.5358 15.2053C20.2309 15.3345 19.9939 15.5135 19.8248 15.7422C19.6591 15.9676 19.5763 16.2244 19.5763 16.5128C19.5763 16.7547 19.6326 16.9635 19.7453 17.1392C19.8613 17.3149 20.0121 17.4624 20.1977 17.5817C20.3866 17.6977 20.5888 17.7955 20.8042 17.875C21.0197 17.9512 21.2268 18.0142 21.4257 18.0639L22.42 18.3224C22.7448 18.402 23.0779 18.5097 23.4193 18.6456C23.7607 18.7815 24.0772 18.9605 24.3689 19.1825C24.6605 19.4046 24.8959 19.6797 25.0748 20.0078C25.2571 20.3359 25.3483 20.7287 25.3483 21.1861C25.3483 21.7628 25.1991 22.2749 24.9008 22.7223C24.6059 23.1697 24.1766 23.5227 23.6132 23.7812C23.0531 24.0398 22.3753 24.169 21.5798 24.169C20.8175 24.169 20.1579 24.0481 19.6011 23.8061C19.0443 23.5642 18.6085 23.2211 18.2936 22.777C17.9787 22.3295 17.8047 21.7992 17.7716 21.1861H19.3128C19.3426 21.554 19.4619 21.8606 19.6707 22.1058C19.8828 22.3478 20.153 22.5284 20.4811 22.6477C20.8125 22.7637 21.1755 22.8217 21.5699 22.8217C22.0041 22.8217 22.3902 22.7538 22.7282 22.6179C23.0696 22.4787 23.3381 22.2865 23.5336 22.0412C23.7292 21.7926 23.827 21.5026 23.827 21.1712C23.827 20.8696 23.7408 20.6226 23.5684 20.4304C23.3994 20.2382 23.1691 20.0791 22.8774 19.9531C22.589 19.8272 22.2626 19.7161 21.898 19.62L20.6949 19.2919C19.8795 19.0698 19.2332 18.7434 18.7559 18.3125C18.282 17.8816 18.045 17.3116 18.045 16.6023C18.045 16.0156 18.2041 15.5036 18.5223 15.0661C18.8405 14.6286 19.2713 14.2888 19.8149 14.0469C20.3585 13.8016 20.9716 13.679 21.6544 13.679C22.3438 13.679 22.952 13.8 23.479 14.0419C24.0093 14.2839 24.4269 14.617 24.7318 15.0412C25.0367 15.4621 25.1958 15.946 25.2091 16.4929H23.7275ZM30.6294 16.3636V17.5568H26.4582V16.3636H30.6294ZM27.5768 14.5341H29.0633V21.7578C29.0633 22.0462 29.1064 22.2633 29.1926 22.4091C29.2787 22.5516 29.3898 22.6494 29.5257 22.7024C29.6649 22.7521 29.8157 22.777 29.9781 22.777C30.0974 22.777 30.2018 22.7687 30.2913 22.7521C30.3808 22.7356 30.4504 22.7223 30.5001 22.7124L30.7686 23.9403C30.6824 23.9735 30.5597 24.0066 30.4007 24.0398C30.2416 24.0762 30.0427 24.0961 29.8041 24.0994C29.413 24.1061 29.0484 24.0365 28.7103 23.8906C28.3722 23.7448 28.0988 23.5194 27.89 23.2145C27.6812 22.9096 27.5768 22.5268 27.5768 22.0661V14.5341ZM35.4829 24.1541C34.7305 24.1541 34.0825 23.9934 33.539 23.6719C32.9987 23.3471 32.5811 22.8913 32.2861 22.3047C31.9945 21.7147 31.8486 21.0237 31.8486 20.2315C31.8486 19.4493 31.9945 18.7599 32.2861 18.1634C32.5811 17.5668 32.9921 17.1011 33.5191 16.7663C34.0494 16.4316 34.6692 16.2642 35.3785 16.2642C35.8093 16.2642 36.2269 16.3355 36.6313 16.478C37.0357 16.6205 37.3986 16.8442 37.7201 17.1491C38.0416 17.4541 38.2951 17.8501 38.4807 18.3374C38.6663 18.8213 38.7591 19.4096 38.7591 20.1023V20.6293H32.6888V19.5156H37.3025C37.3025 19.1245 37.2229 18.7782 37.0638 18.4766C36.9047 18.1716 36.681 17.9313 36.3927 17.7557C36.1076 17.58 35.7729 17.4922 35.3884 17.4922C34.9708 17.4922 34.6062 17.5949 34.2947 17.8004C33.9864 18.0026 33.7478 18.2678 33.5787 18.5959C33.413 18.9207 33.3302 19.2737 33.3302 19.6548V20.5249C33.3302 21.0353 33.4197 21.4695 33.5986 21.8274C33.7809 22.1854 34.0345 22.4588 34.3593 22.6477C34.6841 22.8333 35.0636 22.9261 35.4978 22.9261C35.7795 22.9261 36.0364 22.8864 36.2684 22.8068C36.5004 22.724 36.7009 22.6013 36.8699 22.4389C37.039 22.2765 37.1682 22.076 37.2577 21.8374L38.6647 22.0909C38.552 22.5052 38.3498 22.8681 38.0581 23.1797C37.7698 23.4879 37.4069 23.7282 36.9694 23.9006C36.5352 24.0696 36.0397 24.1541 35.4829 24.1541ZM40.4085 26.8636V16.3636H41.8602V17.6016H41.9845C42.0706 17.4425 42.1949 17.2585 42.3573 17.0497C42.5197 16.8409 42.7451 16.6586 43.0335 16.5028C43.3218 16.3438 43.703 16.2642 44.1769 16.2642C44.7934 16.2642 45.3436 16.42 45.8275 16.7315C46.3114 17.0431 46.6909 17.4922 46.966 18.0788C47.2444 18.6655 47.3836 19.3714 47.3836 20.1967C47.3836 21.022 47.2461 21.7296 46.971 22.3196C46.6959 22.9062 46.318 23.3587 45.8374 23.6768C45.3569 23.9917 44.8083 24.1491 44.1919 24.1491C43.7278 24.1491 43.3483 24.0713 43.0534 23.9155C42.7617 23.7597 42.533 23.5774 42.3673 23.3686C42.2016 23.1598 42.074 22.9742 41.9845 22.8118H41.895V26.8636H40.4085ZM41.8651 20.1818C41.8651 20.7187 41.943 21.1894 42.0988 21.5938C42.2546 21.9981 42.48 22.3146 42.7749 22.5433C43.0699 22.7687 43.4312 22.8814 43.8588 22.8814C44.3029 22.8814 44.6741 22.7637 44.9724 22.5284C45.2707 22.2898 45.4961 21.9666 45.6485 21.5589C45.8043 21.1513 45.8822 20.6922 45.8822 20.1818C45.8822 19.678 45.806 19.2256 45.6535 18.8246C45.5044 18.4235 45.279 18.107 44.9774 17.875C44.6791 17.643 44.3062 17.527 43.8588 17.527C43.4279 17.527 43.0633 17.638 42.765 17.8601C42.47 18.0821 42.2463 18.392 42.0938 18.7898C41.9414 19.1875 41.8651 19.6515 41.8651 20.1818ZM56.5972 13.8182V24H55.056V15.3594H54.9964L52.5603 16.9503V15.4787L55.1008 13.8182H56.5972ZM67.5757 18.2628V19.5554H63.0615V18.2628H67.5757ZM76.6029 24.1392C75.9798 24.1392 75.4197 24.0199 74.9225 23.7812C74.4287 23.5393 74.0342 23.2079 73.7393 22.7869C73.4443 22.366 73.2868 21.8854 73.267 21.3452H74.7584C74.7949 21.7827 74.9888 22.1423 75.3401 22.424C75.6914 22.7057 76.1124 22.8466 76.6029 22.8466C76.994 22.8466 77.3403 22.7571 77.642 22.5781C77.9469 22.3958 78.1855 22.1456 78.3579 21.8274C78.5335 21.5092 78.6214 21.1463 78.6214 20.7386C78.6214 20.3243 78.5319 19.9548 78.3529 19.63C78.1739 19.3052 77.927 19.05 77.6121 18.8643C77.3006 18.6787 76.9426 18.5843 76.5383 18.581C76.23 18.581 75.9201 18.634 75.6086 18.7401C75.297 18.8461 75.0451 18.9853 74.8529 19.1577L73.4459 18.9489L74.0177 13.8182H79.6157V15.1357H75.2954L74.9722 17.9844H75.0319C75.2307 17.7921 75.4942 17.6314 75.8224 17.5021C76.1538 17.3729 76.5084 17.3082 76.8863 17.3082C77.5061 17.3082 78.0579 17.4557 78.5418 17.7507C79.029 18.0457 79.4118 18.4484 79.6903 18.9588C79.972 19.4659 80.1112 20.0492 80.1079 20.7088C80.1112 21.3684 79.962 21.9567 79.6604 22.4737C79.3621 22.9908 78.9478 23.3984 78.4175 23.6967C77.8905 23.9917 77.2857 24.1392 76.6029 24.1392Z" fill="#101828"/>
<path d="M47.5858 42.5858L41.5858 36.5858C41.2107 36.2107 40.702 36 40.1716 36H57.8284C57.298 36 56.7893 36.2107 56.4142 36.5858L50.4142 42.5858C49.6332 43.3668 48.3668 43.3668 47.5858 42.5858Z" fill="#FBE4AB"/>
</g>
<defs>
<filter id="filter0_dd_22_2582" x="0" y="0" width="98" height="53" filterUnits="userSpaceOnUse" color-interpolation-filters="sRGB">
<feFlood flood-opacity="0" result="BackgroundImageFix"/>
<feColorMatrix in="SourceAlpha" type="matrix" values="0 0 0 0 0 0 0 0 0 0 0 0 0 0 0 0 0 0 127 0" result="hardAlpha"/>
<feMorphology radius="1" operator="erode" in="SourceAlpha" result="effect1_dropShadow_22_2582"/>
<feOffset dy="4"/>
<feGaussianBlur stdDeviation="3"/>
<feColorMatrix type="matrix" values="0 0 0 0 0.113725 0 0 0 0 0.160784 0 0 0 0 0.239216 0 0 0 0.1 0"/>
<feBlend mode="normal" in2="BackgroundImageFix" result="effect1_dropShadow_22_2582"/>
<feColorMatrix in="SourceAlpha" type="matrix" values="0 0 0 0 0 0 0 0 0 0 0 0 0 0 0 0 0 0 127 0" result="hardAlpha"/>
<feMorphology radius="2" operator="erode" in="SourceAlpha" result="effect2_dropShadow_22_2582"/>
<feOffset dy="2"/>
<feGaussianBlur stdDeviation="2"/>
<feColorMatrix type="matrix" values="0 0 0 0 0.113725 0 0 0 0 0.160784 0 0 0 0 0.239216 0 0 0 0.1 0"/>
<feBlend mode="normal" in2="effect1_dropShadow_22_2582" result="effect2_dropShadow_22_2582"/>
<feBlend mode="normal" in="SourceGraphic" in2="effect2_dropShadow_22_2582" result="shape"/>
</filter>
</defs>
</svg>
