<svg xmlns="http://www.w3.org/2000/svg" xmlns:xlink="http://www.w3.org/1999/xlink" width="100" zoomAndPan="magnify" viewBox="0 0 75 60" height="80" preserveAspectRatio="xMidYMid meet" version="1.0"><defs><g/><clipPath id="736dac26c4"><path d="M 28.8125 4.738281 L 45.3125 4.738281 L 45.3125 36.988281 L 28.8125 36.988281 Z M 28.8125 4.738281 " clip-rule="nonzero"/></clipPath><clipPath id="e5e87036ce"><path d="M 28 12 L 30.480469 12 L 30.480469 15 L 28 15 Z M 28 12 " clip-rule="nonzero"/></clipPath><clipPath id="7b2c40d23d"><rect x="0" width="31" y="0" height="18"/></clipPath><clipPath id="7032615e65"><path d="M 1 0.320312 L 10 0.320312 L 10 10 L 1 10 Z M 1 0.320312 " clip-rule="nonzero"/></clipPath><clipPath id="730cf70315"><path d="M 36 3 L 41.960938 3 L 41.960938 10 L 36 10 Z M 36 3 " clip-rule="nonzero"/></clipPath><clipPath id="7098ca4638"><rect x="0" width="42" y="0" height="13"/></clipPath></defs><g clip-path="url(#736dac26c4)"><path fill="#fbe4ab" d="M 38.589844 37.339844 C 38.484375 37.339844 38.421875 37.289062 38.390625 37.191406 C 38.324219 36.953125 38.117188 36.824219 37.902344 36.714844 C 37.652344 36.585938 37.378906 36.5 37.121094 36.382812 C 36.058594 35.910156 35.886719 34.550781 36.789062 33.8125 C 37.382812 33.324219 38.109375 33.203125 38.820312 33.015625 C 39.429688 32.859375 40.039062 32.695312 40.625 32.472656 C 41.390625 32.179688 41.691406 31.523438 41.457031 30.804688 C 41.222656 30.078125 40.519531 29.710938 39.746094 29.871094 C 38.9375 30.035156 38.273438 30.476562 37.617188 30.929688 C 36.664062 31.582031 35.6875 32.171875 34.539062 32.414062 C 32.84375 32.769531 31.382812 32.359375 30.207031 31.066406 C 29.226562 29.984375 29.183594 28.285156 30.167969 26.910156 C 30.699219 26.167969 31.339844 25.496094 31.976562 24.835938 C 32.691406 24.097656 33.34375 23.316406 33.90625 22.453125 C 34.324219 21.8125 34.5 21.109375 34.546875 20.355469 C 34.570312 19.949219 34.679688 19.550781 34.71875 19.144531 C 34.765625 18.660156 34.75 18.171875 34.550781 17.714844 C 34.261719 17.066406 33.96875 16.421875 33.679688 15.773438 C 32.710938 16.523438 31.625 17.039062 30.464844 17.414062 C 30.277344 17.472656 30.078125 17.503906 29.878906 17.523438 C 29.199219 17.589844 28.972656 17.355469 28.882812 16.660156 C 28.691406 15.203125 28.886719 13.796875 29.414062 12.445312 C 29.707031 11.695312 29.71875 10.925781 29.769531 10.152344 C 29.785156 9.929688 29.847656 9.769531 30.050781 9.667969 C 30.308594 9.535156 30.566406 9.410156 30.816406 9.261719 C 30.875 9.230469 30.921875 9.132812 30.929688 9.058594 C 30.976562 8.714844 31.015625 8.371094 31.042969 8.023438 C 31.054688 7.851562 31.039062 7.640625 31.257812 7.644531 C 31.351562 7.644531 31.523438 7.84375 31.527344 7.960938 C 31.542969 8.398438 31.53125 8.839844 31.476562 9.273438 C 31.441406 9.5625 31.46875 9.769531 31.730469 9.941406 C 32.070312 10.167969 32.085938 10.90625 31.765625 11.253906 C 31.628906 11.398438 31.476562 11.539062 31.304688 11.636719 C 31.109375 11.75 31 11.914062 31.003906 12.117188 C 31.027344 12.828125 31.078125 13.542969 31.121094 14.3125 C 31.773438 13.820312 32.453125 13.503906 32.878906 12.851562 C 33.171875 12.40625 33.648438 12.179688 34.148438 12.003906 C 34.621094 11.835938 35.101562 11.671875 35.546875 11.445312 C 36.1875 11.117188 36.394531 9.996094 35.980469 9.414062 C 35.835938 9.214844 35.746094 8.976562 35.628906 8.746094 C 35.03125 8.804688 34.683594 8.488281 34.664062 7.859375 C 34.636719 6.914062 35.152344 6.253906 35.753906 5.6875 C 35.683594 5.46875 35.597656 5.273438 35.566406 5.070312 C 35.554688 4.996094 35.652344 4.875 35.730469 4.820312 C 35.957031 4.648438 36.230469 4.785156 36.515625 5.191406 C 36.839844 5.125 37.164062 5.027344 37.492188 4.992188 C 38.039062 4.933594 38.566406 5.027344 39.039062 5.328125 C 39.726562 5.769531 39.804688 6.367188 39.289062 6.984375 C 39.429688 7.296875 39.574219 7.597656 39.707031 7.902344 C 39.734375 7.964844 39.757812 8.0625 39.726562 8.113281 C 39.566406 8.386719 39.691406 8.589844 39.863281 8.789062 C 39.910156 8.847656 39.949219 8.910156 39.992188 8.96875 C 40.316406 9.398438 40.277344 9.523438 39.742188 9.699219 C 39.914062 9.882812 39.925781 10.050781 39.722656 10.226562 C 39.496094 10.425781 39.710938 10.605469 39.789062 10.78125 C 39.832031 10.882812 39.882812 10.980469 39.945312 11.09375 C 39.976562 11.152344 39.972656 11.214844 39.933594 11.269531 C 39.894531 11.328125 39.84375 11.351562 39.773438 11.347656 L 38.75 11.25 C 38.789062 11.550781 38.945312 11.746094 39.273438 11.804688 C 39.695312 11.882812 40.113281 11.992188 40.539062 12.058594 C 41.4375 12.195312 42.046875 12.730469 42.488281 13.476562 C 42.707031 13.84375 42.957031 14.15625 43.28125 14.445312 C 44.035156 15.113281 44.617188 15.929688 45.109375 16.8125 C 45.304688 17.164062 45.273438 17.476562 45.082031 17.820312 C 44.515625 18.847656 43.644531 19.574219 42.734375 20.273438 C 42.429688 20.507812 42.179688 20.816406 41.890625 21.074219 C 41.53125 21.394531 41.167969 21.714844 40.78125 22 C 40.652344 22.09375 40.4375 22.074219 40.214844 22.117188 C 40.148438 22.386719 40.078125 22.730469 39.980469 23.070312 C 39.574219 24.46875 38.621094 25.429688 37.40625 26.144531 C 36.746094 26.53125 36.042969 26.84375 35.355469 27.183594 C 34.765625 27.472656 34.207031 27.808594 33.761719 28.304688 C 33.457031 28.640625 33.339844 29.027344 33.402344 29.472656 C 33.46875 29.96875 34.035156 30.289062 34.65625 30.207031 C 35.375 30.113281 35.980469 29.746094 36.597656 29.410156 C 37.339844 29.011719 38.058594 28.5625 38.832031 28.242188 C 39.746094 27.859375 40.714844 27.773438 41.660156 28.175781 C 42.78125 28.65625 43.417969 29.519531 43.464844 30.734375 C 43.515625 31.871094 42.964844 32.734375 42.011719 33.332031 C 41.316406 33.765625 40.523438 33.878906 39.726562 33.980469 C 39.195312 34.046875 38.664062 34.121094 38.144531 34.242188 C 37.933594 34.289062 37.722656 34.441406 37.566406 34.601562 C 37.15625 35.007812 37.234375 35.574219 37.726562 35.886719 C 37.867188 35.980469 38.015625 36.0625 38.164062 36.140625 C 38.554688 36.351562 38.808594 36.632812 38.859375 37.039062 C 38.867188 37.121094 38.84375 37.191406 38.789062 37.25 C 38.738281 37.3125 38.667969 37.339844 38.589844 37.339844 Z M 41.199219 15.96875 C 40.882812 17.203125 40.261719 18.382812 40.464844 19.75 C 40.800781 19.695312 41.164062 19.875 41.421875 19.5 C 41.910156 18.804688 42.421875 18.121094 42.914062 17.425781 C 42.953125 17.367188 42.945312 17.203125 42.902344 17.167969 C 42.34375 16.765625 41.777344 16.375 41.199219 15.96875 Z M 41.199219 15.96875 " fill-opacity="1" fill-rule="nonzero"/></g><g transform="matrix(1, 0, 0, 1, 42, 35)"><g clip-path="url(#7b2c40d23d)"><g fill="#eeede9" fill-opacity="1"><g transform="translate(0.564941, 14.351638)"><g><path d="M 3.90625 0.109375 C 3.164062 0.109375 2.535156 -0.0820312 2.015625 -0.46875 C 1.492188 -0.863281 1.101562 -1.367188 0.84375 -1.984375 C 0.59375 -2.609375 0.46875 -3.273438 0.46875 -3.984375 C 0.46875 -4.710938 0.601562 -5.390625 0.875 -6.015625 C 1.144531 -6.648438 1.550781 -7.160156 2.09375 -7.546875 C 2.632812 -7.929688 3.300781 -8.125 4.09375 -8.125 C 5 -8.125 5.738281 -7.867188 6.3125 -7.359375 C 6.894531 -6.859375 7.304688 -6.203125 7.546875 -5.390625 L 5.671875 -5.390625 C 5.578125 -5.742188 5.394531 -6.023438 5.125 -6.234375 C 4.863281 -6.453125 4.523438 -6.5625 4.109375 -6.5625 C 3.503906 -6.5625 3.039062 -6.320312 2.71875 -5.84375 C 2.40625 -5.363281 2.25 -4.726562 2.25 -3.9375 C 2.25 -3.101562 2.421875 -2.457031 2.765625 -2 C 3.109375 -1.539062 3.585938 -1.3125 4.203125 -1.3125 C 4.734375 -1.3125 5.132812 -1.472656 5.40625 -1.796875 C 5.6875 -2.117188 5.828125 -2.503906 5.828125 -2.953125 L 5.828125 -3.09375 L 4.34375 -3.09375 L 4.34375 -4.359375 L 7.578125 -4.359375 L 7.578125 0 L 6.265625 0 L 6.265625 -1.125 L 6.171875 -1.125 C 5.722656 -0.300781 4.96875 0.109375 3.90625 0.109375 Z M 3.90625 0.109375 "/></g></g></g><g fill="#eeede9" fill-opacity="1"><g transform="translate(7.809339, 14.351638)"><g><path d="M 3.3125 0.109375 C 2.675781 0.109375 2.140625 -0.0351562 1.703125 -0.328125 C 1.265625 -0.628906 0.941406 -1.015625 0.734375 -1.484375 C 0.523438 -1.960938 0.421875 -2.472656 0.421875 -3.015625 C 0.421875 -3.554688 0.523438 -4.0625 0.734375 -4.53125 C 0.941406 -5.007812 1.265625 -5.394531 1.703125 -5.6875 C 2.140625 -5.988281 2.679688 -6.140625 3.328125 -6.140625 C 4.179688 -6.140625 4.859375 -5.867188 5.359375 -5.328125 C 5.859375 -4.796875 6.109375 -4.023438 6.109375 -3.015625 L 6.109375 -2.53125 L 2.125 -2.53125 L 2.125 -2.4375 C 2.125 -2.125 2.234375 -1.851562 2.453125 -1.625 C 2.671875 -1.40625 2.945312 -1.296875 3.28125 -1.296875 C 3.53125 -1.296875 3.742188 -1.351562 3.921875 -1.46875 C 4.109375 -1.59375 4.242188 -1.75 4.328125 -1.9375 L 6.0625 -1.9375 C 5.90625 -1.34375 5.585938 -0.851562 5.109375 -0.46875 C 4.640625 -0.0820312 4.039062 0.109375 3.3125 0.109375 Z M 4.40625 -3.65625 C 4.40625 -4.070312 4.300781 -4.378906 4.09375 -4.578125 C 3.894531 -4.773438 3.628906 -4.875 3.296875 -4.875 C 2.953125 -4.875 2.679688 -4.765625 2.484375 -4.546875 C 2.285156 -4.335938 2.179688 -4.039062 2.171875 -3.65625 Z M 4.40625 -3.65625 "/></g></g></g><g fill="#eeede9" fill-opacity="1"><g transform="translate(13.427443, 14.351638)"><g><path d="M 0.59375 -6.015625 L 2.359375 -6.015625 L 2.359375 -5.140625 L 2.453125 -5.140625 C 2.585938 -5.421875 2.800781 -5.65625 3.09375 -5.84375 C 3.382812 -6.039062 3.738281 -6.140625 4.15625 -6.140625 C 4.9375 -6.140625 5.476562 -5.890625 5.78125 -5.390625 C 6.09375 -4.898438 6.25 -4.347656 6.25 -3.734375 L 6.25 0 L 4.46875 0 L 4.46875 -3.421875 C 4.46875 -3.816406 4.378906 -4.128906 4.203125 -4.359375 C 4.035156 -4.585938 3.78125 -4.703125 3.4375 -4.703125 C 3.070312 -4.703125 2.800781 -4.582031 2.625 -4.34375 C 2.445312 -4.101562 2.359375 -3.796875 2.359375 -3.421875 L 2.359375 0 L 0.59375 0 Z M 0.59375 -6.015625 "/></g></g></g><g fill="#eeede9" fill-opacity="1"><g transform="translate(19.318491, 14.351638)"><g><path d="M 0.796875 -6.015625 L 2.5625 -6.015625 L 2.5625 0 L 0.796875 0 Z M 1.671875 -7.015625 C 1.398438 -7.015625 1.171875 -7.109375 0.984375 -7.296875 C 0.804688 -7.484375 0.71875 -7.707031 0.71875 -7.96875 C 0.71875 -8.25 0.804688 -8.476562 0.984375 -8.65625 C 1.171875 -8.84375 1.398438 -8.9375 1.671875 -8.9375 C 1.941406 -8.9375 2.171875 -8.84375 2.359375 -8.65625 C 2.546875 -8.476562 2.640625 -8.25 2.640625 -7.96875 C 2.640625 -7.707031 2.546875 -7.484375 2.359375 -7.296875 C 2.171875 -7.109375 1.941406 -7.015625 1.671875 -7.015625 Z M 1.671875 -7.015625 "/></g></g></g><g fill="#eeede9" fill-opacity="1"><g transform="translate(21.763617, 14.351638)"><g><path d="M 3.3125 0.109375 C 2.675781 0.109375 2.140625 -0.0351562 1.703125 -0.328125 C 1.265625 -0.628906 0.941406 -1.015625 0.734375 -1.484375 C 0.523438 -1.960938 0.421875 -2.472656 0.421875 -3.015625 C 0.421875 -3.554688 0.523438 -4.0625 0.734375 -4.53125 C 0.941406 -5.007812 1.265625 -5.394531 1.703125 -5.6875 C 2.140625 -5.988281 2.679688 -6.140625 3.328125 -6.140625 C 4.179688 -6.140625 4.859375 -5.867188 5.359375 -5.328125 C 5.859375 -4.796875 6.109375 -4.023438 6.109375 -3.015625 L 6.109375 -2.53125 L 2.125 -2.53125 L 2.125 -2.4375 C 2.125 -2.125 2.234375 -1.851562 2.453125 -1.625 C 2.671875 -1.40625 2.945312 -1.296875 3.28125 -1.296875 C 3.53125 -1.296875 3.742188 -1.351562 3.921875 -1.46875 C 4.109375 -1.59375 4.242188 -1.75 4.328125 -1.9375 L 6.0625 -1.9375 C 5.90625 -1.34375 5.585938 -0.851562 5.109375 -0.46875 C 4.640625 -0.0820312 4.039062 0.109375 3.3125 0.109375 Z M 4.40625 -3.65625 C 4.40625 -4.070312 4.300781 -4.378906 4.09375 -4.578125 C 3.894531 -4.773438 3.628906 -4.875 3.296875 -4.875 C 2.953125 -4.875 2.679688 -4.765625 2.484375 -4.546875 C 2.285156 -4.335938 2.179688 -4.039062 2.171875 -3.65625 Z M 4.40625 -3.65625 "/></g></g></g><g clip-path="url(#e5e87036ce)"><g fill="#eeede9" fill-opacity="1"><g transform="translate(27.381722, 14.351638)"><g><path d="M 1.90625 0.109375 C 1.625 0.109375 1.390625 0.015625 1.203125 -0.171875 C 1.023438 -0.367188 0.9375 -0.601562 0.9375 -0.875 C 0.9375 -1.144531 1.023438 -1.375 1.203125 -1.5625 C 1.390625 -1.75 1.625 -1.84375 1.90625 -1.84375 C 2.1875 -1.84375 2.421875 -1.75 2.609375 -1.5625 C 2.796875 -1.375 2.890625 -1.144531 2.890625 -0.875 C 2.890625 -0.601562 2.796875 -0.367188 2.609375 -0.171875 C 2.421875 0.015625 2.1875 0.109375 1.90625 0.109375 Z M 1.90625 0.109375 "/></g></g></g></g></g></g><g transform="matrix(1, 0, 0, 1, 1, 40)"><g clip-path="url(#7098ca4638)"><g clip-path="url(#7032615e65)"><g fill="#eeede9" fill-opacity="1"><g transform="translate(0.807796, 9.271499)"><g><path d="M 8.546875 -6.53125 C 8.546875 -6.019531 8.34375 -5.539062 7.9375 -5.09375 C 7.53125 -4.644531 6.914062 -4.332031 6.09375 -4.15625 L 7.453125 -1.28125 C 7.628906 -0.914062 7.8125 -0.648438 8 -0.484375 C 8.1875 -0.316406 8.460938 -0.226562 8.828125 -0.21875 L 8.75 0 L 6.78125 0 L 4.859375 -4.078125 C 4.546875 -4.097656 4.347656 -4.117188 4.265625 -4.140625 C 4.234375 -4.140625 4.15625 -4.144531 4.03125 -4.15625 L 3.296875 -1.625 C 3.273438 -1.570312 3.242188 -1.457031 3.203125 -1.28125 C 3.160156 -1.113281 3.140625 -0.972656 3.140625 -0.859375 C 3.140625 -0.597656 3.226562 -0.425781 3.40625 -0.34375 C 3.59375 -0.257812 3.832031 -0.21875 4.125 -0.21875 L 4.0625 0 L 0.3125 0 L 0.375 -0.21875 C 0.84375 -0.21875 1.1875 -0.273438 1.40625 -0.390625 C 1.625 -0.515625 1.789062 -0.773438 1.90625 -1.171875 L 3.46875 -6.578125 C 3.550781 -6.867188 3.609375 -7.082031 3.640625 -7.21875 C 3.671875 -7.351562 3.6875 -7.453125 3.6875 -7.515625 C 3.6875 -7.785156 3.59375 -7.957031 3.40625 -8.03125 C 3.226562 -8.113281 2.976562 -8.15625 2.65625 -8.15625 L 2.71875 -8.390625 L 5.6875 -8.390625 C 6.613281 -8.390625 7.320312 -8.21875 7.8125 -7.875 C 8.300781 -7.53125 8.546875 -7.082031 8.546875 -6.53125 Z M 5.09375 -7.890625 L 4.140625 -4.515625 C 4.378906 -4.472656 4.640625 -4.453125 4.921875 -4.453125 C 5.421875 -4.453125 5.835938 -4.550781 6.171875 -4.75 C 6.515625 -4.957031 6.765625 -5.21875 6.921875 -5.53125 C 7.085938 -5.851562 7.171875 -6.191406 7.171875 -6.546875 C 7.171875 -7.003906 7.03125 -7.347656 6.75 -7.578125 C 6.476562 -7.816406 6.125 -7.9375 5.6875 -7.9375 C 5.550781 -7.9375 5.351562 -7.921875 5.09375 -7.890625 Z M 5.09375 -7.890625 "/></g></g></g></g><g fill="#eeede9" fill-opacity="1"><g transform="translate(8.695158, 9.271499)"><g><path d="M 4.03125 -5.671875 C 4.375 -5.671875 4.660156 -5.582031 4.890625 -5.40625 C 5.128906 -5.238281 5.25 -5.019531 5.25 -4.75 C 5.25 -4.476562 5.125 -4.171875 4.875 -3.828125 C 4.632812 -3.492188 4.234375 -3.195312 3.671875 -2.9375 C 3.109375 -2.675781 2.398438 -2.535156 1.546875 -2.515625 C 1.492188 -2.347656 1.46875 -2.144531 1.46875 -1.90625 C 1.46875 -1.394531 1.601562 -1.023438 1.875 -0.796875 C 2.144531 -0.566406 2.445312 -0.453125 2.78125 -0.453125 C 3.332031 -0.453125 3.894531 -0.734375 4.46875 -1.296875 L 4.640625 -1.140625 C 3.742188 -0.273438 2.882812 0.15625 2.0625 0.15625 C 1.71875 0.15625 1.421875 0.0703125 1.171875 -0.09375 C 0.921875 -0.269531 0.726562 -0.492188 0.59375 -0.765625 C 0.46875 -1.046875 0.40625 -1.328125 0.40625 -1.609375 C 0.40625 -2.191406 0.570312 -2.800781 0.90625 -3.4375 C 1.25 -4.070312 1.695312 -4.601562 2.25 -5.03125 C 2.8125 -5.457031 3.40625 -5.671875 4.03125 -5.671875 Z M 1.609375 -2.75 C 2.171875 -2.789062 2.628906 -2.882812 2.984375 -3.03125 C 3.316406 -3.175781 3.585938 -3.367188 3.796875 -3.609375 C 4.015625 -3.847656 4.164062 -4.078125 4.25 -4.296875 C 4.34375 -4.523438 4.390625 -4.71875 4.390625 -4.875 C 4.390625 -5.007812 4.335938 -5.132812 4.234375 -5.25 C 4.140625 -5.375 3.992188 -5.4375 3.796875 -5.4375 C 3.460938 -5.4375 3.140625 -5.28125 2.828125 -4.96875 C 2.523438 -4.664062 2.265625 -4.300781 2.046875 -3.875 C 1.828125 -3.457031 1.679688 -3.082031 1.609375 -2.75 Z M 1.609375 -2.75 "/></g></g></g><g fill="#eeede9" fill-opacity="1"><g transform="translate(13.26609, 9.271499)"><g><path d="M 3.140625 -8.15625 C 3.316406 -8.15625 3.46875 -8.09375 3.59375 -7.96875 C 3.71875 -7.84375 3.78125 -7.703125 3.78125 -7.546875 C 3.78125 -7.367188 3.71875 -7.21875 3.59375 -7.09375 C 3.46875 -6.96875 3.316406 -6.90625 3.140625 -6.90625 C 2.960938 -6.90625 2.8125 -6.96875 2.6875 -7.09375 C 2.570312 -7.21875 2.515625 -7.367188 2.515625 -7.546875 C 2.515625 -7.703125 2.570312 -7.84375 2.6875 -7.96875 C 2.8125 -8.09375 2.960938 -8.15625 3.140625 -8.15625 Z M 1.84375 -0.671875 C 1.675781 -0.0664062 1.492188 0.457031 1.296875 0.90625 C 1.109375 1.363281 0.828125 1.769531 0.453125 2.125 C 0.078125 2.476562 -0.394531 2.65625 -0.96875 2.65625 C -1.21875 2.65625 -1.410156 2.597656 -1.546875 2.484375 C -1.691406 2.367188 -1.765625 2.226562 -1.765625 2.0625 C -1.765625 1.914062 -1.710938 1.796875 -1.609375 1.703125 C -1.515625 1.609375 -1.394531 1.5625 -1.25 1.5625 C -1.144531 1.5625 -1.050781 1.585938 -0.96875 1.640625 C -0.894531 1.703125 -0.859375 1.78125 -0.859375 1.875 C -0.859375 1.945312 -0.898438 2.023438 -0.984375 2.109375 C -1.066406 2.191406 -1.109375 2.242188 -1.109375 2.265625 C -1.109375 2.296875 -1.085938 2.320312 -1.046875 2.34375 C -1.015625 2.375 -0.960938 2.390625 -0.890625 2.390625 C -0.722656 2.390625 -0.566406 2.359375 -0.421875 2.296875 C -0.285156 2.242188 -0.175781 2.164062 -0.09375 2.0625 C 0.0703125 1.882812 0.21875 1.613281 0.34375 1.25 C 0.46875 0.882812 0.625 0.367188 0.8125 -0.296875 L 0.96875 -0.859375 L 1.921875 -4.171875 C 2.003906 -4.484375 2.046875 -4.695312 2.046875 -4.8125 C 2.046875 -5.0625 1.921875 -5.1875 1.671875 -5.1875 C 1.546875 -5.1875 1.359375 -5.164062 1.109375 -5.125 L 1.109375 -5.34375 L 3.046875 -5.671875 L 3.265625 -5.671875 Z M 1.84375 -0.671875 "/></g></g></g><g fill="#eeede9" fill-opacity="1"><g transform="translate(15.762699, 9.271499)"><g><path d="M 4.03125 -5.671875 C 4.375 -5.671875 4.660156 -5.582031 4.890625 -5.40625 C 5.128906 -5.238281 5.25 -5.019531 5.25 -4.75 C 5.25 -4.476562 5.125 -4.171875 4.875 -3.828125 C 4.632812 -3.492188 4.234375 -3.195312 3.671875 -2.9375 C 3.109375 -2.675781 2.398438 -2.535156 1.546875 -2.515625 C 1.492188 -2.347656 1.46875 -2.144531 1.46875 -1.90625 C 1.46875 -1.394531 1.601562 -1.023438 1.875 -0.796875 C 2.144531 -0.566406 2.445312 -0.453125 2.78125 -0.453125 C 3.332031 -0.453125 3.894531 -0.734375 4.46875 -1.296875 L 4.640625 -1.140625 C 3.742188 -0.273438 2.882812 0.15625 2.0625 0.15625 C 1.71875 0.15625 1.421875 0.0703125 1.171875 -0.09375 C 0.921875 -0.269531 0.726562 -0.492188 0.59375 -0.765625 C 0.46875 -1.046875 0.40625 -1.328125 0.40625 -1.609375 C 0.40625 -2.191406 0.570312 -2.800781 0.90625 -3.4375 C 1.25 -4.070312 1.695312 -4.601562 2.25 -5.03125 C 2.8125 -5.457031 3.40625 -5.671875 4.03125 -5.671875 Z M 1.609375 -2.75 C 2.171875 -2.789062 2.628906 -2.882812 2.984375 -3.03125 C 3.316406 -3.175781 3.585938 -3.367188 3.796875 -3.609375 C 4.015625 -3.847656 4.164062 -4.078125 4.25 -4.296875 C 4.34375 -4.523438 4.390625 -4.71875 4.390625 -4.875 C 4.390625 -5.007812 4.335938 -5.132812 4.234375 -5.25 C 4.140625 -5.375 3.992188 -5.4375 3.796875 -5.4375 C 3.460938 -5.4375 3.140625 -5.28125 2.828125 -4.96875 C 2.523438 -4.664062 2.265625 -4.300781 2.046875 -3.875 C 1.828125 -3.457031 1.679688 -3.082031 1.609375 -2.75 Z M 1.609375 -2.75 "/></g></g></g><g fill="#eeede9" fill-opacity="1"><g transform="translate(20.333632, 9.271499)"><g><path d="M 4.15625 -5.671875 C 4.457031 -5.671875 4.71875 -5.582031 4.9375 -5.40625 C 5.164062 -5.238281 5.28125 -5.003906 5.28125 -4.703125 C 5.28125 -4.460938 5.210938 -4.265625 5.078125 -4.109375 C 4.941406 -3.953125 4.796875 -3.875 4.640625 -3.875 C 4.515625 -3.875 4.410156 -3.914062 4.328125 -4 C 4.253906 -4.082031 4.21875 -4.1875 4.21875 -4.3125 C 4.21875 -4.414062 4.234375 -4.492188 4.265625 -4.546875 C 4.304688 -4.609375 4.367188 -4.675781 4.453125 -4.75 C 4.535156 -4.820312 4.585938 -4.875 4.609375 -4.90625 C 4.640625 -4.945312 4.65625 -5 4.65625 -5.0625 C 4.65625 -5.195312 4.597656 -5.296875 4.484375 -5.359375 C 4.378906 -5.421875 4.265625 -5.453125 4.140625 -5.453125 C 3.703125 -5.453125 3.289062 -5.242188 2.90625 -4.828125 C 2.519531 -4.410156 2.207031 -3.910156 1.96875 -3.328125 C 1.738281 -2.742188 1.625 -2.238281 1.625 -1.8125 C 1.625 -1.375 1.726562 -1.019531 1.9375 -0.75 C 2.15625 -0.476562 2.441406 -0.34375 2.796875 -0.34375 C 3.128906 -0.34375 3.445312 -0.445312 3.75 -0.65625 C 4.0625 -0.863281 4.320312 -1.109375 4.53125 -1.390625 L 4.71875 -1.265625 C 3.9375 -0.316406 3.109375 0.15625 2.234375 0.15625 C 1.722656 0.15625 1.320312 -0.0234375 1.03125 -0.390625 C 0.738281 -0.753906 0.59375 -1.179688 0.59375 -1.671875 C 0.59375 -2.273438 0.765625 -2.890625 1.109375 -3.515625 C 1.453125 -4.140625 1.898438 -4.65625 2.453125 -5.0625 C 3.015625 -5.46875 3.582031 -5.671875 4.15625 -5.671875 Z M 4.15625 -5.671875 "/></g></g></g><g fill="#eeede9" fill-opacity="1"><g transform="translate(24.904564, 9.271499)"><g><path d="M 3.375 -7.0625 L 3.609375 -7.0625 L 3.1875 -5.546875 L 4.046875 -5.546875 L 3.953125 -5.15625 L 3.0625 -5.15625 L 1.96875 -1.296875 C 1.863281 -0.960938 1.8125 -0.738281 1.8125 -0.625 C 1.8125 -0.46875 1.875 -0.390625 2 -0.390625 C 2.101562 -0.390625 2.234375 -0.445312 2.390625 -0.5625 C 2.554688 -0.6875 2.707031 -0.820312 2.84375 -0.96875 C 2.976562 -1.125 3.050781 -1.21875 3.0625 -1.25 L 3.296875 -1.25 C 2.972656 -0.738281 2.648438 -0.375 2.328125 -0.15625 C 2.003906 0.0507812 1.707031 0.15625 1.4375 0.15625 C 1.300781 0.15625 1.171875 0.101562 1.046875 0 C 0.929688 -0.113281 0.875 -0.285156 0.875 -0.515625 C 0.875 -0.660156 0.925781 -0.921875 1.03125 -1.296875 L 2.140625 -5.15625 L 1.203125 -5.15625 L 1.296875 -5.421875 C 1.785156 -5.503906 2.179688 -5.691406 2.484375 -5.984375 C 2.796875 -6.285156 3.09375 -6.644531 3.375 -7.0625 Z M 3.375 -7.0625 "/></g></g></g><g fill="#eeede9" fill-opacity="1"><g transform="translate(28.171283, 9.271499)"><g><path d="M 2.953125 -8.15625 C 3.128906 -8.15625 3.28125 -8.09375 3.40625 -7.96875 C 3.53125 -7.84375 3.59375 -7.703125 3.59375 -7.546875 C 3.59375 -7.367188 3.53125 -7.21875 3.40625 -7.09375 C 3.28125 -6.96875 3.128906 -6.90625 2.953125 -6.90625 C 2.785156 -6.90625 2.640625 -6.96875 2.515625 -7.09375 C 2.390625 -7.21875 2.328125 -7.367188 2.328125 -7.546875 C 2.328125 -7.703125 2.390625 -7.84375 2.515625 -7.96875 C 2.640625 -8.09375 2.785156 -8.15625 2.953125 -8.15625 Z M 1.734375 -1.109375 C 1.671875 -0.890625 1.640625 -0.738281 1.640625 -0.65625 C 1.640625 -0.519531 1.707031 -0.453125 1.84375 -0.453125 C 1.945312 -0.453125 2.085938 -0.53125 2.265625 -0.6875 C 2.441406 -0.84375 2.625 -1.066406 2.8125 -1.359375 L 3.015625 -1.234375 C 2.742188 -0.816406 2.4375 -0.476562 2.09375 -0.21875 C 1.757812 0.03125 1.453125 0.15625 1.171875 0.15625 C 1.003906 0.15625 0.875 0.101562 0.78125 0 C 0.695312 -0.113281 0.65625 -0.265625 0.65625 -0.453125 C 0.65625 -0.578125 0.679688 -0.726562 0.734375 -0.90625 L 1.734375 -4.328125 C 1.785156 -4.535156 1.8125 -4.675781 1.8125 -4.75 C 1.8125 -4.863281 1.773438 -4.960938 1.703125 -5.046875 C 1.628906 -5.128906 1.515625 -5.171875 1.359375 -5.171875 C 1.304688 -5.171875 1.148438 -5.148438 0.890625 -5.109375 L 0.953125 -5.3125 L 2.84375 -5.671875 L 3.0625 -5.671875 Z M 1.734375 -1.109375 "/></g></g></g><g fill="#eeede9" fill-opacity="1"><g transform="translate(30.667892, 9.271499)"><g><path d="M 4 -5.671875 C 4.300781 -5.671875 4.582031 -5.59375 4.84375 -5.4375 C 5.101562 -5.28125 5.3125 -5.054688 5.46875 -4.765625 C 5.632812 -4.484375 5.71875 -4.160156 5.71875 -3.796875 C 5.71875 -3.066406 5.53125 -2.398438 5.15625 -1.796875 C 4.789062 -1.191406 4.328125 -0.710938 3.765625 -0.359375 C 3.210938 -0.015625 2.679688 0.15625 2.171875 0.15625 C 1.765625 0.15625 1.429688 0.0507812 1.171875 -0.15625 C 0.921875 -0.375 0.738281 -0.628906 0.625 -0.921875 C 0.507812 -1.222656 0.453125 -1.507812 0.453125 -1.78125 C 0.453125 -2.34375 0.625 -2.925781 0.96875 -3.53125 C 1.3125 -4.144531 1.757812 -4.65625 2.3125 -5.0625 C 2.863281 -5.46875 3.425781 -5.671875 4 -5.671875 Z M 1.46875 -1.296875 C 1.46875 -0.972656 1.550781 -0.703125 1.71875 -0.484375 C 1.894531 -0.265625 2.117188 -0.15625 2.390625 -0.15625 C 2.648438 -0.15625 2.894531 -0.234375 3.125 -0.390625 C 3.351562 -0.546875 3.546875 -0.753906 3.703125 -1.015625 C 4.003906 -1.515625 4.253906 -2.066406 4.453125 -2.671875 C 4.648438 -3.285156 4.75 -3.796875 4.75 -4.203125 C 4.75 -5.015625 4.441406 -5.421875 3.828125 -5.421875 C 3.390625 -5.421875 2.988281 -5.175781 2.625 -4.6875 C 2.269531 -4.207031 1.988281 -3.632812 1.78125 -2.96875 C 1.570312 -2.3125 1.46875 -1.753906 1.46875 -1.296875 Z M 1.46875 -1.296875 "/></g></g></g><g clip-path="url(#730cf70315)"><g fill="#eeede9" fill-opacity="1"><g transform="translate(36.008934, 9.271499)"><g><path d="M 1.953125 -2.796875 C 2.472656 -3.660156 3 -4.351562 3.53125 -4.875 C 4.0625 -5.40625 4.550781 -5.671875 5 -5.671875 C 5.195312 -5.671875 5.359375 -5.609375 5.484375 -5.484375 C 5.609375 -5.359375 5.671875 -5.175781 5.671875 -4.9375 C 5.671875 -4.707031 5.613281 -4.382812 5.5 -3.96875 L 4.71875 -1.28125 C 4.644531 -1.007812 4.609375 -0.828125 4.609375 -0.734375 C 4.609375 -0.660156 4.625 -0.601562 4.65625 -0.5625 C 4.695312 -0.53125 4.738281 -0.515625 4.78125 -0.515625 C 4.882812 -0.515625 5.035156 -0.625 5.234375 -0.84375 C 5.441406 -1.0625 5.585938 -1.234375 5.671875 -1.359375 L 5.84375 -1.203125 C 5.59375 -0.847656 5.304688 -0.53125 4.984375 -0.25 C 4.671875 0.0195312 4.375 0.15625 4.09375 0.15625 C 3.957031 0.15625 3.84375 0.101562 3.75 0 C 3.65625 -0.101562 3.609375 -0.242188 3.609375 -0.421875 C 3.609375 -0.609375 3.65625 -0.851562 3.75 -1.15625 L 4.59375 -4.125 C 4.601562 -4.144531 4.625 -4.210938 4.65625 -4.328125 C 4.6875 -4.441406 4.703125 -4.550781 4.703125 -4.65625 C 4.703125 -4.757812 4.671875 -4.84375 4.609375 -4.90625 C 4.554688 -4.96875 4.5 -5 4.4375 -5 C 4.25 -5 3.972656 -4.835938 3.609375 -4.515625 C 3.242188 -4.191406 2.894531 -3.785156 2.5625 -3.296875 C 2.269531 -2.890625 2.035156 -2.515625 1.859375 -2.171875 C 1.679688 -1.828125 1.519531 -1.410156 1.375 -0.921875 C 1.269531 -0.566406 1.1875 -0.257812 1.125 0 L 0.15625 0 L 1.34375 -4.140625 C 1.351562 -4.160156 1.378906 -4.265625 1.421875 -4.453125 C 1.472656 -4.640625 1.5 -4.773438 1.5 -4.859375 C 1.5 -4.953125 1.460938 -5.023438 1.390625 -5.078125 C 1.328125 -5.140625 1.238281 -5.171875 1.125 -5.171875 C 1 -5.171875 0.832031 -5.160156 0.625 -5.140625 L 0.625 -5.359375 L 2.515625 -5.671875 L 2.75 -5.671875 L 1.921875 -2.8125 Z M 1.953125 -2.796875 "/></g></g></g></g></g></g></svg>