<svg width="520" height="520" viewBox="0 0 520 520" fill="none" xmlns="http://www.w3.org/2000/svg">
<path d="M276.432 237.406C275.47 237.406 274.404 238.238 274.586 239.33C274.827 239.972 275.29 240.506 275.891 240.835C276.492 241.165 277.192 241.267 277.862 241.124C280.02 240.37 278.85 237.016 276.432 237.406ZM277.706 240.63C277.247 240.634 276.792 240.533 276.378 240.335C275.963 240.137 275.6 239.846 275.314 239.486C274.638 238.186 277.602 237.224 278.33 239.044C278.453 239.337 278.457 239.667 278.34 239.964C278.224 240.26 277.996 240.499 277.706 240.63ZM364.494 326.95C364.494 326.612 363.922 326.586 363.922 326.95C363.922 327.704 364.39 331.994 364.26 332.15C363.268 332.602 362.253 333.001 361.218 333.346C360.854 333.528 361.218 334.022 361.478 333.944C362.309 333.783 363.127 333.557 363.922 333.268C364.598 333.034 365.352 332.826 365.456 331.968C365.508 331.5 364.52 327.86 364.494 326.95ZM351 344.5C350.064 350.246 354.51 352.82 358.384 346.32C358.795 345.65 359.059 344.9 359.158 344.119C359.256 343.339 359.188 342.547 358.956 341.796C357.89 338.962 351.78 339.274 351 344.5ZM74.3344 161.928C93.0284 104 105.326 96.0439 113.178 66.3519C113.175 66.2862 113.151 66.2233 113.11 66.1721C113.069 66.1209 113.012 66.084 112.949 66.0667C112.885 66.0494 112.818 66.0526 112.757 66.0758C112.695 66.099 112.643 66.141 112.606 66.1959C104.806 94.9519 84.5524 120.094 73.6064 161.746C73.5944 161.794 73.592 161.843 73.5992 161.892C73.6065 161.941 73.6233 161.988 73.6486 162.03C73.674 162.072 73.7074 162.109 73.747 162.138C73.7866 162.168 73.8316 162.189 73.8794 162.201C73.9272 162.213 73.9768 162.215 74.0256 162.208C74.0743 162.201 74.1212 162.184 74.1634 162.159C74.2057 162.133 74.2425 162.1 74.2718 162.06C74.3012 162.021 74.3224 161.976 74.3344 161.928ZM187.2 98.3579C183.696 119.546 178.479 140.414 171.6 160.758C171.418 161.252 172.172 161.434 172.354 160.992C179.75 140.759 184.979 119.798 187.954 98.4619C187.876 98.0979 187.2 97.9159 187.2 98.3579ZM258.31 213.486C263.979 198.584 267.014 182.81 267.28 166.868C267.26 166.797 267.218 166.735 267.159 166.691C267.1 166.647 267.029 166.623 266.955 166.623C266.882 166.623 266.81 166.647 266.752 166.691C266.693 166.735 266.651 166.797 266.63 166.868C266.205 182.704 263.156 198.361 257.608 213.2C257.4 213.772 258.154 213.928 258.31 213.486ZM400.192 182.988C399.93 194.977 400.871 206.962 403 218.764C403.023 218.853 403.075 218.933 403.148 218.989C403.221 219.046 403.311 219.077 403.403 219.077C403.496 219.077 403.586 219.046 403.659 218.989C403.731 218.933 403.783 218.853 403.806 218.764C402.61 206.83 400.972 195.104 400.79 183.092C400.773 183.031 400.738 182.977 400.691 182.935C400.644 182.892 400.586 182.864 400.524 182.853C400.462 182.843 400.397 182.849 400.339 182.873C400.28 182.897 400.23 182.937 400.192 182.988ZM470.6 225.862C461.24 200.148 455.78 180.96 456.04 151.918C456.021 151.853 455.982 151.797 455.928 151.757C455.874 151.717 455.809 151.695 455.741 151.695C455.674 151.695 455.609 151.717 455.555 151.757C455.501 151.797 455.462 151.853 455.442 151.918C455 176.8 459.03 203.528 469.742 226.2C469.924 226.642 470.6 226.33 470.6 225.862ZM322.4 56.6539C322.894 55.8479 322.894 54.3399 322.036 54.5739C321.178 54.8079 321.23 55.4059 321.23 56.1079C321.211 56.2508 321.238 56.3962 321.307 56.5228C321.376 56.6495 321.484 56.7507 321.614 56.8117C321.745 56.8727 321.892 56.8903 322.033 56.8619C322.175 56.8335 322.303 56.7606 322.4 56.6539ZM352.898 73.2419C352.898 72.6439 352.378 71.9679 351.728 72.2019C351.463 72.2748 351.238 72.4498 351.101 72.6886C350.965 72.9273 350.929 73.2104 351 73.4759C351.081 73.6792 351.227 73.8501 351.415 73.9617C351.603 74.0733 351.823 74.1194 352.04 74.0926C352.257 74.0658 352.459 73.9678 352.614 73.8138C352.77 73.6599 352.87 73.4587 352.898 73.2419ZM496.808 364.546C488.906 363.693 480.966 363.242 473.018 363.194C469.716 363.194 464.828 362.856 461.968 365.118C464.048 352.482 450.086 340.418 431.314 348.218C427.428 349.835 423.801 352.016 420.55 354.692C418.047 356.896 416.081 359.644 414.804 362.726C402.818 354.666 389.818 368.212 396.604 375.024C391.002 373.802 385.202 373.802 379.6 375.024C375.778 375.83 368.628 377.988 369.2 383.24C369.772 388.492 377.286 388.44 381.212 388.648C412.23 390.442 446.732 391.248 477.412 386.048C480.744 385.888 483.959 384.769 486.668 382.824C487.625 381.913 488.23 380.695 488.378 379.383C488.525 378.07 488.205 376.748 487.474 375.648C490.611 375.469 493.725 375.017 496.782 374.296C499.564 373.62 504.01 372.892 506.038 370.578C510.458 365.482 498.94 364.832 496.808 364.546ZM494.624 373.698C486.564 375.388 483.444 373.854 483.444 374.79C483.444 375.726 489.918 377.65 485.914 382.122C482.924 385.502 470.86 386.178 467.116 386.646C460.694 387.478 454.246 388.05 447.85 388.44C439.764 388.908 378.196 388.856 372.97 386.152C368.81 384.02 370.552 379.912 373.958 377.988C378.664 375.388 389.558 373.802 399.958 377.156C400.686 377.39 400.946 376.298 400.27 376.038C394.602 373.906 394.862 368.68 398.684 364.858C403.364 360.178 409.942 360.984 415.194 364.364C416.52 365.144 416.312 361.27 418.236 358.93C424.025 352.083 432.268 347.78 441.194 346.944C455.858 345.982 463.71 357.578 460.356 367.224C460.148 367.796 461.084 368.186 461.344 367.64C463.242 363.688 469.352 364.182 473.044 364.26C477.724 364.26 496.184 365.326 500.734 366.054C506.454 367.172 508.118 370.89 494.624 373.698ZM234.494 452.79C230.793 450.98 226.755 449.962 222.638 449.8C216.762 449.124 210.912 448.526 205.01 448.162C192.538 447.284 180.011 447.589 167.596 449.072C162.63 449.904 165.256 450.58 166.998 446.472C169.052 441.74 166.426 436.228 162.578 433.264C153.4 426.4 138.892 429 129.064 433.914C129.934 431.972 130.258 429.83 130.002 427.719C129.745 425.607 128.918 423.605 127.608 421.928C123.63 416.52 116.116 414.128 109.772 413.348C93.5224 411.138 84.6304 421.72 86.2164 431.366C69.3684 426.322 64.3244 438.776 70.0704 444.366C65.4385 443.127 60.5557 443.181 55.9524 444.522C52.7024 445.666 50.1804 449.072 51.4284 452.322C48.0484 451.074 43.2644 452.088 40.1184 452.608C33.669 453.661 27.3676 455.477 21.3464 458.016C19.1884 458.926 12.8964 461.136 13.0004 464.334C13.0004 468.364 53.2224 469.534 66.1704 467.376C64.7924 470.496 67.6264 472.576 71.0324 473.616C82.5735 476.341 94.6953 475.114 105.456 470.132C110.11 468.026 112.502 471.588 131.69 474.396C141.449 475.687 151.362 475.185 160.94 472.914C164.008 472.238 168.584 471.432 170.612 468.754C171.107 468.152 171.406 467.413 171.466 466.636C171.526 465.859 171.346 465.083 170.95 464.412C176.673 464.776 182.413 464.776 188.136 464.412C195.65 464.412 203.138 464.412 210.652 463.97C216.84 463.528 235.3 463.502 237.302 458.458C238.16 455.962 236.236 453.83 234.494 452.79ZM230.282 460.59C221.468 462.54 177.476 464.178 169.208 462.774C169.065 462.754 168.919 462.788 168.798 462.868C168.677 462.948 168.589 463.069 168.551 463.209C168.513 463.349 168.527 463.498 168.59 463.628C168.654 463.759 168.763 463.862 168.896 463.918C171.782 465.01 169.572 468.026 168.298 468.936C167.57 469.482 160.498 472.784 148.46 473.668C138.404 474.184 128.328 473.149 118.586 470.6C114.954 469.473 111.266 468.536 107.536 467.792C103.649 469.847 99.5409 471.452 95.2904 472.576C87.8024 474.292 63.2324 474.994 67.6524 467.038C68.4324 466.908 67.9384 465.374 67.1844 465.998C54.3144 468.286 21.2684 466.986 16.4324 465.036C12.7664 463.528 15.3144 462.436 17.2384 461.136C23.0281 457.942 29.2837 455.679 35.7764 454.428C40.0924 453.44 48.5684 450.97 52.5984 453.96C53.0664 454.324 53.5864 453.57 53.1964 453.18C50.2064 450.008 53.5084 446.264 56.6544 445.38C63.4525 444.065 70.4873 444.779 76.8824 447.434C77.4024 447.642 77.6364 446.758 77.1164 446.628C71.3444 444.704 68.9784 442.104 68.9004 439.348C68.8966 438.012 69.2579 436.7 69.9452 435.555C70.6325 434.409 71.6198 433.473 72.8004 432.848C77.0904 430.248 82.3164 431.34 86.8144 432.848C86.9166 432.868 87.0223 432.862 87.1217 432.831C87.2212 432.8 87.3112 432.744 87.3836 432.669C87.456 432.594 87.5084 432.502 87.5362 432.402C87.5639 432.301 87.566 432.195 87.5424 432.094C87.0263 429.54 87.2404 426.893 88.1601 424.456C89.0799 422.019 90.668 419.89 92.7424 418.314C100.802 411.554 115.934 414.206 123.292 419.38C128.206 422.89 131.092 429.936 126.906 435.162C126.49 435.656 126.906 436.514 127.66 436.124C135.659 431.271 145.157 429.514 154.362 431.184C166.062 433.602 168.922 443.04 164.216 448.5C162.812 449.956 159.926 450.19 159.848 450.71C159.484 452.946 172.224 448.604 189.93 448.942C201.28 449.133 212.613 449.897 223.886 451.23C227.37 451.646 234.286 452.14 236.028 455.806C237.458 458.978 232.414 460.2 230.282 460.538V460.59ZM346.97 109.2C344.37 109.902 340.652 111.332 339.924 114.4C339.326 117 341.432 118.118 343.59 118.456C351.156 119.652 363.012 118.144 366.028 118.092C368.223 118.3 370.353 118.945 372.294 119.99C376.695 121.579 381.389 122.19 386.049 121.782C390.71 121.373 395.226 119.954 399.282 117.624C401.284 116.454 402.506 115.024 404.898 115.024C409.89 114.738 414.804 115.024 419.77 114.192C423.67 113.594 429.364 113.152 432.614 110.734C432.997 110.506 433.328 110.2 433.584 109.836C433.839 109.471 434.015 109.056 434.099 108.619C434.182 108.181 434.172 107.731 434.068 107.298C433.965 106.865 433.771 106.458 433.498 106.106C431.314 103.35 420.004 101.842 407.992 101.972C405.392 101.972 398.788 102.778 398.788 102.778C396.604 90.7919 381.68 89.9339 376.766 100.178C375.514 99.674 374.152 99.5038 372.814 99.6839C369.746 100.048 368.03 104.156 368.368 106.704C366.013 106.721 363.757 107.653 362.076 109.304C360.62 110.734 360.178 110.188 358.28 109.564C354.625 108.353 350.696 108.227 346.97 109.2ZM360.958 111.566C361.064 111.619 361.185 111.632 361.299 111.603C361.414 111.575 361.514 111.506 361.582 111.41C362.719 109.563 364.534 108.234 366.639 107.71C368.743 107.185 370.969 107.505 372.84 108.602C373.282 108.862 373.646 108.186 373.204 107.926C371.984 107.193 370.617 106.74 369.2 106.6C369.2 101.868 372.944 98.7999 377 101.4C377.065 101.439 377.138 101.462 377.213 101.468C377.289 101.474 377.364 101.463 377.435 101.436C377.505 101.408 377.568 101.365 377.619 101.309C377.67 101.253 377.707 101.186 377.728 101.114C378.447 98.8562 379.914 96.9114 381.888 95.6015C383.862 94.2915 386.225 93.6948 388.584 93.9101C390.943 94.1254 393.159 95.1398 394.863 96.7855C396.567 98.4312 397.659 100.609 397.956 102.96C397.989 103.065 398.055 103.157 398.144 103.222C398.233 103.288 398.34 103.323 398.45 103.324C405.29 102.561 412.19 102.5 419.042 103.142C426.842 103.688 437.814 105.742 431.392 109.954C426.66 113.178 413.322 113.802 406.796 113.698C403.832 113.698 403.494 113.23 401.284 114.842C397.863 117.296 393.976 119.023 389.862 119.917C385.749 120.811 381.495 120.854 377.364 120.042C374.568 119.319 371.837 118.363 369.2 117.182C367.138 116.713 364.997 116.713 362.934 117.182C359.476 117.442 345.488 118.248 343.07 117.182C337.35 114.582 344.318 111.046 345.826 110.5C348.284 109.642 350.888 109.283 353.487 109.444C356.085 109.604 358.625 110.282 360.958 111.436V111.566ZM172.172 68.7179C175.444 68.5219 178.672 67.8744 181.766 66.7939C181.766 69.9139 190.814 73.0859 199.264 69.3939L202.8 67.5999C205.173 68.324 207.586 68.9057 210.028 69.3419C219.326 70.6029 228.781 70.0108 237.848 67.5999C240.214 66.8719 243.724 65.9879 244.478 63.2059C244.669 62.0862 244.496 60.935 243.987 59.9201C243.477 58.9052 242.656 58.0796 241.644 57.5639C238.861 56.4424 235.763 56.3777 232.934 57.3819C231.187 54.33 228.428 51.9848 225.134 50.7519C222.531 49.9342 219.759 49.8136 217.095 50.4021C214.43 50.9906 211.967 52.2677 209.95 54.1059C208.735 52.342 207.043 50.9604 205.072 50.1225C203.101 49.2846 200.932 49.025 198.819 49.374C196.706 49.723 194.736 50.6662 193.139 52.0935C191.542 53.5207 190.384 55.373 189.8 57.4339C188.803 57.4928 187.828 57.7536 186.934 58.2005C186.04 58.6475 185.246 59.2712 184.6 60.0339C179.716 58.4494 174.508 58.1362 169.468 59.1239C166.712 59.6959 161.668 60.8659 159.926 63.5959C156.702 69.0039 169.728 68.8739 172.172 68.7179ZM184.938 61.0999C185.026 61.1246 185.118 61.1203 185.203 61.0874C185.287 61.0546 185.359 60.995 185.406 60.9179C185.939 60.1905 186.61 59.5753 187.38 59.1072C188.15 58.6391 189.006 58.3273 189.896 58.1897C190.787 58.0521 191.697 58.0913 192.572 58.3051C193.448 58.5189 194.273 58.9032 195 59.4359C195.26 59.6439 195.624 59.1759 195.364 58.9679C194.144 58.0236 192.667 57.4707 191.126 57.3819C191.818 55.5931 192.99 54.0303 194.514 52.8662C196.038 51.7021 197.854 50.9821 199.762 50.7857C201.67 50.5893 203.594 50.9241 205.324 51.7532C207.053 52.5824 208.519 53.8735 209.56 55.4839C209.609 55.5484 209.672 55.6009 209.744 55.637C209.816 55.6731 209.896 55.6919 209.976 55.6919C210.057 55.6919 210.137 55.6731 210.209 55.637C210.281 55.6009 210.344 55.5484 210.392 55.4839C212.779 52.8366 216.119 51.2455 219.678 51.0602C223.237 50.8749 226.724 52.1107 229.372 54.4959C232.336 57.0959 231.972 58.8119 232.96 58.5779C235.56 57.9019 238.836 56.7839 241.228 58.3439C245.232 60.9439 243.828 64.6879 239.46 66.1439C232.143 68.3446 224.492 69.225 216.866 68.7439C212.446 68.5619 206.96 68.5359 203.008 66.3259C202.935 66.2767 202.849 66.2504 202.761 66.2504C202.673 66.2504 202.587 66.2767 202.514 66.3259C199.745 68.4397 196.44 69.7366 192.972 70.0699C189.852 70.3559 183.352 70.0699 182.962 65.8839C182.96 65.8148 182.943 65.747 182.911 65.6855C182.88 65.6239 182.835 65.57 182.781 65.5278C182.726 65.4855 182.663 65.4559 182.595 65.441C182.528 65.4262 182.458 65.4265 182.39 65.4419C178.819 66.9891 174.995 67.8702 171.106 68.0419C168.282 68.0175 165.468 67.7039 162.708 67.1059C155.376 64.9999 168.766 55.3279 184.938 61.0999ZM351.806 317.2C351.769 317.129 351.712 317.07 351.644 317.029C351.575 316.988 351.496 316.966 351.416 316.966C351.336 316.966 351.258 316.988 351.189 317.029C351.12 317.07 351.064 317.129 351.026 317.2C350.707 317.908 350.582 318.689 350.662 319.462C350.614 320.253 350.711 321.046 350.948 321.802C351.182 322.348 352.066 322.14 351.884 321.542C351.416 319.332 352.274 318.76 351.806 317.2ZM371.15 314.6C371.082 314.557 371.004 314.534 370.924 314.533C370.844 314.531 370.765 314.552 370.695 314.592C370.626 314.632 370.569 314.69 370.53 314.76C370.491 314.83 370.472 314.91 370.474 314.99C370.474 315.848 371.514 316.914 371.384 319.28C371.384 319.404 371.434 319.523 371.521 319.611C371.609 319.699 371.728 319.748 371.852 319.748C371.977 319.748 372.096 319.699 372.183 319.611C372.271 319.523 372.32 319.404 372.32 319.28C372.684 317.928 372.398 315.224 371.15 314.6Z" fill="white"/>
<path d="M474.474 238.004C474.162 237.068 469.586 237.25 467.844 237.484C469.716 236.574 471.666 234 471.068 233.35C469.82 231.946 466.856 233.35 464.776 234.312C466.128 232.856 467.506 230.88 465.348 230.646C463.19 230.412 460.148 233.012 458.588 233.974C456.211 235.448 454.02 237.202 452.062 239.2C451.906 238.888 451.724 238.602 451.568 238.316C451.51 238.223 451.422 238.151 451.318 238.114C451.215 238.076 451.101 238.074 450.996 238.108C444.99 240.214 439.894 237.874 426.14 240.292C414.986 242.294 411.164 246.636 405.496 249.886C397.072 254.748 390.91 249.886 379.21 252.746C373.802 254.15 370.422 256.698 365.014 259.74C360.984 255.476 349.414 254.02 349.414 253.968C308.672 226.564 254.54 208.91 206.986 229.684C199.473 232.923 192.467 237.232 186.186 242.476C182.79 241.618 179.263 241.397 175.786 241.826C170.092 242.398 168.662 239.772 165.022 237.744C159.822 234.78 153.478 235.586 147.628 236.47C148.651 234.321 149.453 232.073 150.02 229.762C150.176 225.602 143.156 223.418 150.306 208.962C151.43 207.112 152.123 205.033 152.334 202.878C152.334 199.732 150.202 197.028 149.058 194.09C145.522 185.068 151.658 180.57 152.438 174.304C152.958 169.468 150.15 165.36 150.124 160.004C150.124 158.496 151.008 156.962 150.748 155.532C149.09 155.089 147.405 154.751 145.704 154.518C145.704 153.608 145.704 152.724 145.574 151.918H145.99C147.55 150.566 150.644 142.298 147.94 139.074C147.03 137.956 121.55 126.308 120.224 131.274C119.626 133.588 121.758 136.006 123.76 137.332C131.352 142.298 130.78 147.082 132.652 147.472C132.184 149.006 131.69 150.514 131.144 152.022C130.03 151.847 128.89 151.936 127.816 152.282C125.476 153.322 126.204 155.194 125.736 157.482C124.202 165.906 117.416 173.836 114.036 181.662C112.326 186.436 111.344 191.441 111.124 196.508C110.11 204.802 112.398 214.552 109.486 222.3C108.115 225.427 106.552 228.466 104.806 231.4C99.8924 240.786 100.152 251.55 103.35 257.764C104.416 259.766 105.95 261.456 107.198 263.354C109.46 266.786 109.798 272.818 112.216 275.704C113.932 277.706 118.3 278.304 121.68 278.304C123.37 277.42 125.008 276.38 126.646 275.704C134.446 271.96 138.086 277.992 144.846 276.068C149.578 274.716 153.608 271.05 158.782 272.09C159.12 272.09 158.964 272.662 158.626 272.61C152.542 271.44 148.226 276.952 142.402 277.55C139.204 277.888 136.474 276.198 133.38 275.834C129.194 275.314 125.866 277.472 122.382 279.422C116.012 282.958 106.782 280.774 100.23 283.4C99.4764 283.738 91.1564 287.69 91.1824 287.716C89.2844 283.348 90.6104 278.382 91.1824 273.65C92.4844 267.586 92.297 261.296 90.6364 255.32C89.306 252.105 87.8046 248.963 86.1384 245.908C82.0044 235.508 88.4264 224.536 86.7884 214.708C85.8004 210.6 83.2004 207.636 82.8884 201.006C82.8884 199.238 83.6164 197.392 83.4344 195.806C82.3841 195.448 81.3056 195.178 80.2104 195V191.412C80.7824 191.594 80.8864 191.256 80.9384 191.152C82.4555 189.336 83.3649 187.09 83.5384 184.73C83.6153 183.366 83.3652 182.003 82.809 180.755C82.2527 179.506 81.4064 178.409 80.3404 177.554C79.1444 176.8 56.3164 172.51 54.3404 172.354C50.7784 171.886 50.8044 177.19 56.3164 180.466C58.3704 181.714 63.9344 183.664 65.4944 187.72C65.4944 187.876 65.7024 188.63 66.1184 188.76C65.9364 190.58 65.6504 192.374 65.3384 194.168H60.9184C60.9184 194.168 56.0044 213.018 55.1204 214.578C51.3504 221.26 46.5144 227.812 45.6564 235.664C44.8764 242.424 47.2684 249.314 45.9684 255.996C44.8244 261.716 41.1324 266.396 38.5324 271.752C28.1324 292.214 39.5984 298.428 44.2524 308.36C47.5024 315.276 46.2024 322.894 50.4144 329.55C52.3621 332.68 54.9608 335.355 58.0339 337.392C61.107 339.428 64.5826 340.78 68.2244 341.354C76.6224 342.498 85.1504 339.326 93.5224 340.678C97.1025 341.443 100.629 342.442 104.078 343.668C114.997 346.812 126.622 346.504 137.358 342.784C142.558 340.99 147.42 338.416 152.802 337.896C159.12 337.246 163.488 339.17 169.364 341.406C170.534 344.682 173.68 345.176 176.878 346.19C189.935 350.629 203.4 353.764 217.074 355.55C211.874 358.15 206.674 360.178 202.774 364.624C198.734 369.148 196.576 375.045 196.742 381.108C197.214 387.426 200.056 393.333 204.698 397.644C207.824 400.552 210.197 404.174 211.614 408.2C212.355 411.498 213.472 414.699 214.942 417.742C216.337 420.365 218.246 422.679 220.555 424.547C222.865 426.414 225.528 427.796 228.384 428.61C235.976 430.794 240.786 430.144 247.65 437.918C251.966 442.806 255.71 447.902 262.574 449.02C266.551 449.423 270.558 449.423 274.534 449.02C276.51 449.02 285.714 448.63 286.52 451.984C286.676 452.66 287.56 452.426 287.612 451.828C287.718 450.697 288.054 449.6 288.6 448.604C290.339 451.378 292.379 453.95 294.684 456.274C296.452 458.016 299.13 461.058 301.704 461.474C304.876 462.072 303.16 459.212 301.236 456.742C302.877 457.922 304.617 458.957 306.436 459.836C307.268 460.226 308.88 460.798 309.4 459.55C309.92 458.302 308.178 456.95 307.528 456.378C306.878 455.806 306.306 455.208 305.656 454.61C309.27 456.56 313.456 458.224 313.872 455.884C314.158 454.35 311.714 453.674 308.516 451.542C310.336 452.062 312.494 452.478 313.066 451.542C314.106 449.748 310.336 448.422 308.672 447.356C307.528 446.654 306.254 445.874 305.032 445.172C307.346 444.808 311.194 443.742 309.79 441.454C308.776 439.79 305.344 441.454 296.79 441.454C297.674 440.899 298.541 440.405 299.39 439.972C299.858 439.686 299.546 438.828 299 439.036C297.05 439.764 296.166 432.77 295.854 431.652C294.008 424.086 290.212 417.17 283.244 413.582C278.824 411.32 275.028 409.682 272.48 405.158C268.242 397.592 267.28 393.354 258.57 391.066C287.17 379.574 311.324 361.374 335.088 342.264C337.922 354.328 354.25 360.022 365.976 348.452C374.66 339.872 377.156 324.09 377.026 323.414C379.782 321.542 379.808 320.814 380.354 317.148C381.059 313.185 381.268 309.15 380.978 305.136C382.019 303.158 382.957 301.127 383.786 299.052C395.772 294.242 400.062 294.892 406.796 291.252C411.216 288.86 415.194 285.74 419.484 283.14C424.005 280.661 428.794 278.707 433.758 277.316C443.768 274.04 447.85 266.916 452.842 258.622C453.869 257.341 454.799 255.985 455.624 254.566C455.961 252.578 455.961 250.548 455.624 248.56C456.664 248.898 457.704 249.184 458.744 249.496C459.784 249.808 463.606 251.966 464.62 250.874C466.154 249.236 463.32 247.234 461.5 246.246C463.888 245.925 466.293 245.743 468.702 245.7C470.054 245.7 472.706 245.7 473.538 244.192C474.37 242.684 472.264 241.956 470.002 241.592C472.264 240.942 475.072 239.824 474.474 238.004ZM132.236 152.204C132.73 150.748 133.198 149.266 133.588 147.784C137.484 148.638 141.276 149.911 144.898 151.58V154.466C136.578 153.4 135.486 152.646 132.236 152.23V152.204ZM79.0924 194.844C76.2584 194.506 68.6924 194.168 66.4564 194.142C66.7164 192.478 66.8724 190.814 66.9764 189.15H67.2104C71.2785 189.384 75.3076 190.073 79.2224 191.204C79.1964 192.4 79.1444 193.648 79.0924 194.844ZM348.556 254.15C346.422 253.838 344.265 253.708 342.108 253.76C336.648 254.024 331.309 255.467 326.459 257.988C321.608 260.509 317.36 264.05 314.006 268.367C310.652 272.684 308.272 277.676 307.028 282.999C305.784 288.322 305.707 293.852 306.8 299.208C307.08 303.026 307.742 306.806 308.776 310.492C305.174 311.863 301.435 312.839 297.622 313.404C302.614 309.582 303.394 300.144 301.184 295.022C299.732 291.765 297.467 288.936 294.606 286.806C281.736 268.606 276.12 254.54 270.582 235.872C284.18 235.378 297.778 234.598 311.402 234.182C324.411 239.606 336.855 246.295 348.556 254.15ZM330.356 321.75C328.209 321.252 326.336 319.943 325.13 318.097C323.924 316.252 323.477 314.011 323.882 311.844C324.016 310.74 324.378 309.675 324.945 308.718C325.512 307.762 326.273 306.934 327.178 306.287C328.083 305.641 329.113 305.19 330.202 304.963C331.291 304.737 332.416 304.74 333.503 304.972C334.591 305.204 335.619 305.66 336.521 306.311C337.423 306.962 338.179 307.794 338.741 308.754C339.304 309.714 339.66 310.78 339.788 311.885C339.915 312.99 339.811 314.109 339.482 315.172C339.114 317.267 337.93 319.13 336.19 320.354C334.45 321.577 332.296 322.061 330.2 321.698L330.356 321.75ZM169 265.33C171.505 260.447 174.586 255.881 178.178 251.732C209.56 215.852 265.486 215.072 310.154 233.532C296.77 233.236 283.38 233.774 270.062 235.144C270.022 235.147 269.983 235.158 269.948 235.178C269.912 235.197 269.881 235.223 269.857 235.255C269.832 235.287 269.815 235.324 269.805 235.363C269.796 235.402 269.795 235.443 269.802 235.482C274.206 253.519 282.093 270.521 293.02 285.532C286.936 281.424 279.084 279.136 272.688 277.03C246.729 269.121 219.794 264.868 192.66 264.394C186.753 263.99 180.898 265.735 176.176 269.308C172.481 272.22 169.863 276.283 168.74 280.852C164.866 275.99 166.14 270.92 169 265.33ZM169.286 281.632C170.425 277.215 172.949 273.278 176.488 270.4C181.096 266.793 186.874 265.016 192.712 265.408C215.409 265.798 237.986 268.79 260 274.326C276.12 278.59 301.6 285.272 301.6 300.95C301.6 305.11 300.066 311.35 296.088 313.56C289.172 314.308 282.191 314.247 275.288 313.378C250.99 309.879 226.897 305.079 203.112 299C191.646 295.984 176.8 290.706 169.286 281.632ZM306.54 441.428C309.322 440.96 309.14 442.364 308.542 442.988C307.005 443.795 305.31 444.257 303.576 444.34C303.484 444.344 303.394 444.376 303.321 444.433C303.248 444.49 303.194 444.569 303.168 444.659C303.142 444.748 303.145 444.843 303.176 444.93C303.208 445.018 303.266 445.094 303.342 445.146C304.772 446.03 306.254 446.81 307.632 447.746C309.065 448.423 310.432 449.233 311.714 450.164C312.468 450.918 311.454 451.308 309.842 450.918C306.02 450.346 305.474 449.072 302.718 447.668C302.62 447.629 302.511 447.626 302.411 447.661C302.311 447.695 302.227 447.764 302.173 447.855C302.12 447.946 302.101 448.054 302.12 448.158C302.139 448.262 302.194 448.356 302.276 448.422C305.24 450.242 307.918 452.374 310.96 454.116C311.844 454.636 313.846 456.404 311.636 456.196C309.932 455.727 308.284 455.074 306.722 454.246C304.623 453.232 302.613 452.04 300.716 450.684C300.248 450.346 299.806 451.126 300.274 451.438C302.818 453.278 305.193 455.34 307.372 457.6C308.334 460.2 304.772 457.6 303.888 457.158C302.024 456.021 300.219 454.788 298.48 453.466C298.116 453.154 297.466 453.466 297.804 454.012C299.676 456.612 303.576 460.382 300.742 460.096C299.676 460.096 298.142 458.38 297.57 457.756C294.29 454.837 291.452 451.457 289.146 447.72C290.891 445.351 293.115 443.376 295.672 441.922C301.912 442 303.81 441.402 306.54 441.428ZM306.904 362.466C291.393 373.617 274.716 383.05 257.166 390.598C254.097 390.206 251.244 388.807 249.054 386.62C246.662 383.76 246.454 379.756 243.386 377.338C243.074 377.078 242.632 377.52 242.944 377.78C246.142 380.38 246.22 384.904 249.08 387.79C253.526 392.236 262.626 389.636 268.658 399.568C270.094 402.828 271.836 405.944 273.858 408.876C279.214 414.856 288.262 412.386 293.644 428.48C294.892 432.146 295.204 437.658 297.31 439.634C292.994 442.104 288.002 445.354 286.728 450.242C284.804 448.396 280.306 448.006 278.304 447.902C271.024 447.538 263.016 449.982 256.49 445.588C251.576 442.286 248.69 436.722 244.088 433.134C239.486 429.546 233.168 429.104 227.578 427.284C219.778 424.684 215.332 418.184 213.304 410.618C210.834 401.336 209.534 401.622 203.58 394.706C200.872 391.726 199.048 388.051 198.313 384.092C197.579 380.133 197.962 376.047 199.42 372.294C202.176 365.3 207.766 361.166 214.318 357.994C220.142 355.16 225.056 352.508 228.514 346.84C230.392 343.183 233.056 339.987 236.314 337.48C239.918 335.066 244.171 333.805 248.508 333.866C248.579 333.846 248.641 333.803 248.685 333.745C248.73 333.686 248.754 333.615 248.754 333.541C248.754 333.468 248.73 333.396 248.685 333.337C248.641 333.279 248.579 333.236 248.508 333.216C242.623 333.132 236.942 335.374 232.7 339.456C228.566 343.512 227.214 350.298 218.348 354.848C205.681 353.353 193.192 350.61 181.064 346.658C176.956 345.358 170.924 344.708 169.936 339.82C169.595 337.906 169.421 335.966 169.416 334.022C168.92 317.885 169.86 301.736 172.224 285.766C186.498 297.518 208.286 301.6 226.174 305.448C240.89 308.62 255.736 311.532 270.686 313.638C278.328 314.849 286.084 315.171 293.8 314.6C303.368 323.154 306.072 331.214 306.28 340.782C306.8 346.658 307.216 354.666 306.8 362.466H306.904ZM315.51 356.174C318.11 339.248 317.07 324.844 307.528 311.636L308.984 311.09C312.364 322.296 317.98 326.898 324.584 329.29C324.054 330.712 323.826 332.229 323.914 333.744C324.003 335.259 324.406 336.738 325.098 338.089C325.791 339.439 326.757 340.63 327.935 341.587C329.114 342.543 330.478 343.243 331.942 343.642C326.56 347.776 321.074 352.014 315.51 356.2V356.174ZM365.118 347.854C352.586 360.152 335.608 352.326 334.932 338.338C334.915 338.286 334.882 338.241 334.838 338.209C334.794 338.177 334.74 338.159 334.685 338.159C334.631 338.159 334.577 338.177 334.533 338.209C334.489 338.241 334.455 338.286 334.438 338.338C334.442 339.359 334.538 340.377 334.724 341.38L332.696 342.966C329.895 341.935 327.48 340.064 325.78 337.61C325.075 336.361 324.66 334.969 324.566 333.538C324.471 332.107 324.7 330.673 325.234 329.342C332.644 331.708 336.752 329.628 334.464 322.348C341.495 326.924 349.66 329.453 358.046 329.654C358.046 329.654 359.346 324.22 363.896 325.052C365.638 325.364 367.276 328.51 368.342 328.432C369.428 328.123 370.437 327.592 371.306 326.872C372.938 325.917 374.518 324.876 376.038 323.752C373.828 332.436 371.8 341.302 365.118 347.854ZM379.158 319.098C378.3 322.166 370.474 326.898 369.512 327.314C367.692 327.912 367.952 327.314 366.912 326.326C366.005 325.279 364.738 324.609 363.361 324.451C361.985 324.292 360.598 324.655 359.476 325.468C358.576 326.453 357.87 327.6 357.396 328.848C357.396 328.848 351.754 328.536 350.012 328.172C344.482 326.957 339.204 324.793 334.412 321.776C335.664 321.258 336.782 320.462 337.681 319.448C338.58 318.435 339.238 317.23 339.603 315.926C339.969 314.621 340.033 313.251 339.792 311.917C339.55 310.584 339.009 309.323 338.208 308.23C349.544 315.796 363.922 312.91 376.506 307.58C377.39 307.216 379.314 305.76 380.146 306.384C380.31 310.646 379.978 314.913 379.158 319.098ZM451.49 258.466C448.084 264.082 444.756 270.374 438.958 273.858C433.16 277.342 426.582 277.914 420.758 281.086C414.388 284.648 408.902 289.64 402.064 292.396C398.398 293.852 394.524 294.294 390.858 295.646C388.492 296.53 386.126 297.362 383.708 298.246C384.699 294.821 385.06 291.244 384.774 287.69C383.589 282.071 381.284 276.748 377.996 272.04C374.708 267.332 370.505 263.334 365.638 260.286C372.736 256.542 376.662 253.006 386.438 252.72C390.26 252.72 394.056 253.5 397.878 253.344C410.046 252.772 410.878 239.59 442.624 240.084C443.976 240.084 449.384 239.304 450.424 239.512C452.686 239.98 454.428 246.818 454.61 250.068C454.74 253.734 453.284 255.502 451.49 258.466ZM465.92 241.358C465.859 241.342 465.795 241.341 465.733 241.354C465.671 241.367 465.612 241.394 465.562 241.432C465.512 241.471 465.471 241.521 465.444 241.578C465.416 241.635 465.401 241.698 465.401 241.761C465.401 241.824 465.416 241.887 465.444 241.944C465.471 242.001 465.512 242.051 465.562 242.09C465.612 242.129 465.671 242.156 465.733 242.168C465.795 242.181 465.859 242.18 465.92 242.164C467.168 242.164 473.72 242.164 471.666 244.218C470.366 245.596 459.03 244.218 459.602 246.116C459.616 246.18 459.648 246.238 459.694 246.285C459.74 246.331 459.799 246.362 459.862 246.376C460.122 246.376 464.204 248.43 463.476 250.042C463.242 250.614 456.924 248.066 455.156 247.442C454.624 244.714 453.677 242.084 452.348 239.642C454.633 237.429 457.163 235.484 459.888 233.844C461.092 232.935 462.448 232.248 463.892 231.816C467.792 231.296 463.502 234.416 462.566 235.196C462.254 235.43 462.566 236.002 462.956 235.872C463.736 235.534 468.832 233.09 469.664 233.662C471.692 235.066 464.62 237.874 464.126 238.082C464.063 238.083 464.001 238.099 463.945 238.127C463.888 238.156 463.839 238.197 463.801 238.247C463.763 238.298 463.737 238.356 463.725 238.418C463.713 238.48 463.715 238.544 463.731 238.605C463.747 238.666 463.777 238.723 463.819 238.771C463.86 238.818 463.912 238.856 463.97 238.881C464.028 238.906 464.091 238.917 464.154 238.913C464.217 238.91 464.279 238.893 464.334 238.862C467.004 238.209 469.751 237.92 472.498 238.004C474.11 240.058 466.57 241.306 465.92 241.358ZM354.276 75.5821C354.796 74.8073 355.06 73.8895 355.032 72.9571C355.004 72.0246 354.685 71.1243 354.12 70.3821C353.769 70.0214 353.341 69.745 352.868 69.5737C352.394 69.4025 351.888 69.3408 351.388 69.3934C350.887 69.446 350.405 69.6114 349.978 69.8772C349.55 70.143 349.189 70.5023 348.92 70.9281L347.074 69.6281C348.816 68.9521 356.46 65.7801 357.63 60.2161C357.676 59.7755 357.615 59.3305 357.452 58.9186C357.289 58.5067 357.029 58.1402 356.694 57.8501C353.392 56.0041 343.226 58.6821 332.696 61.9841L325 57.8761C325.439 56.8988 325.588 55.8165 325.432 54.757C325.275 53.6974 324.819 52.7048 324.116 51.8961C321.854 50.0761 319.67 51.7141 318.76 53.9761C315.9 51.8441 301.158 44.1221 298.324 45.2921C295.49 46.4621 299.104 50.4921 300.924 52.4421C305.422 56.7061 312.988 62.5041 317.642 66.0661C305.932 69.2508 294.491 73.3542 283.426 78.3381C282.334 76.5701 276.146 71.1361 275.054 71.4481C273.962 71.7601 274.196 73.9181 276.276 82.8361C276.744 84.8121 277.134 86.3461 278.46 87.1261C279.318 87.6201 293.332 84.6561 296.972 83.7461C306.774 81.1461 313.872 80.6521 330.304 75.2961C343.122 79.1441 357.552 87.2561 359.424 81.7441C360.126 80.1841 358.02 77.7401 354.276 75.5821ZM291.668 80.0541C290.29 79.7421 289.666 77.4541 291.278 76.9601C291.718 76.827 292.188 76.8358 292.622 76.9852C293.056 77.1345 293.432 77.4169 293.696 77.7921C293.796 78.0849 293.816 78.399 293.754 78.7021C293.692 79.0052 293.551 79.2864 293.344 79.5167C293.138 79.747 292.874 79.9182 292.579 80.0126C292.285 80.1071 291.97 80.1214 291.668 80.0541ZM299.962 76.8301C296.686 76.2321 300.742 71.9941 302.146 74.4381C302.718 75.6601 301.418 77.0641 299.962 76.8301ZM306.072 74.8801C304.798 76.0501 302.822 75.1661 303.212 73.6321C303.351 73.3022 303.585 73.0207 303.883 72.8228C304.181 72.6248 304.531 72.5192 304.889 72.5192C305.247 72.5192 305.597 72.6248 305.896 72.8228C306.194 73.0207 306.427 73.3022 306.566 73.6321C306.58 73.8636 306.543 74.0953 306.458 74.3109C306.373 74.5265 306.241 74.7208 306.072 74.8801ZM312 72.8001C311.324 74.4121 307.242 73.8921 308.412 71.4221C309.556 69.5501 313.508 70.5121 312 72.8001ZM324.558 57.2001C324.41 57.8193 324.057 58.3706 323.557 58.7649C323.057 59.1593 322.439 59.3738 321.802 59.3738C321.166 59.3738 320.547 59.1593 320.047 58.7649C319.547 58.3706 319.195 57.8193 319.046 57.2001C318.24 54.6001 320.892 50.1801 323.726 52.3901C324.297 53.0356 324.683 53.8232 324.843 54.6699C325.003 55.5165 324.932 56.3907 324.636 57.2001H324.558ZM351 76.5441C350.431 76.3072 349.934 75.9246 349.56 75.4347C349.185 74.9448 348.947 74.3649 348.868 73.7534C348.788 73.1419 348.872 72.5204 349.109 71.9514C349.347 71.3823 349.73 70.8859 350.22 70.5121C350.525 70.2957 350.872 70.1474 351.239 70.0773C351.605 70.0072 351.983 70.0168 352.346 70.1056C352.708 70.1944 353.047 70.3603 353.34 70.592C353.633 70.8236 353.872 71.1156 354.042 71.4481C355.186 74.1521 353.028 76.9861 351 76.5441Z" fill="#E6E6E6"/>
</svg>
