<svg xmlns="http://www.w3.org/2000/svg" xmlns:xlink="http://www.w3.org/1999/xlink" width="200" zoomAndPan="magnify" viewBox="0 0 150 37.5" height="50" preserveAspectRatio="xMidYMid meet" version="1.0"><defs><g/><clipPath id="c303459880"><path d="M 80 0 L 139.800781 0 L 139.800781 32 L 80 32 Z M 80 0 " clip-rule="nonzero"/></clipPath><clipPath id="7653f45967"><path d="M 55 22 L 59.800781 22 L 59.800781 27 L 55 27 Z M 55 22 " clip-rule="nonzero"/></clipPath><clipPath id="6bd1090c1d"><rect x="0" width="60" y="0" height="32"/></clipPath><clipPath id="50ad616809"><path d="M 0.300781 8 L 82 8 L 82 32.683594 L 0.300781 32.683594 Z M 0.300781 8 " clip-rule="nonzero"/></clipPath><clipPath id="ede3d7ec71"><path d="M 70 6 L 81.777344 6 L 81.777344 19 L 70 19 Z M 70 6 " clip-rule="nonzero"/></clipPath><clipPath id="bd2f2ef0c9"><rect x="0" width="82" y="0" height="25"/></clipPath><clipPath id="24fecc20ad"><rect x="0" width="140" y="0" height="33"/></clipPath></defs><g transform="matrix(1, 0, 0, 1, 4, -0.000000000000001478)"><g clip-path="url(#24fecc20ad)"><g clip-path="url(#c303459880)"><g transform="matrix(1, 0, 0, 1, 80, -0.000000000000001478)"><g clip-path="url(#6bd1090c1d)"><g fill="#eeede9" fill-opacity="1"><g transform="translate(0.996595, 25.868627)"><g><path d="M 7.71875 0.203125 C 6.257812 0.203125 5.015625 -0.175781 3.984375 -0.9375 C 2.960938 -1.707031 2.195312 -2.703125 1.6875 -3.921875 C 1.175781 -5.148438 0.921875 -6.460938 0.921875 -7.859375 C 0.921875 -9.296875 1.1875 -10.632812 1.71875 -11.875 C 2.25 -13.113281 3.050781 -14.113281 4.125 -14.875 C 5.207031 -15.644531 6.523438 -16.03125 8.078125 -16.03125 C 9.859375 -16.03125 11.320312 -15.53125 12.46875 -14.53125 C 13.613281 -13.539062 14.421875 -12.242188 14.890625 -10.640625 L 11.203125 -10.640625 C 11.003906 -11.347656 10.644531 -11.910156 10.125 -12.328125 C 9.601562 -12.742188 8.929688 -12.953125 8.109375 -12.953125 C 6.921875 -12.953125 6.015625 -12.476562 5.390625 -11.53125 C 4.765625 -10.59375 4.453125 -9.335938 4.453125 -7.765625 C 4.453125 -6.117188 4.785156 -4.84375 5.453125 -3.9375 C 6.128906 -3.03125 7.070312 -2.578125 8.28125 -2.578125 C 9.332031 -2.578125 10.128906 -2.898438 10.671875 -3.546875 C 11.222656 -4.191406 11.503906 -4.945312 11.515625 -5.8125 L 11.515625 -6.109375 L 8.578125 -6.109375 L 8.578125 -8.59375 L 14.953125 -8.59375 L 14.953125 0 L 12.375 0 L 12.375 -2.21875 L 12.1875 -2.21875 C 11.3125 -0.601562 9.820312 0.203125 7.71875 0.203125 Z M 7.71875 0.203125 "/></g></g></g><g fill="#eeede9" fill-opacity="1"><g transform="translate(15.294748, 25.868627)"><g><path d="M 6.53125 0.203125 C 5.269531 0.203125 4.207031 -0.0820312 3.34375 -0.65625 C 2.488281 -1.238281 1.851562 -1.992188 1.4375 -2.921875 C 1.03125 -3.859375 0.828125 -4.867188 0.828125 -5.953125 C 0.828125 -7.023438 1.03125 -8.03125 1.4375 -8.96875 C 1.851562 -9.90625 2.488281 -10.664062 3.34375 -11.25 C 4.207031 -11.832031 5.285156 -12.125 6.578125 -12.125 C 8.253906 -12.125 9.585938 -11.59375 10.578125 -10.53125 C 11.566406 -9.476562 12.0625 -7.953125 12.0625 -5.953125 L 12.0625 -4.984375 L 4.203125 -4.984375 L 4.203125 -4.8125 C 4.203125 -4.195312 4.414062 -3.664062 4.84375 -3.21875 C 5.269531 -2.78125 5.8125 -2.5625 6.46875 -2.5625 C 6.976562 -2.5625 7.410156 -2.675781 7.765625 -2.90625 C 8.128906 -3.132812 8.382812 -3.445312 8.53125 -3.84375 L 11.96875 -3.84375 C 11.664062 -2.65625 11.046875 -1.679688 10.109375 -0.921875 C 9.179688 -0.171875 7.988281 0.203125 6.53125 0.203125 Z M 8.71875 -7.234375 C 8.695312 -8.035156 8.488281 -8.628906 8.09375 -9.015625 C 7.695312 -9.410156 7.171875 -9.609375 6.515625 -9.609375 C 5.835938 -9.609375 5.300781 -9.398438 4.90625 -8.984375 C 4.507812 -8.566406 4.300781 -7.984375 4.28125 -7.234375 Z M 8.71875 -7.234375 "/></g></g></g><g fill="#eeede9" fill-opacity="1"><g transform="translate(26.383111, 25.868627)"><g><path d="M 1.171875 -11.875 L 4.671875 -11.875 L 4.671875 -10.15625 L 4.84375 -10.15625 C 5.101562 -10.707031 5.519531 -11.171875 6.09375 -11.546875 C 6.664062 -11.929688 7.367188 -12.125 8.203125 -12.125 C 9.753906 -12.125 10.828125 -11.632812 11.421875 -10.65625 C 12.023438 -9.675781 12.328125 -8.578125 12.328125 -7.359375 L 12.328125 0 L 8.828125 0 L 8.828125 -6.765625 C 8.828125 -7.535156 8.65625 -8.144531 8.3125 -8.59375 C 7.96875 -9.039062 7.457031 -9.265625 6.78125 -9.265625 C 6.0625 -9.265625 5.53125 -9.03125 5.1875 -8.5625 C 4.84375 -8.09375 4.671875 -7.492188 4.671875 -6.765625 L 4.671875 0 L 1.171875 0 Z M 1.171875 -11.875 "/></g></g></g><g fill="#eeede9" fill-opacity="1"><g transform="translate(38.010181, 25.868627)"><g><path d="M 1.578125 -11.875 L 5.046875 -11.875 L 5.046875 0 L 1.578125 0 Z M 3.296875 -13.859375 C 2.753906 -13.859375 2.300781 -14.039062 1.9375 -14.40625 C 1.582031 -14.769531 1.40625 -15.210938 1.40625 -15.734375 C 1.40625 -16.273438 1.582031 -16.726562 1.9375 -17.09375 C 2.300781 -17.457031 2.753906 -17.640625 3.296875 -17.640625 C 3.835938 -17.640625 4.289062 -17.457031 4.65625 -17.09375 C 5.019531 -16.726562 5.203125 -16.273438 5.203125 -15.734375 C 5.203125 -15.210938 5.019531 -14.769531 4.65625 -14.40625 C 4.289062 -14.039062 3.835938 -13.859375 3.296875 -13.859375 Z M 3.296875 -13.859375 "/></g></g></g><g fill="#eeede9" fill-opacity="1"><g transform="translate(42.836086, 25.868627)"><g><path d="M 6.53125 0.203125 C 5.269531 0.203125 4.207031 -0.0820312 3.34375 -0.65625 C 2.488281 -1.238281 1.851562 -1.992188 1.4375 -2.921875 C 1.03125 -3.859375 0.828125 -4.867188 0.828125 -5.953125 C 0.828125 -7.023438 1.03125 -8.03125 1.4375 -8.96875 C 1.851562 -9.90625 2.488281 -10.664062 3.34375 -11.25 C 4.207031 -11.832031 5.285156 -12.125 6.578125 -12.125 C 8.253906 -12.125 9.585938 -11.59375 10.578125 -10.53125 C 11.566406 -9.476562 12.0625 -7.953125 12.0625 -5.953125 L 12.0625 -4.984375 L 4.203125 -4.984375 L 4.203125 -4.8125 C 4.203125 -4.195312 4.414062 -3.664062 4.84375 -3.21875 C 5.269531 -2.78125 5.8125 -2.5625 6.46875 -2.5625 C 6.976562 -2.5625 7.410156 -2.675781 7.765625 -2.90625 C 8.128906 -3.132812 8.382812 -3.445312 8.53125 -3.84375 L 11.96875 -3.84375 C 11.664062 -2.65625 11.046875 -1.679688 10.109375 -0.921875 C 9.179688 -0.171875 7.988281 0.203125 6.53125 0.203125 Z M 8.71875 -7.234375 C 8.695312 -8.035156 8.488281 -8.628906 8.09375 -9.015625 C 7.695312 -9.410156 7.171875 -9.609375 6.515625 -9.609375 C 5.835938 -9.609375 5.300781 -9.398438 4.90625 -8.984375 C 4.507812 -8.566406 4.300781 -7.984375 4.28125 -7.234375 Z M 8.71875 -7.234375 "/></g></g></g><g clip-path="url(#7653f45967)"><g fill="#eeede9" fill-opacity="1"><g transform="translate(53.924452, 25.868627)"><g><path d="M 3.765625 0.203125 C 3.210938 0.203125 2.753906 0.015625 2.390625 -0.359375 C 2.035156 -0.734375 1.859375 -1.191406 1.859375 -1.734375 C 1.859375 -2.265625 2.035156 -2.710938 2.390625 -3.078125 C 2.753906 -3.453125 3.210938 -3.640625 3.765625 -3.640625 C 4.328125 -3.640625 4.789062 -3.453125 5.15625 -3.078125 C 5.519531 -2.710938 5.703125 -2.265625 5.703125 -1.734375 C 5.703125 -1.191406 5.515625 -0.734375 5.140625 -0.359375 C 4.765625 0.015625 4.304688 0.203125 3.765625 0.203125 Z M 3.765625 0.203125 "/></g></g></g></g></g></g></g><g clip-path="url(#50ad616809)"><g transform="matrix(1, 0, 0, 1, 0.000000000000000888, 8)"><g clip-path="url(#bd2f2ef0c9)"><g fill="#eeede9" fill-opacity="1"><g transform="translate(0.554861, 17.710448)"><g><path d="M 16.859375 -12.890625 C 16.859375 -11.878906 16.457031 -10.929688 15.65625 -10.046875 C 14.863281 -9.171875 13.648438 -8.5625 12.015625 -8.21875 L 14.703125 -2.53125 C 15.046875 -1.8125 15.40625 -1.285156 15.78125 -0.953125 C 16.164062 -0.628906 16.71875 -0.457031 17.4375 -0.4375 L 17.28125 0 L 13.390625 0 L 9.578125 -8.046875 C 8.972656 -8.085938 8.59375 -8.125 8.4375 -8.15625 C 8.363281 -8.15625 8.195312 -8.175781 7.9375 -8.21875 L 6.515625 -3.21875 C 6.472656 -3.101562 6.410156 -2.875 6.328125 -2.53125 C 6.242188 -2.195312 6.203125 -1.914062 6.203125 -1.6875 C 6.203125 -1.1875 6.378906 -0.851562 6.734375 -0.6875 C 7.097656 -0.519531 7.566406 -0.4375 8.140625 -0.4375 L 8.015625 0 L 0.609375 0 L 0.734375 -0.4375 C 1.671875 -0.4375 2.347656 -0.554688 2.765625 -0.796875 C 3.191406 -1.035156 3.519531 -1.535156 3.75 -2.296875 L 6.84375 -13 C 7 -13.5625 7.109375 -13.972656 7.171875 -14.234375 C 7.242188 -14.503906 7.28125 -14.703125 7.28125 -14.828125 C 7.28125 -15.367188 7.097656 -15.71875 6.734375 -15.875 C 6.378906 -16.03125 5.882812 -16.109375 5.25 -16.109375 L 5.375 -16.546875 L 11.234375 -16.546875 C 13.054688 -16.546875 14.445312 -16.207031 15.40625 -15.53125 C 16.375 -14.851562 16.859375 -13.972656 16.859375 -12.890625 Z M 10.046875 -15.5625 L 8.15625 -8.921875 C 8.632812 -8.828125 9.148438 -8.78125 9.703125 -8.78125 C 10.679688 -8.78125 11.503906 -8.976562 12.171875 -9.375 C 12.847656 -9.78125 13.34375 -10.296875 13.65625 -10.921875 C 13.976562 -11.546875 14.140625 -12.210938 14.140625 -12.921875 C 14.140625 -13.835938 13.867188 -14.523438 13.328125 -14.984375 C 12.796875 -15.441406 12.097656 -15.671875 11.234375 -15.671875 C 10.960938 -15.671875 10.566406 -15.632812 10.046875 -15.5625 Z M 10.046875 -15.5625 "/></g></g></g><g fill="#eeede9" fill-opacity="1"><g transform="translate(16.122022, 17.710448)"><g><path d="M 7.9375 -11.203125 C 8.625 -11.203125 9.203125 -11.03125 9.671875 -10.6875 C 10.140625 -10.34375 10.375 -9.898438 10.375 -9.359375 C 10.375 -8.835938 10.128906 -8.238281 9.640625 -7.5625 C 9.148438 -6.894531 8.351562 -6.304688 7.25 -5.796875 C 6.144531 -5.285156 4.742188 -5.003906 3.046875 -4.953125 C 2.941406 -4.628906 2.890625 -4.226562 2.890625 -3.75 C 2.890625 -2.75 3.160156 -2.023438 3.703125 -1.578125 C 4.242188 -1.128906 4.835938 -0.90625 5.484375 -0.90625 C 6.585938 -0.90625 7.703125 -1.453125 8.828125 -2.546875 L 9.140625 -2.25 C 7.390625 -0.550781 5.695312 0.296875 4.0625 0.296875 C 3.394531 0.296875 2.8125 0.128906 2.3125 -0.203125 C 1.8125 -0.546875 1.4375 -0.984375 1.1875 -1.515625 C 0.9375 -2.054688 0.8125 -2.613281 0.8125 -3.1875 C 0.8125 -4.332031 1.140625 -5.53125 1.796875 -6.78125 C 2.460938 -8.039062 3.347656 -9.09375 4.453125 -9.9375 C 5.554688 -10.78125 6.71875 -11.203125 7.9375 -11.203125 Z M 3.1875 -5.421875 C 4.300781 -5.503906 5.203125 -5.691406 5.890625 -5.984375 C 6.554688 -6.273438 7.097656 -6.65625 7.515625 -7.125 C 7.929688 -7.59375 8.226562 -8.050781 8.40625 -8.5 C 8.582031 -8.945312 8.671875 -9.316406 8.671875 -9.609375 C 8.671875 -9.890625 8.566406 -10.144531 8.359375 -10.375 C 8.160156 -10.613281 7.875 -10.734375 7.5 -10.734375 C 6.84375 -10.734375 6.207031 -10.429688 5.59375 -9.828125 C 4.988281 -9.222656 4.46875 -8.503906 4.03125 -7.671875 C 3.601562 -6.835938 3.320312 -6.085938 3.1875 -5.421875 Z M 3.1875 -5.421875 "/></g></g></g><g fill="#eeede9" fill-opacity="1"><g transform="translate(25.143599, 17.710448)"><g><path d="M 6.203125 -16.109375 C 6.546875 -16.109375 6.835938 -15.984375 7.078125 -15.734375 C 7.328125 -15.492188 7.453125 -15.207031 7.453125 -14.875 C 7.453125 -14.53125 7.328125 -14.234375 7.078125 -13.984375 C 6.835938 -13.742188 6.546875 -13.625 6.203125 -13.625 C 5.859375 -13.625 5.566406 -13.742188 5.328125 -13.984375 C 5.097656 -14.234375 4.984375 -14.53125 4.984375 -14.875 C 4.984375 -15.207031 5.097656 -15.492188 5.328125 -15.734375 C 5.566406 -15.984375 5.859375 -16.109375 6.203125 -16.109375 Z M 3.625 -1.328125 C 3.300781 -0.128906 2.953125 0.910156 2.578125 1.796875 C 2.203125 2.691406 1.640625 3.488281 0.890625 4.1875 C 0.148438 4.894531 -0.78125 5.25 -1.90625 5.25 C -2.394531 5.25 -2.78125 5.132812 -3.0625 4.90625 C -3.34375 4.675781 -3.484375 4.394531 -3.484375 4.0625 C -3.484375 3.769531 -3.382812 3.535156 -3.1875 3.359375 C -2.988281 3.179688 -2.75 3.09375 -2.46875 3.09375 C -2.257812 3.09375 -2.078125 3.144531 -1.921875 3.25 C -1.765625 3.351562 -1.6875 3.503906 -1.6875 3.703125 C -1.6875 3.847656 -1.769531 4 -1.9375 4.15625 C -2.101562 4.320312 -2.1875 4.429688 -2.1875 4.484375 C -2.1875 4.535156 -2.148438 4.582031 -2.078125 4.625 C -2.003906 4.675781 -1.898438 4.703125 -1.765625 4.703125 C -1.421875 4.703125 -1.109375 4.648438 -0.828125 4.546875 C -0.554688 4.441406 -0.335938 4.28125 -0.171875 4.0625 C 0.140625 3.726562 0.421875 3.195312 0.671875 2.46875 C 0.921875 1.738281 1.226562 0.71875 1.59375 -0.59375 L 1.90625 -1.6875 L 3.796875 -8.234375 C 3.960938 -8.859375 4.046875 -9.273438 4.046875 -9.484375 C 4.046875 -9.992188 3.789062 -10.25 3.28125 -10.25 C 3.039062 -10.25 2.675781 -10.195312 2.1875 -10.09375 L 2.1875 -10.546875 L 6 -11.203125 L 6.453125 -11.203125 Z M 3.625 -1.328125 "/></g></g></g><g fill="#eeede9" fill-opacity="1"><g transform="translate(30.071118, 17.710448)"><g><path d="M 7.9375 -11.203125 C 8.625 -11.203125 9.203125 -11.03125 9.671875 -10.6875 C 10.140625 -10.34375 10.375 -9.898438 10.375 -9.359375 C 10.375 -8.835938 10.128906 -8.238281 9.640625 -7.5625 C 9.148438 -6.894531 8.351562 -6.304688 7.25 -5.796875 C 6.144531 -5.285156 4.742188 -5.003906 3.046875 -4.953125 C 2.941406 -4.628906 2.890625 -4.226562 2.890625 -3.75 C 2.890625 -2.75 3.160156 -2.023438 3.703125 -1.578125 C 4.242188 -1.128906 4.835938 -0.90625 5.484375 -0.90625 C 6.585938 -0.90625 7.703125 -1.453125 8.828125 -2.546875 L 9.140625 -2.25 C 7.390625 -0.550781 5.695312 0.296875 4.0625 0.296875 C 3.394531 0.296875 2.8125 0.128906 2.3125 -0.203125 C 1.8125 -0.546875 1.4375 -0.984375 1.1875 -1.515625 C 0.9375 -2.054688 0.8125 -2.613281 0.8125 -3.1875 C 0.8125 -4.332031 1.140625 -5.53125 1.796875 -6.78125 C 2.460938 -8.039062 3.347656 -9.09375 4.453125 -9.9375 C 5.554688 -10.78125 6.71875 -11.203125 7.9375 -11.203125 Z M 3.1875 -5.421875 C 4.300781 -5.503906 5.203125 -5.691406 5.890625 -5.984375 C 6.554688 -6.273438 7.097656 -6.65625 7.515625 -7.125 C 7.929688 -7.59375 8.226562 -8.050781 8.40625 -8.5 C 8.582031 -8.945312 8.671875 -9.316406 8.671875 -9.609375 C 8.671875 -9.890625 8.566406 -10.144531 8.359375 -10.375 C 8.160156 -10.613281 7.875 -10.734375 7.5 -10.734375 C 6.84375 -10.734375 6.207031 -10.429688 5.59375 -9.828125 C 4.988281 -9.222656 4.46875 -8.503906 4.03125 -7.671875 C 3.601562 -6.835938 3.320312 -6.085938 3.1875 -5.421875 Z M 3.1875 -5.421875 "/></g></g></g><g fill="#eeede9" fill-opacity="1"><g transform="translate(39.092695, 17.710448)"><g><path d="M 8.21875 -11.203125 C 8.800781 -11.203125 9.3125 -11.03125 9.75 -10.6875 C 10.195312 -10.34375 10.421875 -9.867188 10.421875 -9.265625 C 10.421875 -8.804688 10.289062 -8.421875 10.03125 -8.109375 C 9.769531 -7.804688 9.472656 -7.65625 9.140625 -7.65625 C 8.910156 -7.65625 8.710938 -7.734375 8.546875 -7.890625 C 8.390625 -8.054688 8.3125 -8.257812 8.3125 -8.5 C 8.3125 -8.71875 8.351562 -8.882812 8.4375 -9 C 8.519531 -9.113281 8.640625 -9.242188 8.796875 -9.390625 C 8.941406 -9.515625 9.039062 -9.613281 9.09375 -9.6875 C 9.15625 -9.769531 9.1875 -9.875 9.1875 -10 C 9.1875 -10.257812 9.078125 -10.453125 8.859375 -10.578125 C 8.640625 -10.703125 8.40625 -10.765625 8.15625 -10.765625 C 7.289062 -10.765625 6.476562 -10.347656 5.71875 -9.515625 C 4.957031 -8.691406 4.347656 -7.703125 3.890625 -6.546875 C 3.441406 -5.398438 3.21875 -4.410156 3.21875 -3.578125 C 3.21875 -2.710938 3.425781 -2.015625 3.84375 -1.484375 C 4.269531 -0.953125 4.828125 -0.6875 5.515625 -0.6875 C 6.179688 -0.6875 6.8125 -0.890625 7.40625 -1.296875 C 8.007812 -1.703125 8.523438 -2.1875 8.953125 -2.75 L 9.3125 -2.5 C 7.757812 -0.632812 6.125 0.296875 4.40625 0.296875 C 3.394531 0.296875 2.601562 -0.0546875 2.03125 -0.765625 C 1.457031 -1.484375 1.171875 -2.332031 1.171875 -3.3125 C 1.171875 -4.5 1.507812 -5.707031 2.1875 -6.9375 C 2.875 -8.175781 3.765625 -9.195312 4.859375 -10 C 5.953125 -10.800781 7.070312 -11.203125 8.21875 -11.203125 Z M 8.21875 -11.203125 "/></g></g></g><g fill="#eeede9" fill-opacity="1"><g transform="translate(48.114272, 17.710448)"><g><path d="M 6.671875 -13.921875 L 7.140625 -13.921875 L 6.28125 -10.9375 L 7.984375 -10.9375 L 7.796875 -10.171875 L 6.0625 -10.171875 L 3.875 -2.546875 C 3.675781 -1.890625 3.578125 -1.445312 3.578125 -1.21875 C 3.578125 -0.925781 3.703125 -0.78125 3.953125 -0.78125 C 4.160156 -0.78125 4.421875 -0.898438 4.734375 -1.140625 C 5.046875 -1.378906 5.332031 -1.644531 5.59375 -1.9375 C 5.863281 -2.226562 6.007812 -2.40625 6.03125 -2.46875 L 6.5 -2.46875 C 5.863281 -1.457031 5.222656 -0.742188 4.578125 -0.328125 C 3.941406 0.0859375 3.363281 0.296875 2.84375 0.296875 C 2.5625 0.296875 2.304688 0.191406 2.078125 -0.015625 C 1.847656 -0.234375 1.734375 -0.5625 1.734375 -1 C 1.734375 -1.300781 1.832031 -1.816406 2.03125 -2.546875 L 4.21875 -10.171875 L 2.375 -10.171875 L 2.546875 -10.71875 C 3.515625 -10.875 4.300781 -11.242188 4.90625 -11.828125 C 5.519531 -12.410156 6.109375 -13.109375 6.671875 -13.921875 Z M 6.671875 -13.921875 "/></g></g></g><g fill="#eeede9" fill-opacity="1"><g transform="translate(54.561743, 17.710448)"><g><path d="M 5.828125 -16.109375 C 6.171875 -16.109375 6.460938 -15.984375 6.703125 -15.734375 C 6.953125 -15.492188 7.078125 -15.207031 7.078125 -14.875 C 7.078125 -14.53125 6.953125 -14.234375 6.703125 -13.984375 C 6.460938 -13.742188 6.171875 -13.625 5.828125 -13.625 C 5.503906 -13.625 5.21875 -13.742188 4.96875 -13.984375 C 4.726562 -14.234375 4.609375 -14.53125 4.609375 -14.875 C 4.609375 -15.207031 4.726562 -15.492188 4.96875 -15.734375 C 5.21875 -15.984375 5.503906 -16.109375 5.828125 -16.109375 Z M 3.4375 -2.1875 C 3.300781 -1.757812 3.234375 -1.460938 3.234375 -1.296875 C 3.234375 -1.035156 3.375 -0.90625 3.65625 -0.90625 C 3.851562 -0.90625 4.125 -1.054688 4.46875 -1.359375 C 4.820312 -1.660156 5.1875 -2.109375 5.5625 -2.703125 L 5.953125 -2.453125 C 5.410156 -1.617188 4.804688 -0.953125 4.140625 -0.453125 C 3.472656 0.046875 2.859375 0.296875 2.296875 0.296875 C 1.972656 0.296875 1.722656 0.191406 1.546875 -0.015625 C 1.378906 -0.234375 1.296875 -0.519531 1.296875 -0.875 C 1.296875 -1.144531 1.347656 -1.453125 1.453125 -1.796875 L 3.40625 -8.53125 C 3.519531 -8.9375 3.578125 -9.222656 3.578125 -9.390625 C 3.578125 -9.597656 3.503906 -9.785156 3.359375 -9.953125 C 3.210938 -10.117188 2.992188 -10.203125 2.703125 -10.203125 C 2.585938 -10.203125 2.273438 -10.160156 1.765625 -10.078125 L 1.890625 -10.5 L 5.609375 -11.203125 L 6.03125 -11.203125 Z M 3.4375 -2.1875 "/></g></g></g><g fill="#eeede9" fill-opacity="1"><g transform="translate(59.489262, 17.710448)"><g><path d="M 7.890625 -11.203125 C 8.484375 -11.203125 9.039062 -11.046875 9.5625 -10.734375 C 10.082031 -10.421875 10.5 -9.984375 10.8125 -9.421875 C 11.132812 -8.859375 11.296875 -8.21875 11.296875 -7.5 C 11.296875 -6.0625 10.925781 -4.742188 10.1875 -3.546875 C 9.457031 -2.359375 8.539062 -1.421875 7.4375 -0.734375 C 6.332031 -0.046875 5.285156 0.296875 4.296875 0.296875 C 3.492188 0.296875 2.835938 0.0859375 2.328125 -0.328125 C 1.816406 -0.742188 1.445312 -1.242188 1.21875 -1.828125 C 0.988281 -2.421875 0.875 -2.976562 0.875 -3.5 C 0.875 -4.613281 1.21875 -5.773438 1.90625 -6.984375 C 2.59375 -8.191406 3.476562 -9.195312 4.5625 -10 C 5.65625 -10.800781 6.765625 -11.203125 7.890625 -11.203125 Z M 2.890625 -2.578125 C 2.890625 -1.921875 3.0625 -1.378906 3.40625 -0.953125 C 3.75 -0.523438 4.191406 -0.3125 4.734375 -0.3125 C 5.234375 -0.3125 5.707031 -0.460938 6.15625 -0.765625 C 6.613281 -1.066406 7 -1.484375 7.3125 -2.015625 C 7.914062 -2.992188 8.40625 -4.082031 8.78125 -5.28125 C 9.164062 -6.476562 9.359375 -7.476562 9.359375 -8.28125 C 9.359375 -9.882812 8.753906 -10.6875 7.546875 -10.6875 C 6.679688 -10.6875 5.894531 -10.207031 5.1875 -9.25 C 4.476562 -8.300781 3.914062 -7.175781 3.5 -5.875 C 3.09375 -4.570312 2.890625 -3.472656 2.890625 -2.578125 Z M 2.890625 -2.578125 "/></g></g></g><g clip-path="url(#ede3d7ec71)"><g fill="#eeede9" fill-opacity="1"><g transform="translate(70.030792, 17.710448)"><g><path d="M 3.84375 -5.515625 C 4.875 -7.210938 5.910156 -8.582031 6.953125 -9.625 C 8.003906 -10.675781 8.976562 -11.203125 9.875 -11.203125 C 10.25 -11.203125 10.5625 -11.070312 10.8125 -10.8125 C 11.070312 -10.5625 11.203125 -10.203125 11.203125 -9.734375 C 11.203125 -9.296875 11.085938 -8.660156 10.859375 -7.828125 L 9.3125 -2.53125 C 9.164062 -2 9.09375 -1.640625 9.09375 -1.453125 C 9.09375 -1.296875 9.128906 -1.1875 9.203125 -1.125 C 9.273438 -1.0625 9.351562 -1.03125 9.4375 -1.03125 C 9.632812 -1.03125 9.9375 -1.238281 10.34375 -1.65625 C 10.75 -2.082031 11.023438 -2.421875 11.171875 -2.671875 L 11.546875 -2.375 C 11.035156 -1.675781 10.46875 -1.054688 9.84375 -0.515625 C 9.21875 0.0234375 8.625 0.296875 8.0625 0.296875 C 7.800781 0.296875 7.582031 0.195312 7.40625 0 C 7.226562 -0.207031 7.140625 -0.484375 7.140625 -0.828125 C 7.140625 -1.191406 7.226562 -1.675781 7.40625 -2.28125 L 9.078125 -8.140625 C 9.085938 -8.191406 9.125 -8.328125 9.1875 -8.546875 C 9.257812 -8.765625 9.296875 -8.976562 9.296875 -9.1875 C 9.296875 -9.40625 9.238281 -9.570312 9.125 -9.6875 C 9.007812 -9.800781 8.882812 -9.859375 8.75 -9.859375 C 8.375 -9.859375 7.832031 -9.535156 7.125 -8.890625 C 6.414062 -8.253906 5.722656 -7.457031 5.046875 -6.5 C 4.472656 -5.695312 4.007812 -4.957031 3.65625 -4.28125 C 3.3125 -3.601562 3 -2.78125 2.71875 -1.8125 C 2.507812 -1.113281 2.335938 -0.507812 2.203125 0 L 0.3125 0 L 2.640625 -8.15625 C 2.660156 -8.207031 2.71875 -8.414062 2.8125 -8.78125 C 2.914062 -9.15625 2.96875 -9.421875 2.96875 -9.578125 C 2.96875 -9.773438 2.894531 -9.925781 2.75 -10.03125 C 2.613281 -10.144531 2.429688 -10.203125 2.203125 -10.203125 C 1.972656 -10.203125 1.644531 -10.1875 1.21875 -10.15625 L 1.21875 -10.59375 L 4.984375 -11.203125 L 5.421875 -11.203125 L 3.796875 -5.5625 Z M 3.84375 -5.515625 "/></g></g></g></g></g></g></g></g></g></svg>