<svg width="101" height="53" viewBox="0 0 101 53" fill="none" xmlns="http://www.w3.org/2000/svg">
<g filter="url(#filter0_dd_22_2597)">
<path d="M5 13C5 6.37258 10.3726 1 17 1H84C90.6274 1 96 6.37258 96 13V25C96 31.6274 90.6274 37 84 37H17C10.3726 37 5 31.6274 5 25V13Z" fill="#FBE4AB"/>
<path d="M23.9561 16.4929C23.903 16.0223 23.6843 15.6577 23.2998 15.3991C22.9153 15.1373 22.4314 15.0064 21.8481 15.0064C21.4305 15.0064 21.0692 15.0727 20.7643 15.2053C20.4594 15.3345 20.2224 15.5135 20.0534 15.7422C19.8876 15.9676 19.8048 16.2244 19.8048 16.5128C19.8048 16.7547 19.8611 16.9635 19.9738 17.1392C20.0898 17.3149 20.2406 17.4624 20.4262 17.5817C20.6151 17.6977 20.8173 17.7955 21.0328 17.875C21.2482 17.9512 21.4553 18.0142 21.6542 18.0639L22.6485 18.3224C22.9733 18.402 23.3064 18.5097 23.6478 18.6456C23.9892 18.7815 24.3057 18.9605 24.5974 19.1825C24.8891 19.4046 25.1244 19.6797 25.3034 20.0078C25.4856 20.3359 25.5768 20.7287 25.5768 21.1861C25.5768 21.7628 25.4276 22.2749 25.1294 22.7223C24.8344 23.1697 24.4052 23.5227 23.8417 23.7812C23.2816 24.0398 22.6038 24.169 21.8083 24.169C21.046 24.169 20.3865 24.0481 19.8296 23.8061C19.2728 23.5642 18.837 23.2211 18.5221 22.777C18.2072 22.3295 18.0332 21.7992 18.0001 21.1861H19.5413C19.5711 21.554 19.6904 21.8606 19.8992 22.1058C20.1114 22.3478 20.3815 22.5284 20.7096 22.6477C21.041 22.7637 21.404 22.8217 21.7984 22.8217C22.2326 22.8217 22.6187 22.7538 22.9568 22.6179C23.2981 22.4787 23.5666 22.2865 23.7622 22.0412C23.9577 21.7926 24.0555 21.5026 24.0555 21.1712C24.0555 20.8696 23.9693 20.6226 23.797 20.4304C23.6279 20.2382 23.3976 20.0791 23.1059 19.9531C22.8176 19.8272 22.4911 19.7161 22.1265 19.62L20.9234 19.2919C20.108 19.0698 19.4617 18.7434 18.9845 18.3125C18.5105 17.8816 18.2735 17.3116 18.2735 16.6023C18.2735 16.0156 18.4326 15.5036 18.7508 15.0661C19.069 14.6286 19.4999 14.2888 20.0434 14.0469C20.587 13.8016 21.2001 13.679 21.8829 13.679C22.5723 13.679 23.1805 13.8 23.7075 14.0419C24.2378 14.2839 24.6554 14.617 24.9603 15.0412C25.2652 15.4621 25.4243 15.946 25.4376 16.4929H23.9561ZM30.8579 16.3636V17.5568H26.6867V16.3636H30.8579ZM27.8053 14.5341H29.2918V21.7578C29.2918 22.0462 29.3349 22.2633 29.4211 22.4091C29.5073 22.5516 29.6183 22.6494 29.7542 22.7024C29.8934 22.7521 30.0442 22.777 30.2066 22.777C30.3259 22.777 30.4303 22.7687 30.5198 22.7521C30.6093 22.7356 30.6789 22.7223 30.7286 22.7124L30.9971 23.9403C30.9109 23.9735 30.7883 24.0066 30.6292 24.0398C30.4701 24.0762 30.2712 24.0961 30.0326 24.0994C29.6415 24.1061 29.2769 24.0365 28.9388 23.8906C28.6008 23.7448 28.3273 23.5194 28.1185 23.2145C27.9097 22.9096 27.8053 22.5268 27.8053 22.0661V14.5341ZM35.7114 24.1541C34.959 24.1541 34.3111 23.9934 33.7675 23.6719C33.2272 23.3471 32.8096 22.8913 32.5146 22.3047C32.223 21.7147 32.0771 21.0237 32.0771 20.2315C32.0771 19.4493 32.223 18.7599 32.5146 18.1634C32.8096 17.5668 33.2206 17.1011 33.7476 16.7663C34.2779 16.4316 34.8977 16.2642 35.607 16.2642C36.0378 16.2642 36.4555 16.3355 36.8598 16.478C37.2642 16.6205 37.6271 16.8442 37.9486 17.1491C38.2701 17.4541 38.5236 17.8501 38.7093 18.3374C38.8949 18.8213 38.9877 19.4096 38.9877 20.1023V20.6293H32.9173V19.5156H37.531C37.531 19.1245 37.4514 18.7782 37.2923 18.4766C37.1333 18.1716 36.9095 17.9313 36.6212 17.7557C36.3361 17.58 36.0014 17.4922 35.6169 17.4922C35.1993 17.4922 34.8347 17.5949 34.5232 17.8004C34.2149 18.0026 33.9763 18.2678 33.8073 18.5959C33.6415 18.9207 33.5587 19.2737 33.5587 19.6548V20.5249C33.5587 21.0353 33.6482 21.4695 33.8271 21.8274C34.0094 22.1854 34.263 22.4588 34.5878 22.6477C34.9126 22.8333 35.2921 22.9261 35.7263 22.9261C36.008 22.9261 36.2649 22.8864 36.4969 22.8068C36.7289 22.724 36.9294 22.6013 37.0985 22.4389C37.2675 22.2765 37.3968 22.076 37.4862 21.8374L38.8932 22.0909C38.7805 22.5052 38.5783 22.8681 38.2867 23.1797C37.9983 23.4879 37.6354 23.7282 37.1979 23.9006C36.7637 24.0696 36.2682 24.1541 35.7114 24.1541ZM40.637 26.8636V16.3636H42.0887V17.6016H42.213C42.2992 17.4425 42.4234 17.2585 42.5858 17.0497C42.7483 16.8409 42.9736 16.6586 43.262 16.5028C43.5503 16.3438 43.9315 16.2642 44.4055 16.2642C45.0219 16.2642 45.5721 16.42 46.056 16.7315C46.5399 17.0431 46.9194 17.4922 47.1945 18.0788C47.4729 18.6655 47.6121 19.3714 47.6121 20.1967C47.6121 21.022 47.4746 21.7296 47.1995 22.3196C46.9244 22.9062 46.5465 23.3587 46.066 23.6768C45.5854 23.9917 45.0368 24.1491 44.4204 24.1491C43.9564 24.1491 43.5769 24.0713 43.2819 23.9155C42.9902 23.7597 42.7615 23.5774 42.5958 23.3686C42.4301 23.1598 42.3025 22.9742 42.213 22.8118H42.1235V26.8636H40.637ZM42.0937 20.1818C42.0937 20.7187 42.1715 21.1894 42.3273 21.5938C42.4831 21.9981 42.7085 22.3146 43.0035 22.5433C43.2984 22.7687 43.6597 22.8814 44.0873 22.8814C44.5314 22.8814 44.9026 22.7637 45.2009 22.5284C45.4992 22.2898 45.7246 21.9666 45.877 21.5589C46.0328 21.1513 46.1107 20.6922 46.1107 20.1818C46.1107 19.678 46.0345 19.2256 45.882 18.8246C45.7329 18.4235 45.5075 18.107 45.2059 17.875C44.9076 17.643 44.5347 17.527 44.0873 17.527C43.6564 17.527 43.2918 17.638 42.9935 17.8601C42.6985 18.0821 42.4748 18.392 42.3224 18.7898C42.1699 19.1875 42.0937 19.6515 42.0937 20.1818ZM52.749 22.0114V20.7685L57.1489 13.8182H58.1283V15.6477H57.5068L54.3598 20.6293V20.7088H60.3904V22.0114H52.749ZM57.5764 24V21.6335L57.5864 21.0668V13.8182H59.0431V24H57.5764ZM70.3472 18.2628V19.5554H65.833V18.2628H70.3472ZM79.3744 24.1392C78.7513 24.1392 78.1911 24.0199 77.694 23.7812C77.2001 23.5393 76.8057 23.2079 76.5107 22.7869C76.2158 22.366 76.0583 21.8854 76.0384 21.3452H77.5299C77.5664 21.7827 77.7603 22.1423 78.1116 22.424C78.4629 22.7057 78.8838 22.8466 79.3744 22.8466C79.7655 22.8466 80.1118 22.7571 80.4134 22.5781C80.7184 22.3958 80.957 22.1456 81.1294 21.8274C81.305 21.5092 81.3928 21.1463 81.3928 20.7386C81.3928 20.3243 81.3034 19.9548 81.1244 19.63C80.9454 19.3052 80.6985 19.05 80.3836 18.8643C80.0721 18.6787 79.7141 18.5843 79.3097 18.581C79.0015 18.581 78.6916 18.634 78.3801 18.7401C78.0685 18.8461 77.8166 18.9853 77.6244 19.1577L76.2174 18.9489L76.7892 13.8182H82.3872V15.1357H78.0669L77.7437 17.9844H77.8034C78.0022 17.7921 78.2657 17.6314 78.5938 17.5021C78.9253 17.3729 79.2799 17.3082 79.6578 17.3082C80.2776 17.3082 80.8294 17.4557 81.3133 17.7507C81.8005 18.0457 82.1833 18.4484 82.4617 18.9588C82.7435 19.4659 82.8827 20.0492 82.8794 20.7088C82.8827 21.3684 82.7335 21.9567 82.4319 22.4737C82.1336 22.9908 81.7193 23.3984 81.189 23.6967C80.662 23.9917 80.0571 24.1392 79.3744 24.1392Z" fill="#101828"/>
<path d="M49.0858 42.5858L43.0858 36.5858C42.7107 36.2107 42.202 36 41.6716 36H59.3284C58.798 36 58.2893 36.2107 57.9142 36.5858L51.9142 42.5858C51.1332 43.3668 49.8668 43.3668 49.0858 42.5858Z" fill="#FBE4AB"/>
</g>
<defs>
<filter id="filter0_dd_22_2597" x="0" y="0" width="101" height="53" filterUnits="userSpaceOnUse" color-interpolation-filters="sRGB">
<feFlood flood-opacity="0" result="BackgroundImageFix"/>
<feColorMatrix in="SourceAlpha" type="matrix" values="0 0 0 0 0 0 0 0 0 0 0 0 0 0 0 0 0 0 127 0" result="hardAlpha"/>
<feMorphology radius="1" operator="erode" in="SourceAlpha" result="effect1_dropShadow_22_2597"/>
<feOffset dy="4"/>
<feGaussianBlur stdDeviation="3"/>
<feColorMatrix type="matrix" values="0 0 0 0 0.113725 0 0 0 0 0.160784 0 0 0 0 0.239216 0 0 0 0.1 0"/>
<feBlend mode="normal" in2="BackgroundImageFix" result="effect1_dropShadow_22_2597"/>
<feColorMatrix in="SourceAlpha" type="matrix" values="0 0 0 0 0 0 0 0 0 0 0 0 0 0 0 0 0 0 127 0" result="hardAlpha"/>
<feMorphology radius="2" operator="erode" in="SourceAlpha" result="effect2_dropShadow_22_2597"/>
<feOffset dy="2"/>
<feGaussianBlur stdDeviation="2"/>
<feColorMatrix type="matrix" values="0 0 0 0 0.113725 0 0 0 0 0.160784 0 0 0 0 0.239216 0 0 0 0.1 0"/>
<feBlend mode="normal" in2="effect1_dropShadow_22_2597" result="effect2_dropShadow_22_2597"/>
<feBlend mode="normal" in="SourceGraphic" in2="effect2_dropShadow_22_2597" result="shape"/>
</filter>
</defs>
</svg>
