<svg width="100" height="53" viewBox="0 0 100 53" fill="none" xmlns="http://www.w3.org/2000/svg">
<g filter="url(#filter0_dd_22_2587)">
<path d="M5 13C5 6.37258 10.3726 1 17 1H83C89.6274 1 95 6.37258 95 13V25C95 31.6274 89.6274 37 83 37H17C10.3726 37 5 31.6274 5 25V13Z" fill="#FBE4AB"/>
<path d="M23.7432 16.4929C23.6901 16.0223 23.4714 15.6577 23.0869 15.3991C22.7024 15.1373 22.2185 15.0064 21.6352 15.0064C21.2176 15.0064 20.8563 15.0727 20.5514 15.2053C20.2465 15.3345 20.0095 15.5135 19.8405 15.7422C19.6747 15.9676 19.5919 16.2244 19.5919 16.5128C19.5919 16.7547 19.6482 16.9635 19.7609 17.1392C19.8769 17.3149 20.0277 17.4624 20.2133 17.5817C20.4023 17.6977 20.6044 17.7955 20.8199 17.875C21.0353 17.9512 21.2425 18.0142 21.4413 18.0639L22.4356 18.3224C22.7604 18.402 23.0935 18.5097 23.4349 18.6456C23.7763 18.7815 24.0928 18.9605 24.3845 19.1825C24.6762 19.4046 24.9115 19.6797 25.0905 20.0078C25.2728 20.3359 25.3639 20.7287 25.3639 21.1861C25.3639 21.7628 25.2148 22.2749 24.9165 22.7223C24.6215 23.1697 24.1923 23.5227 23.6288 23.7812C23.0687 24.0398 22.3909 24.169 21.5954 24.169C20.8331 24.169 20.1736 24.0481 19.6167 23.8061C19.0599 23.5642 18.6241 23.2211 18.3092 22.777C17.9943 22.3295 17.8203 21.7992 17.7872 21.1861H19.3284C19.3582 21.554 19.4775 21.8606 19.6863 22.1058C19.8985 22.3478 20.1686 22.5284 20.4967 22.6477C20.8282 22.7637 21.1911 22.8217 21.5855 22.8217C22.0197 22.8217 22.4058 22.7538 22.7439 22.6179C23.0853 22.4787 23.3537 22.2865 23.5493 22.0412C23.7448 21.7926 23.8426 21.5026 23.8426 21.1712C23.8426 20.8696 23.7564 20.6226 23.5841 20.4304C23.415 20.2382 23.1847 20.0791 22.893 19.9531C22.6047 19.8272 22.2782 19.7161 21.9136 19.62L20.7105 19.2919C19.8952 19.0698 19.2488 18.7434 18.7716 18.3125C18.2976 17.8816 18.0606 17.3116 18.0606 16.6023C18.0606 16.0156 18.2197 15.5036 18.5379 15.0661C18.8561 14.6286 19.287 14.2888 19.8305 14.0469C20.3741 13.8016 20.9872 13.679 21.67 13.679C22.3594 13.679 22.9676 13.8 23.4946 14.0419C24.0249 14.2839 24.4425 14.617 24.7474 15.0412C25.0524 15.4621 25.2114 15.946 25.2247 16.4929H23.7432ZM30.645 16.3636V17.5568H26.4738V16.3636H30.645ZM27.5924 14.5341H29.0789V21.7578C29.0789 22.0462 29.122 22.2633 29.2082 22.4091C29.2944 22.5516 29.4054 22.6494 29.5413 22.7024C29.6805 22.7521 29.8313 22.777 29.9937 22.777C30.113 22.777 30.2174 22.7687 30.3069 22.7521C30.3964 22.7356 30.466 22.7223 30.5157 22.7124L30.7842 23.9403C30.698 23.9735 30.5754 24.0066 30.4163 24.0398C30.2572 24.0762 30.0583 24.0961 29.8197 24.0994C29.4286 24.1061 29.064 24.0365 28.7259 23.8906C28.3879 23.7448 28.1144 23.5194 27.9056 23.2145C27.6968 22.9096 27.5924 22.5268 27.5924 22.0661V14.5341ZM35.4985 24.1541C34.7461 24.1541 34.0982 23.9934 33.5546 23.6719C33.0144 23.3471 32.5967 22.8913 32.3018 22.3047C32.0101 21.7147 31.8643 21.0237 31.8643 20.2315C31.8643 19.4493 32.0101 18.7599 32.3018 18.1634C32.5967 17.5668 33.0077 17.1011 33.5347 16.7663C34.065 16.4316 34.6848 16.2642 35.3941 16.2642C35.825 16.2642 36.2426 16.3355 36.6469 16.478C37.0513 16.6205 37.4142 16.8442 37.7357 17.1491C38.0572 17.4541 38.3108 17.8501 38.4964 18.3374C38.682 18.8213 38.7748 19.4096 38.7748 20.1023V20.6293H32.7045V19.5156H37.3181C37.3181 19.1245 37.2385 18.7782 37.0795 18.4766C36.9204 18.1716 36.6966 17.9313 36.4083 17.7557C36.1233 17.58 35.7885 17.4922 35.404 17.4922C34.9864 17.4922 34.6218 17.5949 34.3103 17.8004C34.002 18.0026 33.7634 18.2678 33.5944 18.5959C33.4287 18.9207 33.3458 19.2737 33.3458 19.6548V20.5249C33.3458 21.0353 33.4353 21.4695 33.6143 21.8274C33.7965 22.1854 34.0501 22.4588 34.3749 22.6477C34.6997 22.8333 35.0792 22.9261 35.5134 22.9261C35.7951 22.9261 36.052 22.8864 36.284 22.8068C36.516 22.724 36.7165 22.6013 36.8856 22.4389C37.0546 22.2765 37.1839 22.076 37.2733 21.8374L38.6803 22.0909C38.5676 22.5052 38.3654 22.8681 38.0738 23.1797C37.7854 23.4879 37.4225 23.7282 36.985 23.9006C36.5508 24.0696 36.0553 24.1541 35.4985 24.1541ZM40.4241 26.8636V16.3636H41.8758V17.6016H42.0001C42.0863 17.4425 42.2106 17.2585 42.373 17.0497C42.5354 16.8409 42.7607 16.6586 43.0491 16.5028C43.3374 16.3438 43.7186 16.2642 44.1926 16.2642C44.809 16.2642 45.3592 16.42 45.8431 16.7315C46.327 17.0431 46.7065 17.4922 46.9816 18.0788C47.26 18.6655 47.3992 19.3714 47.3992 20.1967C47.3992 21.022 47.2617 21.7296 46.9866 22.3196C46.7115 22.9062 46.3337 23.3587 45.8531 23.6768C45.3725 23.9917 44.824 24.1491 44.2075 24.1491C43.7435 24.1491 43.364 24.0713 43.069 23.9155C42.7773 23.7597 42.5486 23.5774 42.3829 23.3686C42.2172 23.1598 42.0896 22.9742 42.0001 22.8118H41.9106V26.8636H40.4241ZM41.8808 20.1818C41.8808 20.7187 41.9587 21.1894 42.1144 21.5938C42.2702 21.9981 42.4956 22.3146 42.7906 22.5433C43.0856 22.7687 43.4468 22.8814 43.8744 22.8814C44.3185 22.8814 44.6897 22.7637 44.988 22.5284C45.2863 22.2898 45.5117 21.9666 45.6642 21.5589C45.8199 21.1513 45.8978 20.6922 45.8978 20.1818C45.8978 19.678 45.8216 19.2256 45.6691 18.8246C45.52 18.4235 45.2946 18.107 44.993 17.875C44.6947 17.643 44.3218 17.527 43.8744 17.527C43.4435 17.527 43.0789 17.638 42.7806 17.8601C42.4856 18.0821 42.2619 18.392 42.1095 18.7898C41.957 19.1875 41.8808 19.6515 41.8808 20.1818ZM52.7499 24V22.8864L56.1952 19.3168C56.5631 18.929 56.8664 18.5893 57.105 18.2976C57.347 18.0026 57.5276 17.7225 57.6469 17.4574C57.7662 17.1922 57.8259 16.9105 57.8259 16.6122C57.8259 16.2741 57.7464 15.9825 57.5873 15.7372C57.4282 15.4886 57.2111 15.2981 56.936 15.1655C56.6609 15.0296 56.351 14.9616 56.0063 14.9616C55.6417 14.9616 55.3235 15.0362 55.0518 15.1854C54.78 15.3345 54.5712 15.545 54.4253 15.8168C54.2795 16.0885 54.2066 16.4067 54.2066 16.7713H52.74C52.74 16.1515 52.8825 15.6096 53.1675 15.1456C53.4526 14.6816 53.8437 14.322 54.3408 14.0668C54.838 13.8082 55.4031 13.679 56.0361 13.679C56.6758 13.679 57.2393 13.8066 57.7265 14.0618C58.217 14.3137 58.5998 14.6584 58.8749 15.0959C59.15 15.5301 59.2876 16.0206 59.2876 16.5675C59.2876 16.9453 59.2163 17.3149 59.0738 17.6761C58.9346 18.0374 58.691 18.4401 58.343 18.8842C57.9949 19.325 57.511 19.8603 56.8912 20.4901L54.8678 22.608V22.6825H59.4516V24H52.7499ZM69.5601 18.2628V19.5554H65.0459V18.2628H69.5601ZM78.5873 24.1392C77.9642 24.1392 77.404 24.0199 76.9069 23.7812C76.413 23.5393 76.0186 23.2079 75.7236 22.7869C75.4287 22.366 75.2712 21.8854 75.2513 21.3452H76.7428C76.7793 21.7827 76.9732 22.1423 77.3245 22.424C77.6758 22.7057 78.0967 22.8466 78.5873 22.8466C78.9784 22.8466 79.3247 22.7571 79.6263 22.5781C79.9313 22.3958 80.1699 22.1456 80.3422 21.8274C80.5179 21.5092 80.6057 21.1463 80.6057 20.7386C80.6057 20.3243 80.5162 19.9548 80.3373 19.63C80.1583 19.3052 79.9114 19.05 79.5965 18.8643C79.2849 18.6787 78.927 18.5843 78.5226 18.581C78.2144 18.581 77.9045 18.634 77.593 18.7401C77.2814 18.8461 77.0295 18.9853 76.8373 19.1577L75.4303 18.9489L76.002 13.8182H81.6001V15.1357H77.2797L76.9566 17.9844H77.0162C77.2151 17.7921 77.4786 17.6314 77.8067 17.5021C78.1382 17.3729 78.4928 17.3082 78.8706 17.3082C79.4904 17.3082 80.0423 17.4557 80.5262 17.7507C81.0134 18.0457 81.3962 18.4484 81.6746 18.9588C81.9564 19.4659 82.0956 20.0492 82.0922 20.7088C82.0956 21.3684 81.9464 21.9567 81.6448 22.4737C81.3465 22.9908 80.9322 23.3984 80.4019 23.6967C79.8749 23.9917 79.27 24.1392 78.5873 24.1392Z" fill="#101828"/>
<path d="M48.5858 42.5858L42.5858 36.5858C42.2107 36.2107 41.702 36 41.1716 36H58.8284C58.298 36 57.7893 36.2107 57.4142 36.5858L51.4142 42.5858C50.6332 43.3668 49.3668 43.3668 48.5858 42.5858Z" fill="#FBE4AB"/>
</g>
<defs>
<filter id="filter0_dd_22_2587" x="0" y="0" width="100" height="53" filterUnits="userSpaceOnUse" color-interpolation-filters="sRGB">
<feFlood flood-opacity="0" result="BackgroundImageFix"/>
<feColorMatrix in="SourceAlpha" type="matrix" values="0 0 0 0 0 0 0 0 0 0 0 0 0 0 0 0 0 0 127 0" result="hardAlpha"/>
<feMorphology radius="1" operator="erode" in="SourceAlpha" result="effect1_dropShadow_22_2587"/>
<feOffset dy="4"/>
<feGaussianBlur stdDeviation="3"/>
<feColorMatrix type="matrix" values="0 0 0 0 0.113725 0 0 0 0 0.160784 0 0 0 0 0.239216 0 0 0 0.1 0"/>
<feBlend mode="normal" in2="BackgroundImageFix" result="effect1_dropShadow_22_2587"/>
<feColorMatrix in="SourceAlpha" type="matrix" values="0 0 0 0 0 0 0 0 0 0 0 0 0 0 0 0 0 0 127 0" result="hardAlpha"/>
<feMorphology radius="2" operator="erode" in="SourceAlpha" result="effect2_dropShadow_22_2587"/>
<feOffset dy="2"/>
<feGaussianBlur stdDeviation="2"/>
<feColorMatrix type="matrix" values="0 0 0 0 0.113725 0 0 0 0 0.160784 0 0 0 0 0.239216 0 0 0 0.1 0"/>
<feBlend mode="normal" in2="effect1_dropShadow_22_2587" result="effect2_dropShadow_22_2587"/>
<feBlend mode="normal" in="SourceGraphic" in2="effect2_dropShadow_22_2587" result="shape"/>
</filter>
</defs>
</svg>
